#N canvas 970 296 614 662 12;
#X obj 41 241 readsf~;
#X msg 58 202 0;
#X obj 50 279 dac~;
#X obj 41 310 sp.onsetframe~;
#X floatatom 136 244 5 0 100 0 - - - 0;
#X msg 136 278 sensitivity \$1;
#X listbox 148 311 18 0 0 0 - - - 0;
#X obj 41 371 sp.mfccframe;
#X obj 41 522 sel dot dual sys plast cympath cyrinx larynx bacid;
#X obj 41 552 bng 19 250 50 0 empty empty empty 0 -10 0 12 #fcfcfc #000000 #000000;
#X obj 84 552 bng 19 250 50 0 empty empty empty 0 -10 0 12 #fcfcfc #000000 #000000;
#X obj 127 552 bng 19 250 50 0 empty empty empty 0 -10 0 12 #fcfcfc #000000 #000000;
#X obj 171 551 bng 19 250 50 0 empty empty empty 0 -10 0 12 #fcfcfc #000000 #000000;
#X obj 214 552 bng 19 250 50 0 empty empty empty 0 -10 0 12 #fcfcfc #000000 #000000;
#X obj 257 552 bng 19 250 50 0 empty empty empty 0 -10 0 12 #fcfcfc #000000 #000000;
#X obj 301 551 bng 19 250 50 0 empty empty empty 0 -10 0 12 #fcfcfc #000000 #000000;
#X obj 344 552 bng 19 250 50 0 empty empty empty 0 -10 0 12 #fcfcfc #000000 #000000;
#X msg 64 438 train \$1;
#X obj 64 405 tgl 19 0 empty empty empty 0 -10 0 12 #fcfcfc #000000 #000000 0 1;
#X msg 133 411 print;
#X msg 270 367 dot;
#X msg 269 396 dual;
#X msg 269 423 sys;
#X msg 269 450 plast;
#X msg 316 368 cympath;
#X msg 316 395 cyrinx;
#X msg 316 422 larynx;
#X msg 316 449 bacid;
#X floatatom 136 496 5 0 0 0 - - - 0;
#X msg 186 437 class \$1;
#X obj 186 408 symbol;
#X msg 134 438 clear;
#X msg 41 160 open media/Constanzo-PreparedSnare-M.wav \, 1;
#X text 26 22 [sp.classtrain];
#X text 29 47 Create classes based on input analysis, f 70;
#X text 30 75 sp.classtrain will create a classifier based on incoming class labels and descriptor analysis. The labels can be the default Sensory Percussion labels or any arbitrary input.;
#X obj 41 469 sp.classcreate;
#X connect 0 0 2 0;
#X connect 0 0 2 1;
#X connect 0 0 3 0;
#X connect 1 0 0 0;
#X connect 3 0 6 0;
#X connect 3 0 7 0;
#X connect 4 0 5 0;
#X connect 5 0 3 1;
#X connect 7 0 36 0;
#X connect 8 0 9 0;
#X connect 8 1 10 0;
#X connect 8 2 11 0;
#X connect 8 3 12 0;
#X connect 8 4 13 0;
#X connect 8 5 14 0;
#X connect 8 6 15 0;
#X connect 8 7 16 0;
#X connect 17 0 36 0;
#X connect 18 0 17 0;
#X connect 19 0 36 0;
#X connect 20 0 30 0;
#X connect 21 0 30 0;
#X connect 22 0 30 0;
#X connect 23 0 30 0;
#X connect 24 0 30 0;
#X connect 25 0 30 0;
#X connect 26 0 30 0;
#X connect 27 0 30 0;
#X connect 29 0 36 0;
#X connect 30 0 29 0;
#X connect 31 0 36 0;
#X connect 32 0 0 0;
#X connect 36 0 8 0;
#X connect 36 1 28 0;
