#N canvas 621 111 1125 446 12;
#X obj 17 18 inlet;
#N canvas 131 166 400 456 calibrateScale 0;
#X obj 231 153 >;
#X obj 192 185 spigot;
#X obj 192 117 t f f, f 6;
#X msg 302 118 -999;
#X obj 113 185 spigot;
#X obj 113 117 t f f, f 6;
#X obj 152 153 <;
#X msg 264 118 999;
#X obj 34 34 inlet;
#X obj 34 76 t f f f, f 23;
#X obj 192 225 t f f;
#X obj 224 258 * 0.05;
#X obj 192 291 -, f 5;
#X obj 113 223 t f f;
#X obj 145 256 * 0.05;
#X obj 113 289 -, f 5;
#X obj 34 364 clip 0 1;
#X obj 34 405 outlet;
#X obj 264 34 inlet;
#N canvas 661 670 1114 575 m_scale 0;
#X obj 197 85 inlet;
#X obj 247 85 inlet;
#X obj 317 85 inlet;
#X obj 367 85 inlet;
#X obj 111 54 inlet;
#X obj 111 466 outlet;
#X text 174 54 scale [from_low \, from_hi] to [to_low \, to_hi];
#X obj 416 126 t b b b b;
#X obj 416 84 loadbang;
#X obj 111 433 +;
#X text 229 297 inh-inl;
#X text 354 286 outh-outl;
#X obj 111 396 *;
#X text 143 338 - inl;
#X text 143 434 + outl;
#X obj 247 237 t b a;
#X obj 367 225 t b a;
#X msg 425 105 bang;
#X obj 111 364 / 1;
#X obj 111 340 -;
#X obj 317 287 -;
#X obj 317 266 swap;
#X obj 197 271 swap;
#X obj 197 296 -;
#X obj 197 135 unpack 0 0 0 0;
#X obj 197 115 route list;
#X text 542 108 ARGS;
#X text 552 154 2: input_high_border;
#X text 552 180 3: output_low_border;
#X text 552 202 4: output_high_border;
#X text 553 229 5: mapping: float is a pow-exponent \, "dB" can be used to use a dB scaling (optional \, default is linear);
#X text 552 132 1: input_low_border or list of four values;
#N canvas 172 83 586 377 LICENSE-GPL 0;
#X text 57 88 This program is free software: you can redistribute it and/or modify it under the terms of the GNU General Public License as published by the Free Software Foundation \, either version 3 of the License \, or (at your option) any later version.;
#X text 58 168 This program is distributed in the hope that it will be useful \, but WITHOUT ANY WARRANTY \; without even the implied warranty of MERCHANTABILITY or FITNESS FOR A PARTICULAR PURPOSE. See the GNU General Public License for more details.;
#X text 57 261 You should have received a copy of the GNU General Public License along with this program. If not \, see <http://www.gnu.org/licenses/>.;
#X text 61 54 Copyright (C) 2009 \, Reality Jockey Ltd.;
#X text 60 325 See the file LICENSE.txt for the full license text.;
#X restore 665 88 pd LICENSE-GPL;
#X obj 197 174 f -100;
#X obj 247 172 f -50;
#X obj 318 172 f 0;
#X obj 369 171 f 1;
#X connect 0 0 25 0;
#X connect 1 0 34 0;
#X connect 2 0 35 0;
#X connect 3 0 36 0;
#X connect 4 0 19 0;
#X connect 7 0 33 0;
#X connect 7 1 34 0;
#X connect 7 2 35 0;
#X connect 7 3 36 0;
#X connect 8 0 7 0;
#X connect 9 0 5 0;
#X connect 12 0 9 0;
#X connect 15 0 22 0;
#X connect 15 1 22 1;
#X connect 16 0 21 0;
#X connect 16 1 21 1;
#X connect 17 0 7 0;
#X connect 18 0 12 0;
#X connect 19 0 18 0;
#X connect 20 0 12 1;
#X connect 21 0 20 0;
#X connect 21 1 20 1;
#X connect 22 0 23 0;
#X connect 22 1 23 1;
#X connect 23 0 18 1;
#X connect 24 0 33 0;
#X connect 24 1 34 0;
#X connect 24 2 35 0;
#X connect 24 3 36 0;
#X connect 25 0 24 0;
#X connect 25 1 33 0;
#X connect 33 0 19 1;
#X connect 33 0 22 0;
#X connect 34 0 15 0;
#X connect 35 0 9 1;
#X connect 35 0 21 0;
#X connect 36 0 16 0;
#X restore 34 330 pd m_scale;
#X f 29;
#X connect 0 0 1 1;
#X connect 1 0 0 1;
#X connect 1 0 10 0;
#X connect 2 0 1 0;
#X connect 2 1 0 0;
#X connect 3 0 0 1;
#X connect 4 0 6 1;
#X connect 4 0 13 0;
#X connect 5 0 4 0;
#X connect 5 1 6 0;
#X connect 6 0 4 1;
#X connect 7 0 6 1;
#X connect 8 0 9 0;
#X connect 9 0 19 0;
#X connect 9 1 5 0;
#X connect 9 2 2 0;
#X connect 10 0 12 0;
#X connect 10 1 11 0;
#X connect 11 0 12 1;
#X connect 12 0 19 2;
#X connect 13 0 15 0;
#X connect 13 1 14 0;
#X connect 14 0 15 1;
#X connect 15 0 19 1;
#X connect 16 0 17 0;
#X connect 18 0 7 0;
#X connect 18 0 3 0;
#X connect 19 0 16 0;
#X restore 91 164 pd calibrateScale;
#X obj 17 59 route reset;
#X obj 91 96 t l l, f 20;
#X msg 91 131 \$1;
#X msg 228 131 \$3;
#X obj 91 345 pack f f f f f f f f f f, f 130;
#X obj 91 386 outlet;
#N canvas 740 34 364 293 history 0;
#N canvas 704 265 331 273 zl.stream 0;
#X obj 47 111 list append;
#X obj 115 80 route clear;
#X obj 179 113 route float;
#X obj 48 31 inlet;
#X obj 108 31 inlet;
#X obj 48 178 list split \$1;
#X obj 49 215 outlet;
#X text 244 219 .mmb;
#X connect 0 0 5 0;
#X connect 1 0 0 1;
#X connect 1 1 2 0;
#X connect 2 0 5 1;
#X connect 3 0 0 0;
#X connect 4 0 1 0;
#X connect 5 0 0 1;
#X connect 5 0 6 0;
#X connect 5 2 0 1;
#X restore 89 170 pd zl.stream;
#X msg 170 138 7;
#X msg 89 106 0.5 \, 0.5 \, 0.5 \, 0.5 \, 0.5 \, 0.5;
#X obj 89 43 loadbang;
#X obj 89 73 t b b;
#X obj 36 106 inlet;
#X obj 89 203 outlet;
#X connect 0 0 6 0;
#X connect 1 0 0 1;
#X connect 2 0 0 0;
#X connect 3 0 4 0;
#X connect 4 0 2 0;
#X connect 4 1 1 0;
#X connect 5 0 0 0;
#X restore 626 237 pd history;
#N canvas 761 57 233 260 direction 0;
#X obj 57 66 t f f;
#X obj 59 105 -;
#X obj 59 139 < 0;
#X obj 57 34 inlet;
#X obj 59 174 outlet;
#X connect 0 0 1 1;
#X connect 0 1 1 0;
#X connect 1 0 2 0;
#X connect 2 0 4 0;
#X connect 3 0 0 0;
#X restore 998 307 pd direction;
#X obj 626 269 t l l l l, f 48;
#X obj 594 201 t f f;
#N canvas 740 34 364 293 history 0;
#N canvas 704 265 331 273 zl.stream 0;
#X obj 47 111 list append;
#X obj 115 80 route clear;
#X obj 179 113 route float;
#X obj 48 31 inlet;
#X obj 108 31 inlet;
#X obj 48 178 list split \$1;
#X obj 49 215 outlet;
#X text 244 219 .mmb;
#X connect 0 0 5 0;
#X connect 1 0 0 1;
#X connect 1 1 2 0;
#X connect 2 0 5 1;
#X connect 3 0 0 0;
#X connect 4 0 1 0;
#X connect 5 0 0 1;
#X connect 5 0 6 0;
#X connect 5 2 0 1;
#X restore 89 170 pd zl.stream;
#X msg 170 138 7;
#X msg 89 106 0.5 \, 0.5 \, 0.5 \, 0.5 \, 0.5 \, 0.5;
#X obj 89 43 loadbang;
#X obj 89 73 t b b;
#X obj 36 106 inlet;
#X obj 89 203 outlet;
#X connect 0 0 6 0;
#X connect 1 0 0 1;
#X connect 2 0 0 0;
#X connect 3 0 4 0;
#X connect 4 0 2 0;
#X connect 4 1 1 0;
#X connect 5 0 0 0;
#X restore 123 236 pd history;
#N canvas 761 57 233 260 direction 0;
#X obj 57 66 t f f;
#X obj 59 105 -;
#X obj 59 139 < 0;
#X obj 57 34 inlet;
#X obj 59 174 outlet;
#X connect 0 0 1 1;
#X connect 0 1 1 0;
#X connect 1 0 2 0;
#X connect 2 0 4 0;
#X connect 3 0 0 0;
#X restore 494 306 pd direction;
#X obj 123 268 t l l l l, f 48;
#X obj 91 200 t f f;
#N canvas 530 507 450 396 list-mean 0;
#X obj 127 69 inlet;
#X obj 127 337 outlet;
#X obj 146 164 route float;
#X obj 127 274 f;
#X obj 127 308 /;
#X obj 146 189 t a b;
#N canvas 370 313 450 300 accum 0;
#X obj 182 102 0;
#X obj 135 79 inlet;
#X obj 182 79 inlet;
#X obj 135 169 outlet;
#X obj 135 137 +;
#X obj 168 138 f;
#X connect 0 0 4 1;
#X connect 1 0 4 0;
#X connect 2 0 0 0;
#X connect 4 0 3 0;
#X connect 4 0 5 0;
#X connect 5 0 4 1;
#X restore 146 224 pd accum;
#N canvas 425 298 450 300 count 0;
#X obj 133 59 b;
#X obj 133 35 inlet;
#X obj 183 35 inlet;
#X obj 164 111 + 1;
#X obj 133 133 outlet;
#X msg 183 71 1;
#X obj 133 110 f 1;
#X connect 0 0 6 0;
#X connect 1 0 0 0;
#X connect 2 0 5 0;
#X connect 3 0 6 1;
#X connect 5 0 6 1;
#X connect 6 0 3 0;
#X connect 6 0 4 0;
#X restore 229 227 pd count;
#X obj 127 105 t b a b b;
#N canvas 320 373 684 509 list-drip 0;
#X obj 63 84 t a a;
#X obj 63 241 spigot;
#X obj 102 149 bang;
#X obj 102 168 1;
#X obj 223 149 route bang;
#X obj 183 150 bang;
#X obj 183 169 0;
#X obj 102 114 list split 2;
#X obj 232 379 list split;
#X obj 299 328 list length;
#X obj 299 350 >> 1;
#X obj 63 260 t a a a a;
#X obj 63 446 list split;
#X obj 130 398 list length;
#X obj 130 423 >> 1;
#X obj 31 19 inlet;
#X obj 290 175 outlet;
#X text 73 19 Copyright 2009 by Mathieu Bouchard;
#X obj 31 53 t b a;
#X obj 465 119 outlet;
#X text 520 121 signal end of list;
#X text 381 23 made compatible with [list-drip]: fbar 2009;
#X connect 0 0 1 0;
#X connect 0 1 7 0;
#X connect 1 0 11 0;
#X connect 2 0 3 0;
#X connect 3 0 1 1;
#X connect 4 1 16 0;
#X connect 5 0 6 0;
#X connect 6 0 1 1;
#X connect 7 0 2 0;
#X connect 7 2 4 0;
#X connect 7 2 5 0;
#X connect 8 0 0 0;
#X connect 9 0 10 0;
#X connect 10 0 8 1;
#X connect 11 0 12 0;
#X connect 11 1 13 0;
#X connect 11 2 8 0;
#X connect 11 3 9 0;
#X connect 12 1 0 0;
#X connect 13 0 14 0;
#X connect 14 0 12 1;
#X connect 15 0 18 0;
#X connect 18 0 19 0;
#X connect 18 1 0 0;
#X restore 146 137 pd list-drip;
#X connect 0 0 8 0;
#X connect 2 0 5 0;
#X connect 3 0 4 0;
#X connect 4 0 1 0;
#X connect 5 0 6 0;
#X connect 5 1 7 0;
#X connect 6 0 3 1;
#X connect 7 0 4 1;
#X connect 8 0 3 0;
#X connect 8 1 9 0;
#X connect 8 2 6 1;
#X connect 8 3 7 1;
#X connect 9 0 2 0;
#X restore 106 305 pd list-mean;
#N canvas 530 507 450 396 list-mean 0;
#X obj 127 69 inlet;
#X obj 127 337 outlet;
#X obj 146 164 route float;
#X obj 127 274 f;
#X obj 127 308 /;
#X obj 146 189 t a b;
#N canvas 370 313 450 300 accum 0;
#X obj 182 102 0;
#X obj 135 79 inlet;
#X obj 182 79 inlet;
#X obj 135 169 outlet;
#X obj 135 137 +;
#X obj 168 138 f;
#X connect 0 0 4 1;
#X connect 1 0 4 0;
#X connect 2 0 0 0;
#X connect 4 0 3 0;
#X connect 4 0 5 0;
#X connect 5 0 4 1;
#X restore 146 224 pd accum;
#N canvas 425 298 450 300 count 0;
#X obj 133 59 b;
#X obj 133 35 inlet;
#X obj 183 35 inlet;
#X obj 164 111 + 1;
#X obj 133 133 outlet;
#X msg 183 71 1;
#X obj 133 110 f 1;
#X connect 0 0 6 0;
#X connect 1 0 0 0;
#X connect 2 0 5 0;
#X connect 3 0 6 1;
#X connect 5 0 6 1;
#X connect 6 0 3 0;
#X connect 6 0 4 0;
#X restore 229 227 pd count;
#X obj 127 105 t b a b b;
#N canvas 320 373 684 509 list-drip 0;
#X obj 63 84 t a a;
#X obj 63 241 spigot;
#X obj 102 149 bang;
#X obj 102 168 1;
#X obj 223 149 route bang;
#X obj 183 150 bang;
#X obj 183 169 0;
#X obj 102 114 list split 2;
#X obj 232 379 list split;
#X obj 299 328 list length;
#X obj 299 350 >> 1;
#X obj 63 260 t a a a a;
#X obj 63 446 list split;
#X obj 130 398 list length;
#X obj 130 423 >> 1;
#X obj 31 19 inlet;
#X obj 290 175 outlet;
#X text 73 19 Copyright 2009 by Mathieu Bouchard;
#X obj 31 53 t b a;
#X obj 465 119 outlet;
#X text 520 121 signal end of list;
#X text 381 23 made compatible with [list-drip]: fbar 2009;
#X connect 0 0 1 0;
#X connect 0 1 7 0;
#X connect 1 0 11 0;
#X connect 2 0 3 0;
#X connect 3 0 1 1;
#X connect 4 1 16 0;
#X connect 5 0 6 0;
#X connect 6 0 1 1;
#X connect 7 0 2 0;
#X connect 7 2 4 0;
#X connect 7 2 5 0;
#X connect 8 0 0 0;
#X connect 9 0 10 0;
#X connect 10 0 8 1;
#X connect 11 0 12 0;
#X connect 11 1 13 0;
#X connect 11 2 8 0;
#X connect 11 3 9 0;
#X connect 12 1 0 0;
#X connect 13 0 14 0;
#X connect 14 0 12 1;
#X connect 15 0 18 0;
#X connect 18 0 19 0;
#X connect 18 1 0 0;
#X restore 146 137 pd list-drip;
#X connect 0 0 8 0;
#X connect 2 0 5 0;
#X connect 3 0 4 0;
#X connect 4 0 1 0;
#X connect 5 0 6 0;
#X connect 5 1 7 0;
#X connect 6 0 3 1;
#X connect 7 0 4 1;
#X connect 8 0 3 0;
#X connect 8 1 9 0;
#X connect 8 2 6 1;
#X connect 8 3 7 1;
#X connect 9 0 2 0;
#X restore 608 306 pd list-mean;
#N canvas 232 209 825 608 linearRegression 0;
#X obj 49 40 inlet;
#X msg 49 110 1 2 3 4 5 6 7;
#X obj 49 546 outlet;
#X obj 49 513 clip 0 1;
#X obj 49 447 /, f 50;
#X obj 49 407 -, f 24;
#X obj 49 372 *, f 12;
#X obj 214 373 *, f 12;
#X obj 396 407 -, f 24;
#X obj 561 373 *, f 12;
#X obj 130 336 list length;
#X obj 417 148 t l l l l;
#X obj 49 149 t l l l l l l, f 33;
#X obj 396 373 *, f 12;
#X obj 477 337 list length;
#X obj 49 74 t b l, f 53;
#N canvas 425 488 450 300 list-accum 0;
#X obj 212 193 f 0;
#X obj 182 192 + 1;
#X obj 212 168 0;
#X obj 182 53 inlet;
#X obj 182 81 t a b;
#X obj 182 140 route float;
#X obj 166 245 outlet;
#X obj 166 220 f;
#X text 116 23 list-accum: add all floats in a list;
#N canvas 320 373 684 509 list-drip 0;
#X obj 63 84 t a a;
#X obj 63 241 spigot;
#X obj 102 149 bang;
#X obj 102 168 1;
#X obj 223 149 route bang;
#X obj 183 150 bang;
#X obj 183 169 0;
#X obj 102 114 list split 2;
#X obj 232 379 list split;
#X obj 299 328 list length;
#X obj 299 350 >> 1;
#X obj 63 260 t a a a a;
#X obj 63 446 list split;
#X obj 130 398 list length;
#X obj 130 423 >> 1;
#X obj 31 19 inlet;
#X obj 290 175 outlet;
#X text 73 19 Copyright 2009 by Mathieu Bouchard;
#X obj 31 53 t b a;
#X obj 465 119 outlet;
#X text 520 121 signal end of list;
#X text 381 23 made compatible with [list-drip]: fbar 2009;
#X connect 0 0 1 0;
#X connect 0 1 7 0;
#X connect 1 0 11 0;
#X connect 2 0 3 0;
#X connect 3 0 1 1;
#X connect 4 1 16 0;
#X connect 5 0 6 0;
#X connect 6 0 1 1;
#X connect 7 0 2 0;
#X connect 7 2 4 0;
#X connect 7 2 5 0;
#X connect 8 0 0 0;
#X connect 9 0 10 0;
#X connect 10 0 8 1;
#X connect 11 0 12 0;
#X connect 11 1 13 0;
#X connect 11 2 8 0;
#X connect 11 3 9 0;
#X connect 12 1 0 0;
#X connect 13 0 14 0;
#X connect 14 0 12 1;
#X connect 15 0 18 0;
#X connect 18 0 19 0;
#X connect 18 1 0 0;
#X restore 182 110 pd list-drip;
#X connect 0 0 1 1;
#X connect 1 0 0 0;
#X connect 1 0 7 1;
#X connect 2 0 0 0;
#X connect 3 0 4 0;
#X connect 4 0 9 0;
#X connect 4 1 2 0;
#X connect 5 0 1 0;
#X connect 7 0 6 0;
#X connect 9 0 5 0;
#X connect 9 1 7 0;
#X restore 49 297 pd list-accum;
#N canvas 425 488 450 300 list-accum 0;
#X obj 212 193 f 0;
#X obj 182 192 + 1;
#X obj 212 168 0;
#X obj 182 53 inlet;
#X obj 182 81 t a b;
#X obj 182 140 route float;
#X obj 166 245 outlet;
#X obj 166 220 f;
#X text 116 23 list-accum: add all floats in a list;
#N canvas 320 373 684 509 list-drip 0;
#X obj 63 84 t a a;
#X obj 63 241 spigot;
#X obj 102 149 bang;
#X obj 102 168 1;
#X obj 223 149 route bang;
#X obj 183 150 bang;
#X obj 183 169 0;
#X obj 102 114 list split 2;
#X obj 232 379 list split;
#X obj 299 328 list length;
#X obj 299 350 >> 1;
#X obj 63 260 t a a a a;
#X obj 63 446 list split;
#X obj 130 398 list length;
#X obj 130 423 >> 1;
#X obj 31 19 inlet;
#X obj 290 175 outlet;
#X text 73 19 Copyright 2009 by Mathieu Bouchard;
#X obj 31 53 t b a;
#X obj 465 119 outlet;
#X text 520 121 signal end of list;
#X text 381 23 made compatible with [list-drip]: fbar 2009;
#X connect 0 0 1 0;
#X connect 0 1 7 0;
#X connect 1 0 11 0;
#X connect 2 0 3 0;
#X connect 3 0 1 1;
#X connect 4 1 16 0;
#X connect 5 0 6 0;
#X connect 6 0 1 1;
#X connect 7 0 2 0;
#X connect 7 2 4 0;
#X connect 7 2 5 0;
#X connect 8 0 0 0;
#X connect 9 0 10 0;
#X connect 10 0 8 1;
#X connect 11 0 12 0;
#X connect 11 1 13 0;
#X connect 11 2 8 0;
#X connect 11 3 9 0;
#X connect 12 1 0 0;
#X connect 13 0 14 0;
#X connect 14 0 12 1;
#X connect 15 0 18 0;
#X connect 18 0 19 0;
#X connect 18 1 0 0;
#X restore 182 110 pd list-drip;
#X connect 0 0 1 1;
#X connect 1 0 0 0;
#X connect 1 0 7 1;
#X connect 2 0 0 0;
#X connect 3 0 4 0;
#X connect 4 0 9 0;
#X connect 4 1 2 0;
#X connect 5 0 1 0;
#X connect 7 0 6 0;
#X connect 9 0 5 0;
#X connect 9 1 7 0;
#X restore 214 336 pd list-accum;
#N canvas 425 488 450 300 list-accum 0;
#X obj 212 193 f 0;
#X obj 182 192 + 1;
#X obj 212 168 0;
#X obj 182 53 inlet;
#X obj 182 81 t a b;
#X obj 182 140 route float;
#X obj 166 245 outlet;
#X obj 166 220 f;
#X text 116 23 list-accum: add all floats in a list;
#N canvas 320 373 684 509 list-drip 0;
#X obj 63 84 t a a;
#X obj 63 241 spigot;
#X obj 102 149 bang;
#X obj 102 168 1;
#X obj 223 149 route bang;
#X obj 183 150 bang;
#X obj 183 169 0;
#X obj 102 114 list split 2;
#X obj 232 379 list split;
#X obj 299 328 list length;
#X obj 299 350 >> 1;
#X obj 63 260 t a a a a;
#X obj 63 446 list split;
#X obj 130 398 list length;
#X obj 130 423 >> 1;
#X obj 31 19 inlet;
#X obj 290 175 outlet;
#X text 73 19 Copyright 2009 by Mathieu Bouchard;
#X obj 31 53 t b a;
#X obj 465 119 outlet;
#X text 520 121 signal end of list;
#X text 381 23 made compatible with [list-drip]: fbar 2009;
#X connect 0 0 1 0;
#X connect 0 1 7 0;
#X connect 1 0 11 0;
#X connect 2 0 3 0;
#X connect 3 0 1 1;
#X connect 4 1 16 0;
#X connect 5 0 6 0;
#X connect 6 0 1 1;
#X connect 7 0 2 0;
#X connect 7 2 4 0;
#X connect 7 2 5 0;
#X connect 8 0 0 0;
#X connect 9 0 10 0;
#X connect 10 0 8 1;
#X connect 11 0 12 0;
#X connect 11 1 13 0;
#X connect 11 2 8 0;
#X connect 11 3 9 0;
#X connect 12 1 0 0;
#X connect 13 0 14 0;
#X connect 14 0 12 1;
#X connect 15 0 18 0;
#X connect 18 0 19 0;
#X connect 18 1 0 0;
#X restore 182 110 pd list-drip;
#X connect 0 0 1 1;
#X connect 1 0 0 0;
#X connect 1 0 7 1;
#X connect 2 0 0 0;
#X connect 3 0 4 0;
#X connect 4 0 9 0;
#X connect 4 1 2 0;
#X connect 5 0 1 0;
#X connect 7 0 6 0;
#X connect 9 0 5 0;
#X connect 9 1 7 0;
#X restore 295 297 pd list-accum;
#N canvas 425 488 450 300 list-accum 0;
#X obj 212 193 f 0;
#X obj 182 192 + 1;
#X obj 212 168 0;
#X obj 182 53 inlet;
#X obj 182 81 t a b;
#X obj 182 140 route float;
#X obj 166 245 outlet;
#X obj 166 220 f;
#X text 116 23 list-accum: add all floats in a list;
#N canvas 320 373 684 509 list-drip 0;
#X obj 63 84 t a a;
#X obj 63 241 spigot;
#X obj 102 149 bang;
#X obj 102 168 1;
#X obj 223 149 route bang;
#X obj 183 150 bang;
#X obj 183 169 0;
#X obj 102 114 list split 2;
#X obj 232 379 list split;
#X obj 299 328 list length;
#X obj 299 350 >> 1;
#X obj 63 260 t a a a a;
#X obj 63 446 list split;
#X obj 130 398 list length;
#X obj 130 423 >> 1;
#X obj 31 19 inlet;
#X obj 290 175 outlet;
#X text 73 19 Copyright 2009 by Mathieu Bouchard;
#X obj 31 53 t b a;
#X obj 465 119 outlet;
#X text 520 121 signal end of list;
#X text 381 23 made compatible with [list-drip]: fbar 2009;
#X connect 0 0 1 0;
#X connect 0 1 7 0;
#X connect 1 0 11 0;
#X connect 2 0 3 0;
#X connect 3 0 1 1;
#X connect 4 1 16 0;
#X connect 5 0 6 0;
#X connect 6 0 1 1;
#X connect 7 0 2 0;
#X connect 7 2 4 0;
#X connect 7 2 5 0;
#X connect 8 0 0 0;
#X connect 9 0 10 0;
#X connect 10 0 8 1;
#X connect 11 0 12 0;
#X connect 11 1 13 0;
#X connect 11 2 8 0;
#X connect 11 3 9 0;
#X connect 12 1 0 0;
#X connect 13 0 14 0;
#X connect 14 0 12 1;
#X connect 15 0 18 0;
#X connect 18 0 19 0;
#X connect 18 1 0 0;
#X restore 182 110 pd list-drip;
#X connect 0 0 1 1;
#X connect 1 0 0 0;
#X connect 1 0 7 1;
#X connect 2 0 0 0;
#X connect 3 0 4 0;
#X connect 4 0 9 0;
#X connect 4 1 2 0;
#X connect 5 0 1 0;
#X connect 7 0 6 0;
#X connect 9 0 5 0;
#X connect 9 1 7 0;
#X restore 396 297 pd list-accum;
#N canvas 425 488 450 300 list-accum 0;
#X obj 212 193 f 0;
#X obj 182 192 + 1;
#X obj 212 168 0;
#X obj 182 53 inlet;
#X obj 182 81 t a b;
#X obj 182 140 route float;
#X obj 166 245 outlet;
#X obj 166 220 f;
#X text 116 23 list-accum: add all floats in a list;
#N canvas 320 373 684 509 list-drip 0;
#X obj 63 84 t a a;
#X obj 63 241 spigot;
#X obj 102 149 bang;
#X obj 102 168 1;
#X obj 223 149 route bang;
#X obj 183 150 bang;
#X obj 183 169 0;
#X obj 102 114 list split 2;
#X obj 232 379 list split;
#X obj 299 328 list length;
#X obj 299 350 >> 1;
#X obj 63 260 t a a a a;
#X obj 63 446 list split;
#X obj 130 398 list length;
#X obj 130 423 >> 1;
#X obj 31 19 inlet;
#X obj 290 175 outlet;
#X text 73 19 Copyright 2009 by Mathieu Bouchard;
#X obj 31 53 t b a;
#X obj 465 119 outlet;
#X text 520 121 signal end of list;
#X text 381 23 made compatible with [list-drip]: fbar 2009;
#X connect 0 0 1 0;
#X connect 0 1 7 0;
#X connect 1 0 11 0;
#X connect 2 0 3 0;
#X connect 3 0 1 1;
#X connect 4 1 16 0;
#X connect 5 0 6 0;
#X connect 6 0 1 1;
#X connect 7 0 2 0;
#X connect 7 2 4 0;
#X connect 7 2 5 0;
#X connect 8 0 0 0;
#X connect 9 0 10 0;
#X connect 10 0 8 1;
#X connect 11 0 12 0;
#X connect 11 1 13 0;
#X connect 11 2 8 0;
#X connect 11 3 9 0;
#X connect 12 1 0 0;
#X connect 13 0 14 0;
#X connect 14 0 12 1;
#X connect 15 0 18 0;
#X connect 18 0 19 0;
#X connect 18 1 0 0;
#X restore 182 110 pd list-drip;
#X connect 0 0 1 1;
#X connect 1 0 0 0;
#X connect 1 0 7 1;
#X connect 2 0 0 0;
#X connect 3 0 4 0;
#X connect 4 0 9 0;
#X connect 4 1 2 0;
#X connect 5 0 1 0;
#X connect 7 0 6 0;
#X connect 9 0 5 0;
#X connect 9 1 7 0;
#X restore 561 300 pd list-accum;
#N canvas 425 488 450 300 list-accum 0;
#X obj 212 193 f 0;
#X obj 182 192 + 1;
#X obj 212 168 0;
#X obj 182 53 inlet;
#X obj 182 81 t a b;
#X obj 182 140 route float;
#X obj 166 245 outlet;
#X obj 166 220 f;
#X text 116 23 list-accum: add all floats in a list;
#N canvas 320 373 684 509 list-drip 0;
#X obj 63 84 t a a;
#X obj 63 241 spigot;
#X obj 102 149 bang;
#X obj 102 168 1;
#X obj 223 149 route bang;
#X obj 183 150 bang;
#X obj 183 169 0;
#X obj 102 114 list split 2;
#X obj 232 379 list split;
#X obj 299 328 list length;
#X obj 299 350 >> 1;
#X obj 63 260 t a a a a;
#X obj 63 446 list split;
#X obj 130 398 list length;
#X obj 130 423 >> 1;
#X obj 31 19 inlet;
#X obj 290 175 outlet;
#X text 73 19 Copyright 2009 by Mathieu Bouchard;
#X obj 31 53 t b a;
#X obj 465 119 outlet;
#X text 520 121 signal end of list;
#X text 381 23 made compatible with [list-drip]: fbar 2009;
#X connect 0 0 1 0;
#X connect 0 1 7 0;
#X connect 1 0 11 0;
#X connect 2 0 3 0;
#X connect 3 0 1 1;
#X connect 4 1 16 0;
#X connect 5 0 6 0;
#X connect 6 0 1 1;
#X connect 7 0 2 0;
#X connect 7 2 4 0;
#X connect 7 2 5 0;
#X connect 8 0 0 0;
#X connect 9 0 10 0;
#X connect 10 0 8 1;
#X connect 11 0 12 0;
#X connect 11 1 13 0;
#X connect 11 2 8 0;
#X connect 11 3 9 0;
#X connect 12 1 0 0;
#X connect 13 0 14 0;
#X connect 14 0 12 1;
#X connect 15 0 18 0;
#X connect 18 0 19 0;
#X connect 18 1 0 0;
#X restore 182 110 pd list-drip;
#X connect 0 0 1 1;
#X connect 1 0 0 0;
#X connect 1 0 7 1;
#X connect 2 0 0 0;
#X connect 3 0 4 0;
#X connect 4 0 9 0;
#X connect 4 1 2 0;
#X connect 5 0 1 0;
#X connect 7 0 6 0;
#X connect 9 0 5 0;
#X connect 9 1 7 0;
#X restore 642 340 pd list-accum;
#N canvas 565 1088 1114 575 m_scale 0;
#X obj 197 85 inlet;
#X obj 247 85 inlet;
#X obj 317 85 inlet;
#X obj 367 85 inlet;
#X obj 111 54 inlet;
#X obj 111 466 outlet;
#X text 174 54 scale [from_low \, from_hi] to [to_low \, to_hi];
#X obj 416 126 t b b b b;
#X obj 416 84 loadbang;
#X obj 111 433 +;
#X text 229 297 inh-inl;
#X text 354 286 outh-outl;
#X obj 111 396 *;
#X text 143 338 - inl;
#X text 143 434 + outl;
#X obj 247 237 t b a;
#X obj 367 225 t b a;
#X msg 425 105 bang;
#X obj 111 364 / 1;
#X obj 111 340 -;
#X obj 317 287 -;
#X obj 317 266 swap;
#X obj 197 271 swap;
#X obj 197 296 -;
#X obj 197 135 unpack 0 0 0 0;
#X obj 197 115 route list;
#X text 542 108 ARGS;
#X text 552 154 2: input_high_border;
#X text 552 180 3: output_low_border;
#X text 552 202 4: output_high_border;
#X text 553 229 5: mapping: float is a pow-exponent \, "dB" can be used to use a dB scaling (optional \, default is linear);
#X text 552 132 1: input_low_border or list of four values;
#N canvas 172 83 586 377 LICENSE-GPL 0;
#X text 57 88 This program is free software: you can redistribute it and/or modify it under the terms of the GNU General Public License as published by the Free Software Foundation \, either version 3 of the License \, or (at your option) any later version.;
#X text 58 168 This program is distributed in the hope that it will be useful \, but WITHOUT ANY WARRANTY \; without even the implied warranty of MERCHANTABILITY or FITNESS FOR A PARTICULAR PURPOSE. See the GNU General Public License for more details.;
#X text 57 261 You should have received a copy of the GNU General Public License along with this program. If not \, see <http://www.gnu.org/licenses/>.;
#X text 61 54 Copyright (C) 2009 \, Reality Jockey Ltd.;
#X text 60 325 See the file LICENSE.txt for the full license text.;
#X restore 665 88 pd LICENSE-GPL;
#X obj 317 172 f 0;
#X obj 369 171 f 1;
#X obj 197 174 f -0.15;
#X obj 256 175 f 0.15;
#X connect 0 0 25 0;
#X connect 1 0 36 0;
#X connect 2 0 33 0;
#X connect 3 0 34 0;
#X connect 4 0 19 0;
#X connect 7 0 35 0;
#X connect 7 1 36 0;
#X connect 7 2 33 0;
#X connect 7 3 34 0;
#X connect 8 0 7 0;
#X connect 9 0 5 0;
#X connect 12 0 9 0;
#X connect 15 0 22 0;
#X connect 15 1 22 1;
#X connect 16 0 21 0;
#X connect 16 1 21 1;
#X connect 17 0 7 0;
#X connect 18 0 12 0;
#X connect 19 0 18 0;
#X connect 20 0 12 1;
#X connect 21 0 20 0;
#X connect 21 1 20 1;
#X connect 22 0 23 0;
#X connect 22 1 23 1;
#X connect 23 0 18 1;
#X connect 24 0 35 0;
#X connect 24 1 36 0;
#X connect 24 2 33 0;
#X connect 24 3 34 0;
#X connect 25 0 24 0;
#X connect 25 1 35 0;
#X connect 33 0 9 1;
#X connect 33 0 21 0;
#X connect 34 0 16 0;
#X connect 35 0 19 1;
#X connect 35 0 22 0;
#X connect 36 0 15 0;
#X restore 49 481 pd m_scale;
#N canvas 730 358 384 465 vexpr 0;
#N canvas 383 442 450 300 list-dripslow 0;
#X obj 148 186 list split 1;
#X obj 148 161 list append;
#X obj 148 237 outlet;
#X obj 148 37 inlet;
#X obj 229 237 outlet;
#X obj 222 35 inlet;
#X obj 148 72 b;
#X text 265 36 list;
#X text 103 37 bang;
#X text 273 237 EOL;
#X text 89 236 element;
#X obj 229 207 b;
#X connect 0 0 2 0;
#X connect 0 1 1 1;
#X connect 0 2 11 0;
#X connect 1 0 0 0;
#X connect 3 0 6 0;
#X connect 5 0 1 1;
#X connect 6 0 1 0;
#X connect 11 0 4 0;
#X restore 182 226 pd list-dripslow;
#N canvas 121 146 493 544 vuzi 0;
#X obj 25 14 inlet;
#X obj 25 194 sel 0;
#X obj 52 214 until;
#X obj 95 14 inlet;
#X obj 52 254 f;
#X obj 92 364 sel;
#X obj 183 364 outlet;
#X text 182 383 counter (starting at offset);
#X obj 92 384 outlet;
#X text 91 401 done;
#X obj 71 444 outlet;
#X text 70 461 bang;
#X obj 118 54 route offset;
#X obj 67 144 f \$2;
#X text 187 169 \$1 = n of bangs;
#X text 187 189 \$2 = offset;
#X obj 92 324 + 1;
#X obj 67 164 t f f;
#X obj 94 214 +;
#X text 187 139 except that the default offset is 0;
#X obj 52 274 t f b f;
#X obj 92 344 t f f;
#X obj 25 124 t f f b;
#X obj 45 64 t b f;
#X obj 25 34 route bang float;
#X text 187 119 vanilla version of [cyclone/uzi];
#X obj 25 104 f 7;
#X connect 0 0 24 0;
#X connect 1 1 2 0;
#X connect 2 0 4 0;
#X connect 3 0 26 1;
#X connect 4 0 20 0;
#X connect 5 0 8 0;
#X connect 12 0 13 1;
#X connect 13 0 17 0;
#X connect 16 0 21 0;
#X connect 17 0 4 1;
#X connect 17 1 18 1;
#X connect 18 0 5 1;
#X connect 20 0 16 0;
#X connect 20 1 10 0;
#X connect 20 2 6 0;
#X connect 21 0 5 0;
#X connect 21 1 4 1;
#X connect 22 0 1 0;
#X connect 22 1 18 0;
#X connect 22 2 13 0;
#X connect 23 0 26 0;
#X connect 23 1 26 1;
#X connect 24 0 26 0;
#X connect 24 1 23 0;
#X connect 24 2 12 0;
#X connect 26 0 22 0;
#X restore 57 147 pd vuzi;
#N canvas 383 442 450 300 list-dripslow 0;
#X obj 148 186 list split 1;
#X obj 148 161 list append;
#X obj 148 237 outlet;
#X obj 148 37 inlet;
#X obj 229 237 outlet;
#X obj 222 35 inlet;
#X obj 148 72 b;
#X text 265 36 list;
#X text 103 37 bang;
#X text 273 237 EOL;
#X text 89 236 element;
#X obj 229 207 b;
#X connect 0 0 2 0;
#X connect 0 1 1 1;
#X connect 0 2 11 0;
#X connect 1 0 0 0;
#X connect 3 0 6 0;
#X connect 5 0 1 1;
#X connect 6 0 1 0;
#X connect 11 0 4 0;
#X restore 57 226 pd list-dripslow;
#X obj 57 257 *, f 18;
#X obj 80 334 list store;
#X msg 57 290 append \$1;
#X obj 291 37 inlet;
#X obj 57 36 inlet;
#X obj 57 74 t b l l b, f 31;
#X obj 80 371 outlet;
#X obj 57 191 t b b;
#X obj 199 111 list length;
#X connect 0 0 3 1;
#X connect 1 0 10 0;
#X connect 1 1 4 0;
#X connect 2 0 3 0;
#X connect 3 0 5 0;
#X connect 4 0 9 0;
#X connect 5 0 4 0;
#X connect 6 0 0 1;
#X connect 7 0 8 0;
#X connect 8 0 1 0;
#X connect 8 1 2 1;
#X connect 8 2 11 0;
#X connect 8 3 4 1;
#X connect 10 0 2 0;
#X connect 10 1 0 0;
#X connect 11 0 1 1;
#X restore 49 258 pd vexpr *;
#N canvas 730 358 384 465 vexpr 0;
#N canvas 383 442 450 300 list-dripslow 0;
#X obj 148 186 list split 1;
#X obj 148 161 list append;
#X obj 148 237 outlet;
#X obj 148 37 inlet;
#X obj 229 237 outlet;
#X obj 222 35 inlet;
#X obj 148 72 b;
#X text 265 36 list;
#X text 103 37 bang;
#X text 273 237 EOL;
#X text 89 236 element;
#X obj 229 207 b;
#X connect 0 0 2 0;
#X connect 0 1 1 1;
#X connect 0 2 11 0;
#X connect 1 0 0 0;
#X connect 3 0 6 0;
#X connect 5 0 1 1;
#X connect 6 0 1 0;
#X connect 11 0 4 0;
#X restore 182 226 pd list-dripslow;
#N canvas 121 146 493 544 vuzi 0;
#X obj 25 14 inlet;
#X obj 25 194 sel 0;
#X obj 52 214 until;
#X obj 95 14 inlet;
#X obj 52 254 f;
#X obj 92 364 sel;
#X obj 183 364 outlet;
#X text 182 383 counter (starting at offset);
#X obj 92 384 outlet;
#X text 91 401 done;
#X obj 71 444 outlet;
#X text 70 461 bang;
#X obj 118 54 route offset;
#X obj 67 144 f \$2;
#X text 187 169 \$1 = n of bangs;
#X text 187 189 \$2 = offset;
#X obj 92 324 + 1;
#X obj 67 164 t f f;
#X obj 94 214 +;
#X text 187 139 except that the default offset is 0;
#X obj 52 274 t f b f;
#X obj 92 344 t f f;
#X obj 25 124 t f f b;
#X obj 45 64 t b f;
#X obj 25 34 route bang float;
#X text 187 119 vanilla version of [cyclone/uzi];
#X obj 25 104 f 7;
#X connect 0 0 24 0;
#X connect 1 1 2 0;
#X connect 2 0 4 0;
#X connect 3 0 26 1;
#X connect 4 0 20 0;
#X connect 5 0 8 0;
#X connect 12 0 13 1;
#X connect 13 0 17 0;
#X connect 16 0 21 0;
#X connect 17 0 4 1;
#X connect 17 1 18 1;
#X connect 18 0 5 1;
#X connect 20 0 16 0;
#X connect 20 1 10 0;
#X connect 20 2 6 0;
#X connect 21 0 5 0;
#X connect 21 1 4 1;
#X connect 22 0 1 0;
#X connect 22 1 18 0;
#X connect 22 2 13 0;
#X connect 23 0 26 0;
#X connect 23 1 26 1;
#X connect 24 0 26 0;
#X connect 24 1 23 0;
#X connect 24 2 12 0;
#X connect 26 0 22 0;
#X restore 57 147 pd vuzi;
#N canvas 383 442 450 300 list-dripslow 0;
#X obj 148 186 list split 1;
#X obj 148 161 list append;
#X obj 148 237 outlet;
#X obj 148 37 inlet;
#X obj 229 237 outlet;
#X obj 222 35 inlet;
#X obj 148 72 b;
#X text 265 36 list;
#X text 103 37 bang;
#X text 273 237 EOL;
#X text 89 236 element;
#X obj 229 207 b;
#X connect 0 0 2 0;
#X connect 0 1 1 1;
#X connect 0 2 11 0;
#X connect 1 0 0 0;
#X connect 3 0 6 0;
#X connect 5 0 1 1;
#X connect 6 0 1 0;
#X connect 11 0 4 0;
#X restore 57 226 pd list-dripslow;
#X obj 57 257 *, f 18;
#X obj 80 334 list store;
#X msg 57 290 append \$1;
#X obj 291 37 inlet;
#X obj 57 36 inlet;
#X obj 57 74 t b l l b, f 31;
#X obj 80 371 outlet;
#X obj 57 191 t b b;
#X obj 199 111 list length;
#X connect 0 0 3 1;
#X connect 1 0 10 0;
#X connect 1 1 4 0;
#X connect 2 0 3 0;
#X connect 3 0 5 0;
#X connect 4 0 9 0;
#X connect 5 0 4 0;
#X connect 6 0 0 1;
#X connect 7 0 8 0;
#X connect 8 0 1 0;
#X connect 8 1 2 1;
#X connect 8 2 11 0;
#X connect 8 3 4 1;
#X connect 10 0 2 0;
#X connect 10 1 0 0;
#X connect 11 0 1 1;
#X restore 396 259 pd vexpr *;
#X connect 0 0 15 0;
#X connect 1 0 12 0;
#X connect 3 0 2 0;
#X connect 4 0 22 0;
#X connect 5 0 4 0;
#X connect 6 0 5 0;
#X connect 7 0 5 1;
#X connect 8 0 4 1;
#X connect 9 0 8 1;
#X connect 10 0 6 1;
#X connect 11 0 23 1;
#X connect 11 1 10 0;
#X connect 11 2 18 0;
#X connect 11 3 14 0;
#X connect 12 0 23 0;
#X connect 12 1 17 0;
#X connect 12 2 24 0;
#X connect 12 3 24 1;
#X connect 12 4 20 0;
#X connect 12 5 21 0;
#X connect 13 0 8 0;
#X connect 14 0 13 1;
#X connect 15 0 1 0;
#X connect 15 1 11 0;
#X connect 16 0 6 0;
#X connect 17 0 7 0;
#X connect 18 0 7 1;
#X connect 19 0 13 0;
#X connect 20 0 9 0;
#X connect 21 0 9 1;
#X connect 22 0 3 0;
#X connect 23 0 16 0;
#X connect 24 0 19 0;
#X restore 705 307 pd linearRegression;
#N canvas 782 80 351 277 standardDeviation 0;
#X obj 36 28 inlet;
#X obj 36 162 expr pow(($f1 - 1) \, 3) + 1;
#X obj 36 130 clip 0 1;
#X obj 36 195 outlet;
#N canvas 407 315 358 455 list-stddev 0;
#X obj 39 25 inlet;
#X obj 39 375 sqrt;
#X obj 39 396 outlet;
#X obj 232 156 list length;
#X obj 39 354 /;
#X obj 57 181 -;
#X obj 57 226 t f f;
#X obj 57 248 *;
#X obj 57 275 +;
#X obj 88 276 f;
#X msg 113 252 0;
#X obj 39 314 f;
#X obj 39 53 t b a a a b;
#N canvas 320 373 684 509 list-drip 0;
#X obj 63 84 t a a;
#X obj 63 241 spigot;
#X obj 102 149 bang;
#X obj 102 168 1;
#X obj 223 149 route bang;
#X obj 183 150 bang;
#X obj 183 169 0;
#X obj 102 114 list split 2;
#X obj 232 379 list split;
#X obj 299 328 list length;
#X obj 299 350 >> 1;
#X obj 63 260 t a a a a;
#X obj 63 446 list split;
#X obj 130 398 list length;
#X obj 130 423 >> 1;
#X obj 31 19 inlet;
#X obj 290 175 outlet;
#X text 73 19 Copyright 2009 by Mathieu Bouchard;
#X obj 31 53 t b a;
#X obj 465 119 outlet;
#X text 520 121 signal end of list;
#X text 381 23 made compatible with [list-drip]: fbar 2009;
#X connect 0 0 1 0;
#X connect 0 1 7 0;
#X connect 1 0 11 0;
#X connect 2 0 3 0;
#X connect 3 0 1 1;
#X connect 4 1 16 0;
#X connect 5 0 6 0;
#X connect 6 0 1 1;
#X connect 7 0 2 0;
#X connect 7 2 4 0;
#X connect 7 2 5 0;
#X connect 8 0 0 0;
#X connect 9 0 10 0;
#X connect 10 0 8 1;
#X connect 11 0 12 0;
#X connect 11 1 13 0;
#X connect 11 2 8 0;
#X connect 11 3 9 0;
#X connect 12 1 0 0;
#X connect 13 0 14 0;
#X connect 14 0 12 1;
#X connect 15 0 18 0;
#X connect 18 0 19 0;
#X connect 18 1 0 0;
#X restore 59 131 pd list-drip;
#N canvas 362 419 397 364 list-mean 0;
#X obj 44 20 inlet;
#X obj 44 288 outlet;
#X obj 63 115 route float;
#X obj 44 225 f;
#X obj 44 259 /;
#X obj 63 140 t a b;
#N canvas 370 313 450 300 accum 0;
#X obj 182 102 0;
#X obj 135 79 inlet;
#X obj 182 79 inlet;
#X obj 135 169 outlet;
#X obj 135 137 +;
#X obj 168 138 f;
#X connect 0 0 4 1;
#X connect 1 0 4 0;
#X connect 2 0 0 0;
#X connect 4 0 3 0;
#X connect 4 0 5 0;
#X connect 5 0 4 1;
#X restore 63 175 pd accum;
#N canvas 425 298 450 300 count 0;
#X obj 133 59 b;
#X obj 133 35 inlet;
#X obj 183 35 inlet;
#X obj 164 111 + 1;
#X obj 133 133 outlet;
#X msg 183 71 1;
#X obj 133 110 f 1;
#X connect 0 0 6 0;
#X connect 1 0 0 0;
#X connect 2 0 5 0;
#X connect 3 0 6 1;
#X connect 5 0 6 1;
#X connect 6 0 3 0;
#X connect 6 0 4 0;
#X restore 146 178 pd count;
#X obj 44 56 t b a b b;
#N canvas 320 373 684 509 list-drip 0;
#X obj 63 84 t a a;
#X obj 63 241 spigot;
#X obj 102 149 bang;
#X obj 102 168 1;
#X obj 223 149 route bang;
#X obj 183 150 bang;
#X obj 183 169 0;
#X obj 102 114 list split 2;
#X obj 232 379 list split;
#X obj 299 328 list length;
#X obj 299 350 >> 1;
#X obj 63 260 t a a a a;
#X obj 63 446 list split;
#X obj 130 398 list length;
#X obj 130 423 >> 1;
#X obj 31 19 inlet;
#X obj 290 175 outlet;
#X text 73 19 Copyright 2009 by Mathieu Bouchard;
#X obj 31 53 t b a;
#X obj 465 119 outlet;
#X text 520 121 signal end of list;
#X text 381 23 made compatible with [list-drip]: fbar 2009;
#X connect 0 0 1 0;
#X connect 0 1 7 0;
#X connect 1 0 11 0;
#X connect 2 0 3 0;
#X connect 3 0 1 1;
#X connect 4 1 16 0;
#X connect 5 0 6 0;
#X connect 6 0 1 1;
#X connect 7 0 2 0;
#X connect 7 2 4 0;
#X connect 7 2 5 0;
#X connect 8 0 0 0;
#X connect 9 0 10 0;
#X connect 10 0 8 1;
#X connect 11 0 12 0;
#X connect 11 1 13 0;
#X connect 11 2 8 0;
#X connect 11 3 9 0;
#X connect 12 1 0 0;
#X connect 13 0 14 0;
#X connect 14 0 12 1;
#X connect 15 0 18 0;
#X connect 18 0 19 0;
#X connect 18 1 0 0;
#X restore 63 88 pd list-drip;
#X connect 0 0 8 0;
#X connect 2 0 5 0;
#X connect 3 0 4 0;
#X connect 4 0 1 0;
#X connect 5 0 6 0;
#X connect 5 1 7 0;
#X connect 6 0 3 1;
#X connect 7 0 4 1;
#X connect 8 0 3 0;
#X connect 8 1 9 0;
#X connect 8 2 6 1;
#X connect 8 3 7 1;
#X connect 9 0 2 0;
#X restore 145 133 pd list-mean;
#X connect 0 0 12 0;
#X connect 1 0 2 0;
#X connect 3 0 4 1;
#X connect 4 0 1 0;
#X connect 5 0 6 0;
#X connect 6 0 7 0;
#X connect 6 1 7 1;
#X connect 7 0 8 0;
#X connect 8 0 9 0;
#X connect 8 0 11 1;
#X connect 9 0 8 1;
#X connect 10 0 8 1;
#X connect 11 0 4 0;
#X connect 12 0 11 0;
#X connect 12 1 13 0;
#X connect 12 2 14 0;
#X connect 12 3 3 0;
#X connect 12 4 10 0;
#X connect 13 0 5 0;
#X connect 14 0 5 1;
#X restore 36 58 pd list-stddev;
#N canvas 846 255 1114 575 m_scale 0;
#X obj 197 85 inlet;
#X obj 247 85 inlet;
#X obj 317 85 inlet;
#X obj 367 85 inlet;
#X obj 111 54 inlet;
#X obj 111 466 outlet;
#X text 174 54 scale [from_low \, from_hi] to [to_low \, to_hi];
#X obj 416 126 t b b b b;
#X obj 416 84 loadbang;
#X obj 111 433 +;
#X text 229 297 inh-inl;
#X text 354 286 outh-outl;
#X obj 111 396 *;
#X text 143 338 - inl;
#X text 143 434 + outl;
#X obj 247 237 t b a;
#X obj 367 225 t b a;
#X msg 425 105 bang;
#X obj 111 364 / 1;
#X obj 111 340 -;
#X obj 317 287 -;
#X obj 317 266 swap;
#X obj 197 271 swap;
#X obj 197 296 -;
#X obj 197 135 unpack 0 0 0 0;
#X obj 197 115 route list;
#X text 542 108 ARGS;
#X text 552 154 2: input_high_border;
#X text 552 180 3: output_low_border;
#X text 552 202 4: output_high_border;
#X text 553 229 5: mapping: float is a pow-exponent \, "dB" can be used to use a dB scaling (optional \, default is linear);
#X text 552 132 1: input_low_border or list of four values;
#N canvas 172 83 586 377 LICENSE-GPL 0;
#X text 57 88 This program is free software: you can redistribute it and/or modify it under the terms of the GNU General Public License as published by the Free Software Foundation \, either version 3 of the License \, or (at your option) any later version.;
#X text 58 168 This program is distributed in the hope that it will be useful \, but WITHOUT ANY WARRANTY \; without even the implied warranty of MERCHANTABILITY or FITNESS FOR A PARTICULAR PURPOSE. See the GNU General Public License for more details.;
#X text 57 261 You should have received a copy of the GNU General Public License along with this program. If not \, see <http://www.gnu.org/licenses/>.;
#X text 61 54 Copyright (C) 2009 \, Reality Jockey Ltd.;
#X text 60 325 See the file LICENSE.txt for the full license text.;
#X restore 665 88 pd LICENSE-GPL;
#X obj 197 174 f 0;
#X obj 248 172 f 0.5;
#X obj 317 172 f 0;
#X obj 369 171 f 1;
#X connect 0 0 25 0;
#X connect 1 0 34 0;
#X connect 2 0 35 0;
#X connect 3 0 36 0;
#X connect 4 0 19 0;
#X connect 7 0 33 0;
#X connect 7 1 34 0;
#X connect 7 2 35 0;
#X connect 7 3 36 0;
#X connect 8 0 7 0;
#X connect 9 0 5 0;
#X connect 12 0 9 0;
#X connect 15 0 22 0;
#X connect 15 1 22 1;
#X connect 16 0 21 0;
#X connect 16 1 21 1;
#X connect 17 0 7 0;
#X connect 18 0 12 0;
#X connect 19 0 18 0;
#X connect 20 0 12 1;
#X connect 21 0 20 0;
#X connect 21 1 20 1;
#X connect 22 0 23 0;
#X connect 22 1 23 1;
#X connect 23 0 18 1;
#X connect 24 0 33 0;
#X connect 24 1 34 0;
#X connect 24 2 35 0;
#X connect 24 3 36 0;
#X connect 25 0 24 0;
#X connect 25 1 33 0;
#X connect 33 0 19 1;
#X connect 33 0 22 0;
#X connect 34 0 15 0;
#X connect 35 0 9 1;
#X connect 35 0 21 0;
#X connect 36 0 16 0;
#X restore 36 93 pd m_scale;
#X connect 0 0 4 0;
#X connect 1 0 3 0;
#X connect 2 0 1 0;
#X connect 4 0 5 0;
#X connect 5 0 2 0;
#X restore 345 306 pd standardDeviation;
#N canvas 810 194 338 277 standardDeviation 0;
#X obj 36 28 inlet;
#X obj 36 162 expr pow(($f1 - 1) \, 3) + 1;
#X obj 36 130 clip 0 1;
#X obj 36 195 outlet;
#N canvas 407 315 358 455 list-stddev 0;
#X obj 39 25 inlet;
#X obj 39 375 sqrt;
#X obj 39 396 outlet;
#X obj 232 156 list length;
#X obj 39 354 /;
#X obj 57 181 -;
#X obj 57 226 t f f;
#X obj 57 248 *;
#X obj 57 275 +;
#X obj 88 276 f;
#X msg 113 252 0;
#X obj 39 314 f;
#X obj 39 53 t b a a a b;
#N canvas 320 373 684 509 list-drip 0;
#X obj 63 84 t a a;
#X obj 63 241 spigot;
#X obj 102 149 bang;
#X obj 102 168 1;
#X obj 223 149 route bang;
#X obj 183 150 bang;
#X obj 183 169 0;
#X obj 102 114 list split 2;
#X obj 232 379 list split;
#X obj 299 328 list length;
#X obj 299 350 >> 1;
#X obj 63 260 t a a a a;
#X obj 63 446 list split;
#X obj 130 398 list length;
#X obj 130 423 >> 1;
#X obj 31 19 inlet;
#X obj 290 175 outlet;
#X text 73 19 Copyright 2009 by Mathieu Bouchard;
#X obj 31 53 t b a;
#X obj 465 119 outlet;
#X text 520 121 signal end of list;
#X text 381 23 made compatible with [list-drip]: fbar 2009;
#X connect 0 0 1 0;
#X connect 0 1 7 0;
#X connect 1 0 11 0;
#X connect 2 0 3 0;
#X connect 3 0 1 1;
#X connect 4 1 16 0;
#X connect 5 0 6 0;
#X connect 6 0 1 1;
#X connect 7 0 2 0;
#X connect 7 2 4 0;
#X connect 7 2 5 0;
#X connect 8 0 0 0;
#X connect 9 0 10 0;
#X connect 10 0 8 1;
#X connect 11 0 12 0;
#X connect 11 1 13 0;
#X connect 11 2 8 0;
#X connect 11 3 9 0;
#X connect 12 1 0 0;
#X connect 13 0 14 0;
#X connect 14 0 12 1;
#X connect 15 0 18 0;
#X connect 18 0 19 0;
#X connect 18 1 0 0;
#X restore 59 131 pd list-drip;
#N canvas 362 419 397 364 list-mean 0;
#X obj 44 20 inlet;
#X obj 44 288 outlet;
#X obj 63 115 route float;
#X obj 44 225 f;
#X obj 44 259 /;
#X obj 63 140 t a b;
#N canvas 370 313 450 300 accum 0;
#X obj 182 102 0;
#X obj 135 79 inlet;
#X obj 182 79 inlet;
#X obj 135 169 outlet;
#X obj 135 137 +;
#X obj 168 138 f;
#X connect 0 0 4 1;
#X connect 1 0 4 0;
#X connect 2 0 0 0;
#X connect 4 0 3 0;
#X connect 4 0 5 0;
#X connect 5 0 4 1;
#X restore 63 175 pd accum;
#N canvas 425 298 450 300 count 0;
#X obj 133 59 b;
#X obj 133 35 inlet;
#X obj 183 35 inlet;
#X obj 164 111 + 1;
#X obj 133 133 outlet;
#X msg 183 71 1;
#X obj 133 110 f 1;
#X connect 0 0 6 0;
#X connect 1 0 0 0;
#X connect 2 0 5 0;
#X connect 3 0 6 1;
#X connect 5 0 6 1;
#X connect 6 0 3 0;
#X connect 6 0 4 0;
#X restore 146 178 pd count;
#X obj 44 56 t b a b b;
#N canvas 320 373 684 509 list-drip 0;
#X obj 63 84 t a a;
#X obj 63 241 spigot;
#X obj 102 149 bang;
#X obj 102 168 1;
#X obj 223 149 route bang;
#X obj 183 150 bang;
#X obj 183 169 0;
#X obj 102 114 list split 2;
#X obj 232 379 list split;
#X obj 299 328 list length;
#X obj 299 350 >> 1;
#X obj 63 260 t a a a a;
#X obj 63 446 list split;
#X obj 130 398 list length;
#X obj 130 423 >> 1;
#X obj 31 19 inlet;
#X obj 290 175 outlet;
#X text 73 19 Copyright 2009 by Mathieu Bouchard;
#X obj 31 53 t b a;
#X obj 465 119 outlet;
#X text 520 121 signal end of list;
#X text 381 23 made compatible with [list-drip]: fbar 2009;
#X connect 0 0 1 0;
#X connect 0 1 7 0;
#X connect 1 0 11 0;
#X connect 2 0 3 0;
#X connect 3 0 1 1;
#X connect 4 1 16 0;
#X connect 5 0 6 0;
#X connect 6 0 1 1;
#X connect 7 0 2 0;
#X connect 7 2 4 0;
#X connect 7 2 5 0;
#X connect 8 0 0 0;
#X connect 9 0 10 0;
#X connect 10 0 8 1;
#X connect 11 0 12 0;
#X connect 11 1 13 0;
#X connect 11 2 8 0;
#X connect 11 3 9 0;
#X connect 12 1 0 0;
#X connect 13 0 14 0;
#X connect 14 0 12 1;
#X connect 15 0 18 0;
#X connect 18 0 19 0;
#X connect 18 1 0 0;
#X restore 63 88 pd list-drip;
#X connect 0 0 8 0;
#X connect 2 0 5 0;
#X connect 3 0 4 0;
#X connect 4 0 1 0;
#X connect 5 0 6 0;
#X connect 5 1 7 0;
#X connect 6 0 3 1;
#X connect 7 0 4 1;
#X connect 8 0 3 0;
#X connect 8 1 9 0;
#X connect 8 2 6 1;
#X connect 8 3 7 1;
#X connect 9 0 2 0;
#X restore 145 133 pd list-mean;
#X connect 0 0 12 0;
#X connect 1 0 2 0;
#X connect 3 0 4 1;
#X connect 4 0 1 0;
#X connect 5 0 6 0;
#X connect 6 0 7 0;
#X connect 6 1 7 1;
#X connect 7 0 8 0;
#X connect 8 0 9 0;
#X connect 8 0 11 1;
#X connect 9 0 8 1;
#X connect 10 0 8 1;
#X connect 11 0 4 0;
#X connect 12 0 11 0;
#X connect 12 1 13 0;
#X connect 12 2 14 0;
#X connect 12 3 3 0;
#X connect 12 4 10 0;
#X connect 13 0 5 0;
#X connect 14 0 5 1;
#X restore 36 58 pd list-stddev;
#N canvas 1039 488 1114 575 m_scale 0;
#X obj 197 85 inlet;
#X obj 247 85 inlet;
#X obj 317 85 inlet;
#X obj 367 85 inlet;
#X obj 111 54 inlet;
#X obj 111 466 outlet;
#X text 174 54 scale [from_low \, from_hi] to [to_low \, to_hi];
#X obj 416 126 t b b b b;
#X obj 416 84 loadbang;
#X obj 111 433 +;
#X text 229 297 inh-inl;
#X text 354 286 outh-outl;
#X obj 111 396 *;
#X text 143 338 - inl;
#X text 143 434 + outl;
#X obj 247 237 t b a;
#X obj 367 225 t b a;
#X msg 425 105 bang;
#X obj 111 364 / 1;
#X obj 111 340 -;
#X obj 317 287 -;
#X obj 317 266 swap;
#X obj 197 271 swap;
#X obj 197 296 -;
#X obj 197 135 unpack 0 0 0 0;
#X obj 197 115 route list;
#X text 542 108 ARGS;
#X text 552 154 2: input_high_border;
#X text 552 180 3: output_low_border;
#X text 552 202 4: output_high_border;
#X text 553 229 5: mapping: float is a pow-exponent \, "dB" can be used to use a dB scaling (optional \, default is linear);
#X text 552 132 1: input_low_border or list of four values;
#N canvas 172 83 586 377 LICENSE-GPL 0;
#X text 57 88 This program is free software: you can redistribute it and/or modify it under the terms of the GNU General Public License as published by the Free Software Foundation \, either version 3 of the License \, or (at your option) any later version.;
#X text 58 168 This program is distributed in the hope that it will be useful \, but WITHOUT ANY WARRANTY \; without even the implied warranty of MERCHANTABILITY or FITNESS FOR A PARTICULAR PURPOSE. See the GNU General Public License for more details.;
#X text 57 261 You should have received a copy of the GNU General Public License along with this program. If not \, see <http://www.gnu.org/licenses/>.;
#X text 61 54 Copyright (C) 2009 \, Reality Jockey Ltd.;
#X text 60 325 See the file LICENSE.txt for the full license text.;
#X restore 665 88 pd LICENSE-GPL;
#X obj 197 174 f 0;
#X obj 248 172 f 0.5;
#X obj 317 172 f 0;
#X obj 369 171 f 1;
#X connect 0 0 25 0;
#X connect 1 0 34 0;
#X connect 2 0 35 0;
#X connect 3 0 36 0;
#X connect 4 0 19 0;
#X connect 7 0 33 0;
#X connect 7 1 34 0;
#X connect 7 2 35 0;
#X connect 7 3 36 0;
#X connect 8 0 7 0;
#X connect 9 0 5 0;
#X connect 12 0 9 0;
#X connect 15 0 22 0;
#X connect 15 1 22 1;
#X connect 16 0 21 0;
#X connect 16 1 21 1;
#X connect 17 0 7 0;
#X connect 18 0 12 0;
#X connect 19 0 18 0;
#X connect 20 0 12 1;
#X connect 21 0 20 0;
#X connect 21 1 20 1;
#X connect 22 0 23 0;
#X connect 22 1 23 1;
#X connect 23 0 18 1;
#X connect 24 0 33 0;
#X connect 24 1 34 0;
#X connect 24 2 35 0;
#X connect 24 3 36 0;
#X connect 25 0 24 0;
#X connect 25 1 33 0;
#X connect 33 0 19 1;
#X connect 33 0 22 0;
#X connect 34 0 15 0;
#X connect 35 0 9 1;
#X connect 35 0 21 0;
#X connect 36 0 16 0;
#X restore 36 92 pd m_scale;
#X connect 0 0 4 0;
#X connect 1 0 3 0;
#X connect 2 0 1 0;
#X connect 4 0 5 0;
#X connect 5 0 2 0;
#X restore 848 307 pd standardDeviation;
#N canvas 131 166 400 456 calibrateScale 0;
#X obj 231 153 >;
#X obj 192 185 spigot;
#X obj 192 117 t f f, f 6;
#X msg 302 118 -999;
#X obj 113 185 spigot;
#X obj 113 117 t f f, f 6;
#X obj 152 153 <;
#X msg 264 118 999;
#X obj 34 34 inlet;
#X obj 34 76 t f f f, f 23;
#X obj 192 225 t f f;
#X obj 224 258 * 0.05;
#X obj 192 291 -, f 5;
#X obj 113 223 t f f;
#X obj 145 256 * 0.05;
#X obj 113 289 -, f 5;
#X obj 34 364 clip 0 1;
#X obj 34 405 outlet;
#X obj 264 34 inlet;
#N canvas 661 670 1114 575 m_scale 0;
#X obj 197 85 inlet;
#X obj 247 85 inlet;
#X obj 317 85 inlet;
#X obj 367 85 inlet;
#X obj 111 54 inlet;
#X obj 111 466 outlet;
#X text 174 54 scale [from_low \, from_hi] to [to_low \, to_hi];
#X obj 416 126 t b b b b;
#X obj 416 84 loadbang;
#X obj 111 433 +;
#X text 229 297 inh-inl;
#X text 354 286 outh-outl;
#X obj 111 396 *;
#X text 143 338 - inl;
#X text 143 434 + outl;
#X obj 247 237 t b a;
#X obj 367 225 t b a;
#X msg 425 105 bang;
#X obj 111 364 / 1;
#X obj 111 340 -;
#X obj 317 287 -;
#X obj 317 266 swap;
#X obj 197 271 swap;
#X obj 197 296 -;
#X obj 197 135 unpack 0 0 0 0;
#X obj 197 115 route list;
#X text 542 108 ARGS;
#X text 552 154 2: input_high_border;
#X text 552 180 3: output_low_border;
#X text 552 202 4: output_high_border;
#X text 553 229 5: mapping: float is a pow-exponent \, "dB" can be used to use a dB scaling (optional \, default is linear);
#X text 552 132 1: input_low_border or list of four values;
#N canvas 172 83 586 377 LICENSE-GPL 0;
#X text 57 88 This program is free software: you can redistribute it and/or modify it under the terms of the GNU General Public License as published by the Free Software Foundation \, either version 3 of the License \, or (at your option) any later version.;
#X text 58 168 This program is distributed in the hope that it will be useful \, but WITHOUT ANY WARRANTY \; without even the implied warranty of MERCHANTABILITY or FITNESS FOR A PARTICULAR PURPOSE. See the GNU General Public License for more details.;
#X text 57 261 You should have received a copy of the GNU General Public License along with this program. If not \, see <http://www.gnu.org/licenses/>.;
#X text 61 54 Copyright (C) 2009 \, Reality Jockey Ltd.;
#X text 60 325 See the file LICENSE.txt for the full license text.;
#X restore 665 88 pd LICENSE-GPL;
#X obj 197 174 f -100;
#X obj 247 172 f -50;
#X obj 318 172 f 0;
#X obj 369 171 f 1;
#X connect 0 0 25 0;
#X connect 1 0 34 0;
#X connect 2 0 35 0;
#X connect 3 0 36 0;
#X connect 4 0 19 0;
#X connect 7 0 33 0;
#X connect 7 1 34 0;
#X connect 7 2 35 0;
#X connect 7 3 36 0;
#X connect 8 0 7 0;
#X connect 9 0 5 0;
#X connect 12 0 9 0;
#X connect 15 0 22 0;
#X connect 15 1 22 1;
#X connect 16 0 21 0;
#X connect 16 1 21 1;
#X connect 17 0 7 0;
#X connect 18 0 12 0;
#X connect 19 0 18 0;
#X connect 20 0 12 1;
#X connect 21 0 20 0;
#X connect 21 1 20 1;
#X connect 22 0 23 0;
#X connect 22 1 23 1;
#X connect 23 0 18 1;
#X connect 24 0 33 0;
#X connect 24 1 34 0;
#X connect 24 2 35 0;
#X connect 24 3 36 0;
#X connect 25 0 24 0;
#X connect 25 1 33 0;
#X connect 33 0 19 1;
#X connect 33 0 22 0;
#X connect 34 0 15 0;
#X connect 35 0 9 1;
#X connect 35 0 21 0;
#X connect 36 0 16 0;
#X restore 34 330 pd m_scale;
#X f 29;
#X connect 0 0 1 1;
#X connect 1 0 0 1;
#X connect 1 0 10 0;
#X connect 2 0 1 0;
#X connect 2 1 0 0;
#X connect 3 0 0 1;
#X connect 4 0 6 1;
#X connect 4 0 13 0;
#X connect 5 0 4 0;
#X connect 5 1 6 0;
#X connect 6 0 4 1;
#X connect 7 0 6 1;
#X connect 8 0 9 0;
#X connect 9 0 19 0;
#X connect 9 1 5 0;
#X connect 9 2 2 0;
#X connect 10 0 12 0;
#X connect 10 1 11 0;
#X connect 11 0 12 1;
#X connect 12 0 19 2;
#X connect 13 0 15 0;
#X connect 13 1 14 0;
#X connect 14 0 15 1;
#X connect 15 0 19 1;
#X connect 16 0 17 0;
#X connect 18 0 7 0;
#X connect 18 0 3 0;
#X connect 19 0 16 0;
#X restore 228 164 pd calibrateScale;
#N canvas 232 209 825 608 linearRegression 0;
#X obj 49 40 inlet;
#X msg 49 110 1 2 3 4 5 6 7;
#X obj 49 546 outlet;
#X obj 49 513 clip 0 1;
#X obj 49 447 /, f 50;
#X obj 49 407 -, f 24;
#X obj 49 372 *, f 12;
#X obj 214 373 *, f 12;
#X obj 396 407 -, f 24;
#X obj 561 373 *, f 12;
#X obj 130 336 list length;
#X obj 417 148 t l l l l;
#X obj 49 149 t l l l l l l, f 33;
#X obj 396 373 *, f 12;
#X obj 477 337 list length;
#X obj 49 74 t b l, f 53;
#N canvas 425 488 450 300 list-accum 0;
#X obj 212 193 f 0;
#X obj 182 192 + 1;
#X obj 212 168 0;
#X obj 182 53 inlet;
#X obj 182 81 t a b;
#X obj 182 140 route float;
#X obj 166 245 outlet;
#X obj 166 220 f;
#X text 116 23 list-accum: add all floats in a list;
#N canvas 320 373 684 509 list-drip 0;
#X obj 63 84 t a a;
#X obj 63 241 spigot;
#X obj 102 149 bang;
#X obj 102 168 1;
#X obj 223 149 route bang;
#X obj 183 150 bang;
#X obj 183 169 0;
#X obj 102 114 list split 2;
#X obj 232 379 list split;
#X obj 299 328 list length;
#X obj 299 350 >> 1;
#X obj 63 260 t a a a a;
#X obj 63 446 list split;
#X obj 130 398 list length;
#X obj 130 423 >> 1;
#X obj 31 19 inlet;
#X obj 290 175 outlet;
#X text 73 19 Copyright 2009 by Mathieu Bouchard;
#X obj 31 53 t b a;
#X obj 465 119 outlet;
#X text 520 121 signal end of list;
#X text 381 23 made compatible with [list-drip]: fbar 2009;
#X connect 0 0 1 0;
#X connect 0 1 7 0;
#X connect 1 0 11 0;
#X connect 2 0 3 0;
#X connect 3 0 1 1;
#X connect 4 1 16 0;
#X connect 5 0 6 0;
#X connect 6 0 1 1;
#X connect 7 0 2 0;
#X connect 7 2 4 0;
#X connect 7 2 5 0;
#X connect 8 0 0 0;
#X connect 9 0 10 0;
#X connect 10 0 8 1;
#X connect 11 0 12 0;
#X connect 11 1 13 0;
#X connect 11 2 8 0;
#X connect 11 3 9 0;
#X connect 12 1 0 0;
#X connect 13 0 14 0;
#X connect 14 0 12 1;
#X connect 15 0 18 0;
#X connect 18 0 19 0;
#X connect 18 1 0 0;
#X restore 182 110 pd list-drip;
#X connect 0 0 1 1;
#X connect 1 0 0 0;
#X connect 1 0 7 1;
#X connect 2 0 0 0;
#X connect 3 0 4 0;
#X connect 4 0 9 0;
#X connect 4 1 2 0;
#X connect 5 0 1 0;
#X connect 7 0 6 0;
#X connect 9 0 5 0;
#X connect 9 1 7 0;
#X restore 49 297 pd list-accum;
#N canvas 425 488 450 300 list-accum 0;
#X obj 212 193 f 0;
#X obj 182 192 + 1;
#X obj 212 168 0;
#X obj 182 53 inlet;
#X obj 182 81 t a b;
#X obj 182 140 route float;
#X obj 166 245 outlet;
#X obj 166 220 f;
#X text 116 23 list-accum: add all floats in a list;
#N canvas 320 373 684 509 list-drip 0;
#X obj 63 84 t a a;
#X obj 63 241 spigot;
#X obj 102 149 bang;
#X obj 102 168 1;
#X obj 223 149 route bang;
#X obj 183 150 bang;
#X obj 183 169 0;
#X obj 102 114 list split 2;
#X obj 232 379 list split;
#X obj 299 328 list length;
#X obj 299 350 >> 1;
#X obj 63 260 t a a a a;
#X obj 63 446 list split;
#X obj 130 398 list length;
#X obj 130 423 >> 1;
#X obj 31 19 inlet;
#X obj 290 175 outlet;
#X text 73 19 Copyright 2009 by Mathieu Bouchard;
#X obj 31 53 t b a;
#X obj 465 119 outlet;
#X text 520 121 signal end of list;
#X text 381 23 made compatible with [list-drip]: fbar 2009;
#X connect 0 0 1 0;
#X connect 0 1 7 0;
#X connect 1 0 11 0;
#X connect 2 0 3 0;
#X connect 3 0 1 1;
#X connect 4 1 16 0;
#X connect 5 0 6 0;
#X connect 6 0 1 1;
#X connect 7 0 2 0;
#X connect 7 2 4 0;
#X connect 7 2 5 0;
#X connect 8 0 0 0;
#X connect 9 0 10 0;
#X connect 10 0 8 1;
#X connect 11 0 12 0;
#X connect 11 1 13 0;
#X connect 11 2 8 0;
#X connect 11 3 9 0;
#X connect 12 1 0 0;
#X connect 13 0 14 0;
#X connect 14 0 12 1;
#X connect 15 0 18 0;
#X connect 18 0 19 0;
#X connect 18 1 0 0;
#X restore 182 110 pd list-drip;
#X connect 0 0 1 1;
#X connect 1 0 0 0;
#X connect 1 0 7 1;
#X connect 2 0 0 0;
#X connect 3 0 4 0;
#X connect 4 0 9 0;
#X connect 4 1 2 0;
#X connect 5 0 1 0;
#X connect 7 0 6 0;
#X connect 9 0 5 0;
#X connect 9 1 7 0;
#X restore 214 336 pd list-accum;
#N canvas 425 488 450 300 list-accum 0;
#X obj 212 193 f 0;
#X obj 182 192 + 1;
#X obj 212 168 0;
#X obj 182 53 inlet;
#X obj 182 81 t a b;
#X obj 182 140 route float;
#X obj 166 245 outlet;
#X obj 166 220 f;
#X text 116 23 list-accum: add all floats in a list;
#N canvas 320 373 684 509 list-drip 0;
#X obj 63 84 t a a;
#X obj 63 241 spigot;
#X obj 102 149 bang;
#X obj 102 168 1;
#X obj 223 149 route bang;
#X obj 183 150 bang;
#X obj 183 169 0;
#X obj 102 114 list split 2;
#X obj 232 379 list split;
#X obj 299 328 list length;
#X obj 299 350 >> 1;
#X obj 63 260 t a a a a;
#X obj 63 446 list split;
#X obj 130 398 list length;
#X obj 130 423 >> 1;
#X obj 31 19 inlet;
#X obj 290 175 outlet;
#X text 73 19 Copyright 2009 by Mathieu Bouchard;
#X obj 31 53 t b a;
#X obj 465 119 outlet;
#X text 520 121 signal end of list;
#X text 381 23 made compatible with [list-drip]: fbar 2009;
#X connect 0 0 1 0;
#X connect 0 1 7 0;
#X connect 1 0 11 0;
#X connect 2 0 3 0;
#X connect 3 0 1 1;
#X connect 4 1 16 0;
#X connect 5 0 6 0;
#X connect 6 0 1 1;
#X connect 7 0 2 0;
#X connect 7 2 4 0;
#X connect 7 2 5 0;
#X connect 8 0 0 0;
#X connect 9 0 10 0;
#X connect 10 0 8 1;
#X connect 11 0 12 0;
#X connect 11 1 13 0;
#X connect 11 2 8 0;
#X connect 11 3 9 0;
#X connect 12 1 0 0;
#X connect 13 0 14 0;
#X connect 14 0 12 1;
#X connect 15 0 18 0;
#X connect 18 0 19 0;
#X connect 18 1 0 0;
#X restore 182 110 pd list-drip;
#X connect 0 0 1 1;
#X connect 1 0 0 0;
#X connect 1 0 7 1;
#X connect 2 0 0 0;
#X connect 3 0 4 0;
#X connect 4 0 9 0;
#X connect 4 1 2 0;
#X connect 5 0 1 0;
#X connect 7 0 6 0;
#X connect 9 0 5 0;
#X connect 9 1 7 0;
#X restore 295 297 pd list-accum;
#N canvas 425 488 450 300 list-accum 0;
#X obj 212 193 f 0;
#X obj 182 192 + 1;
#X obj 212 168 0;
#X obj 182 53 inlet;
#X obj 182 81 t a b;
#X obj 182 140 route float;
#X obj 166 245 outlet;
#X obj 166 220 f;
#X text 116 23 list-accum: add all floats in a list;
#N canvas 320 373 684 509 list-drip 0;
#X obj 63 84 t a a;
#X obj 63 241 spigot;
#X obj 102 149 bang;
#X obj 102 168 1;
#X obj 223 149 route bang;
#X obj 183 150 bang;
#X obj 183 169 0;
#X obj 102 114 list split 2;
#X obj 232 379 list split;
#X obj 299 328 list length;
#X obj 299 350 >> 1;
#X obj 63 260 t a a a a;
#X obj 63 446 list split;
#X obj 130 398 list length;
#X obj 130 423 >> 1;
#X obj 31 19 inlet;
#X obj 290 175 outlet;
#X text 73 19 Copyright 2009 by Mathieu Bouchard;
#X obj 31 53 t b a;
#X obj 465 119 outlet;
#X text 520 121 signal end of list;
#X text 381 23 made compatible with [list-drip]: fbar 2009;
#X connect 0 0 1 0;
#X connect 0 1 7 0;
#X connect 1 0 11 0;
#X connect 2 0 3 0;
#X connect 3 0 1 1;
#X connect 4 1 16 0;
#X connect 5 0 6 0;
#X connect 6 0 1 1;
#X connect 7 0 2 0;
#X connect 7 2 4 0;
#X connect 7 2 5 0;
#X connect 8 0 0 0;
#X connect 9 0 10 0;
#X connect 10 0 8 1;
#X connect 11 0 12 0;
#X connect 11 1 13 0;
#X connect 11 2 8 0;
#X connect 11 3 9 0;
#X connect 12 1 0 0;
#X connect 13 0 14 0;
#X connect 14 0 12 1;
#X connect 15 0 18 0;
#X connect 18 0 19 0;
#X connect 18 1 0 0;
#X restore 182 110 pd list-drip;
#X connect 0 0 1 1;
#X connect 1 0 0 0;
#X connect 1 0 7 1;
#X connect 2 0 0 0;
#X connect 3 0 4 0;
#X connect 4 0 9 0;
#X connect 4 1 2 0;
#X connect 5 0 1 0;
#X connect 7 0 6 0;
#X connect 9 0 5 0;
#X connect 9 1 7 0;
#X restore 396 297 pd list-accum;
#N canvas 425 488 450 300 list-accum 0;
#X obj 212 193 f 0;
#X obj 182 192 + 1;
#X obj 212 168 0;
#X obj 182 53 inlet;
#X obj 182 81 t a b;
#X obj 182 140 route float;
#X obj 166 245 outlet;
#X obj 166 220 f;
#X text 116 23 list-accum: add all floats in a list;
#N canvas 320 373 684 509 list-drip 0;
#X obj 63 84 t a a;
#X obj 63 241 spigot;
#X obj 102 149 bang;
#X obj 102 168 1;
#X obj 223 149 route bang;
#X obj 183 150 bang;
#X obj 183 169 0;
#X obj 102 114 list split 2;
#X obj 232 379 list split;
#X obj 299 328 list length;
#X obj 299 350 >> 1;
#X obj 63 260 t a a a a;
#X obj 63 446 list split;
#X obj 130 398 list length;
#X obj 130 423 >> 1;
#X obj 31 19 inlet;
#X obj 290 175 outlet;
#X text 73 19 Copyright 2009 by Mathieu Bouchard;
#X obj 31 53 t b a;
#X obj 465 119 outlet;
#X text 520 121 signal end of list;
#X text 381 23 made compatible with [list-drip]: fbar 2009;
#X connect 0 0 1 0;
#X connect 0 1 7 0;
#X connect 1 0 11 0;
#X connect 2 0 3 0;
#X connect 3 0 1 1;
#X connect 4 1 16 0;
#X connect 5 0 6 0;
#X connect 6 0 1 1;
#X connect 7 0 2 0;
#X connect 7 2 4 0;
#X connect 7 2 5 0;
#X connect 8 0 0 0;
#X connect 9 0 10 0;
#X connect 10 0 8 1;
#X connect 11 0 12 0;
#X connect 11 1 13 0;
#X connect 11 2 8 0;
#X connect 11 3 9 0;
#X connect 12 1 0 0;
#X connect 13 0 14 0;
#X connect 14 0 12 1;
#X connect 15 0 18 0;
#X connect 18 0 19 0;
#X connect 18 1 0 0;
#X restore 182 110 pd list-drip;
#X connect 0 0 1 1;
#X connect 1 0 0 0;
#X connect 1 0 7 1;
#X connect 2 0 0 0;
#X connect 3 0 4 0;
#X connect 4 0 9 0;
#X connect 4 1 2 0;
#X connect 5 0 1 0;
#X connect 7 0 6 0;
#X connect 9 0 5 0;
#X connect 9 1 7 0;
#X restore 561 300 pd list-accum;
#N canvas 425 488 450 300 list-accum 0;
#X obj 212 193 f 0;
#X obj 182 192 + 1;
#X obj 212 168 0;
#X obj 182 53 inlet;
#X obj 182 81 t a b;
#X obj 182 140 route float;
#X obj 166 245 outlet;
#X obj 166 220 f;
#X text 116 23 list-accum: add all floats in a list;
#N canvas 320 373 684 509 list-drip 0;
#X obj 63 84 t a a;
#X obj 63 241 spigot;
#X obj 102 149 bang;
#X obj 102 168 1;
#X obj 223 149 route bang;
#X obj 183 150 bang;
#X obj 183 169 0;
#X obj 102 114 list split 2;
#X obj 232 379 list split;
#X obj 299 328 list length;
#X obj 299 350 >> 1;
#X obj 63 260 t a a a a;
#X obj 63 446 list split;
#X obj 130 398 list length;
#X obj 130 423 >> 1;
#X obj 31 19 inlet;
#X obj 290 175 outlet;
#X text 73 19 Copyright 2009 by Mathieu Bouchard;
#X obj 31 53 t b a;
#X obj 465 119 outlet;
#X text 520 121 signal end of list;
#X text 381 23 made compatible with [list-drip]: fbar 2009;
#X connect 0 0 1 0;
#X connect 0 1 7 0;
#X connect 1 0 11 0;
#X connect 2 0 3 0;
#X connect 3 0 1 1;
#X connect 4 1 16 0;
#X connect 5 0 6 0;
#X connect 6 0 1 1;
#X connect 7 0 2 0;
#X connect 7 2 4 0;
#X connect 7 2 5 0;
#X connect 8 0 0 0;
#X connect 9 0 10 0;
#X connect 10 0 8 1;
#X connect 11 0 12 0;
#X connect 11 1 13 0;
#X connect 11 2 8 0;
#X connect 11 3 9 0;
#X connect 12 1 0 0;
#X connect 13 0 14 0;
#X connect 14 0 12 1;
#X connect 15 0 18 0;
#X connect 18 0 19 0;
#X connect 18 1 0 0;
#X restore 182 110 pd list-drip;
#X connect 0 0 1 1;
#X connect 1 0 0 0;
#X connect 1 0 7 1;
#X connect 2 0 0 0;
#X connect 3 0 4 0;
#X connect 4 0 9 0;
#X connect 4 1 2 0;
#X connect 5 0 1 0;
#X connect 7 0 6 0;
#X connect 9 0 5 0;
#X connect 9 1 7 0;
#X restore 642 340 pd list-accum;
#N canvas 565 1088 1114 575 m_scale 0;
#X obj 197 85 inlet;
#X obj 247 85 inlet;
#X obj 317 85 inlet;
#X obj 367 85 inlet;
#X obj 111 54 inlet;
#X obj 111 466 outlet;
#X text 174 54 scale [from_low \, from_hi] to [to_low \, to_hi];
#X obj 416 126 t b b b b;
#X obj 416 84 loadbang;
#X obj 111 433 +;
#X text 229 297 inh-inl;
#X text 354 286 outh-outl;
#X obj 111 396 *;
#X text 143 338 - inl;
#X text 143 434 + outl;
#X obj 247 237 t b a;
#X obj 367 225 t b a;
#X msg 425 105 bang;
#X obj 111 364 / 1;
#X obj 111 340 -;
#X obj 317 287 -;
#X obj 317 266 swap;
#X obj 197 271 swap;
#X obj 197 296 -;
#X obj 197 135 unpack 0 0 0 0;
#X obj 197 115 route list;
#X text 542 108 ARGS;
#X text 552 154 2: input_high_border;
#X text 552 180 3: output_low_border;
#X text 552 202 4: output_high_border;
#X text 553 229 5: mapping: float is a pow-exponent \, "dB" can be used to use a dB scaling (optional \, default is linear);
#X text 552 132 1: input_low_border or list of four values;
#N canvas 172 83 586 377 LICENSE-GPL 0;
#X text 57 88 This program is free software: you can redistribute it and/or modify it under the terms of the GNU General Public License as published by the Free Software Foundation \, either version 3 of the License \, or (at your option) any later version.;
#X text 58 168 This program is distributed in the hope that it will be useful \, but WITHOUT ANY WARRANTY \; without even the implied warranty of MERCHANTABILITY or FITNESS FOR A PARTICULAR PURPOSE. See the GNU General Public License for more details.;
#X text 57 261 You should have received a copy of the GNU General Public License along with this program. If not \, see <http://www.gnu.org/licenses/>.;
#X text 61 54 Copyright (C) 2009 \, Reality Jockey Ltd.;
#X text 60 325 See the file LICENSE.txt for the full license text.;
#X restore 665 88 pd LICENSE-GPL;
#X obj 317 172 f 0;
#X obj 369 171 f 1;
#X obj 197 174 f -0.15;
#X obj 256 175 f 0.15;
#X connect 0 0 25 0;
#X connect 1 0 36 0;
#X connect 2 0 33 0;
#X connect 3 0 34 0;
#X connect 4 0 19 0;
#X connect 7 0 35 0;
#X connect 7 1 36 0;
#X connect 7 2 33 0;
#X connect 7 3 34 0;
#X connect 8 0 7 0;
#X connect 9 0 5 0;
#X connect 12 0 9 0;
#X connect 15 0 22 0;
#X connect 15 1 22 1;
#X connect 16 0 21 0;
#X connect 16 1 21 1;
#X connect 17 0 7 0;
#X connect 18 0 12 0;
#X connect 19 0 18 0;
#X connect 20 0 12 1;
#X connect 21 0 20 0;
#X connect 21 1 20 1;
#X connect 22 0 23 0;
#X connect 22 1 23 1;
#X connect 23 0 18 1;
#X connect 24 0 35 0;
#X connect 24 1 36 0;
#X connect 24 2 33 0;
#X connect 24 3 34 0;
#X connect 25 0 24 0;
#X connect 25 1 35 0;
#X connect 33 0 9 1;
#X connect 33 0 21 0;
#X connect 34 0 16 0;
#X connect 35 0 19 1;
#X connect 35 0 22 0;
#X connect 36 0 15 0;
#X restore 49 481 pd m_scale;
#N canvas 730 358 384 465 vexpr 0;
#N canvas 383 442 450 300 list-dripslow 0;
#X obj 148 186 list split 1;
#X obj 148 161 list append;
#X obj 148 237 outlet;
#X obj 148 37 inlet;
#X obj 229 237 outlet;
#X obj 222 35 inlet;
#X obj 148 72 b;
#X text 265 36 list;
#X text 103 37 bang;
#X text 273 237 EOL;
#X text 89 236 element;
#X obj 229 207 b;
#X connect 0 0 2 0;
#X connect 0 1 1 1;
#X connect 0 2 11 0;
#X connect 1 0 0 0;
#X connect 3 0 6 0;
#X connect 5 0 1 1;
#X connect 6 0 1 0;
#X connect 11 0 4 0;
#X restore 182 226 pd list-dripslow;
#N canvas 121 146 493 544 vuzi 0;
#X obj 25 14 inlet;
#X obj 25 194 sel 0;
#X obj 52 214 until;
#X obj 95 14 inlet;
#X obj 52 254 f;
#X obj 92 364 sel;
#X obj 183 364 outlet;
#X text 182 383 counter (starting at offset);
#X obj 92 384 outlet;
#X text 91 401 done;
#X obj 71 444 outlet;
#X text 70 461 bang;
#X obj 118 54 route offset;
#X obj 67 144 f \$2;
#X text 187 169 \$1 = n of bangs;
#X text 187 189 \$2 = offset;
#X obj 92 324 + 1;
#X obj 67 164 t f f;
#X obj 94 214 +;
#X text 187 139 except that the default offset is 0;
#X obj 52 274 t f b f;
#X obj 92 344 t f f;
#X obj 25 124 t f f b;
#X obj 45 64 t b f;
#X obj 25 34 route bang float;
#X text 187 119 vanilla version of [cyclone/uzi];
#X obj 25 104 f 7;
#X connect 0 0 24 0;
#X connect 1 1 2 0;
#X connect 2 0 4 0;
#X connect 3 0 26 1;
#X connect 4 0 20 0;
#X connect 5 0 8 0;
#X connect 12 0 13 1;
#X connect 13 0 17 0;
#X connect 16 0 21 0;
#X connect 17 0 4 1;
#X connect 17 1 18 1;
#X connect 18 0 5 1;
#X connect 20 0 16 0;
#X connect 20 1 10 0;
#X connect 20 2 6 0;
#X connect 21 0 5 0;
#X connect 21 1 4 1;
#X connect 22 0 1 0;
#X connect 22 1 18 0;
#X connect 22 2 13 0;
#X connect 23 0 26 0;
#X connect 23 1 26 1;
#X connect 24 0 26 0;
#X connect 24 1 23 0;
#X connect 24 2 12 0;
#X connect 26 0 22 0;
#X restore 57 147 pd vuzi;
#N canvas 383 442 450 300 list-dripslow 0;
#X obj 148 186 list split 1;
#X obj 148 161 list append;
#X obj 148 237 outlet;
#X obj 148 37 inlet;
#X obj 229 237 outlet;
#X obj 222 35 inlet;
#X obj 148 72 b;
#X text 265 36 list;
#X text 103 37 bang;
#X text 273 237 EOL;
#X text 89 236 element;
#X obj 229 207 b;
#X connect 0 0 2 0;
#X connect 0 1 1 1;
#X connect 0 2 11 0;
#X connect 1 0 0 0;
#X connect 3 0 6 0;
#X connect 5 0 1 1;
#X connect 6 0 1 0;
#X connect 11 0 4 0;
#X restore 57 226 pd list-dripslow;
#X obj 57 257 *, f 18;
#X obj 80 334 list store;
#X msg 57 290 append \$1;
#X obj 291 37 inlet;
#X obj 57 36 inlet;
#X obj 57 74 t b l l b, f 31;
#X obj 80 371 outlet;
#X obj 57 191 t b b;
#X obj 199 111 list length;
#X connect 0 0 3 1;
#X connect 1 0 10 0;
#X connect 1 1 4 0;
#X connect 2 0 3 0;
#X connect 3 0 5 0;
#X connect 4 0 9 0;
#X connect 5 0 4 0;
#X connect 6 0 0 1;
#X connect 7 0 8 0;
#X connect 8 0 1 0;
#X connect 8 1 2 1;
#X connect 8 2 11 0;
#X connect 8 3 4 1;
#X connect 10 0 2 0;
#X connect 10 1 0 0;
#X connect 11 0 1 1;
#X restore 49 258 pd vexpr *;
#N canvas 730 358 384 465 vexpr 0;
#N canvas 383 442 450 300 list-dripslow 0;
#X obj 148 186 list split 1;
#X obj 148 161 list append;
#X obj 148 237 outlet;
#X obj 148 37 inlet;
#X obj 229 237 outlet;
#X obj 222 35 inlet;
#X obj 148 72 b;
#X text 265 36 list;
#X text 103 37 bang;
#X text 273 237 EOL;
#X text 89 236 element;
#X obj 229 207 b;
#X connect 0 0 2 0;
#X connect 0 1 1 1;
#X connect 0 2 11 0;
#X connect 1 0 0 0;
#X connect 3 0 6 0;
#X connect 5 0 1 1;
#X connect 6 0 1 0;
#X connect 11 0 4 0;
#X restore 182 226 pd list-dripslow;
#N canvas 121 146 493 544 vuzi 0;
#X obj 25 14 inlet;
#X obj 25 194 sel 0;
#X obj 52 214 until;
#X obj 95 14 inlet;
#X obj 52 254 f;
#X obj 92 364 sel;
#X obj 183 364 outlet;
#X text 182 383 counter (starting at offset);
#X obj 92 384 outlet;
#X text 91 401 done;
#X obj 71 444 outlet;
#X text 70 461 bang;
#X obj 118 54 route offset;
#X obj 67 144 f \$2;
#X text 187 169 \$1 = n of bangs;
#X text 187 189 \$2 = offset;
#X obj 92 324 + 1;
#X obj 67 164 t f f;
#X obj 94 214 +;
#X text 187 139 except that the default offset is 0;
#X obj 52 274 t f b f;
#X obj 92 344 t f f;
#X obj 25 124 t f f b;
#X obj 45 64 t b f;
#X obj 25 34 route bang float;
#X text 187 119 vanilla version of [cyclone/uzi];
#X obj 25 104 f 7;
#X connect 0 0 24 0;
#X connect 1 1 2 0;
#X connect 2 0 4 0;
#X connect 3 0 26 1;
#X connect 4 0 20 0;
#X connect 5 0 8 0;
#X connect 12 0 13 1;
#X connect 13 0 17 0;
#X connect 16 0 21 0;
#X connect 17 0 4 1;
#X connect 17 1 18 1;
#X connect 18 0 5 1;
#X connect 20 0 16 0;
#X connect 20 1 10 0;
#X connect 20 2 6 0;
#X connect 21 0 5 0;
#X connect 21 1 4 1;
#X connect 22 0 1 0;
#X connect 22 1 18 0;
#X connect 22 2 13 0;
#X connect 23 0 26 0;
#X connect 23 1 26 1;
#X connect 24 0 26 0;
#X connect 24 1 23 0;
#X connect 24 2 12 0;
#X connect 26 0 22 0;
#X restore 57 147 pd vuzi;
#N canvas 383 442 450 300 list-dripslow 0;
#X obj 148 186 list split 1;
#X obj 148 161 list append;
#X obj 148 237 outlet;
#X obj 148 37 inlet;
#X obj 229 237 outlet;
#X obj 222 35 inlet;
#X obj 148 72 b;
#X text 265 36 list;
#X text 103 37 bang;
#X text 273 237 EOL;
#X text 89 236 element;
#X obj 229 207 b;
#X connect 0 0 2 0;
#X connect 0 1 1 1;
#X connect 0 2 11 0;
#X connect 1 0 0 0;
#X connect 3 0 6 0;
#X connect 5 0 1 1;
#X connect 6 0 1 0;
#X connect 11 0 4 0;
#X restore 57 226 pd list-dripslow;
#X obj 57 257 *, f 18;
#X obj 80 334 list store;
#X msg 57 290 append \$1;
#X obj 291 37 inlet;
#X obj 57 36 inlet;
#X obj 57 74 t b l l b, f 31;
#X obj 80 371 outlet;
#X obj 57 191 t b b;
#X obj 199 111 list length;
#X connect 0 0 3 1;
#X connect 1 0 10 0;
#X connect 1 1 4 0;
#X connect 2 0 3 0;
#X connect 3 0 5 0;
#X connect 4 0 9 0;
#X connect 5 0 4 0;
#X connect 6 0 0 1;
#X connect 7 0 8 0;
#X connect 8 0 1 0;
#X connect 8 1 2 1;
#X connect 8 2 11 0;
#X connect 8 3 4 1;
#X connect 10 0 2 0;
#X connect 10 1 0 0;
#X connect 11 0 1 1;
#X restore 396 259 pd vexpr *;
#X connect 0 0 15 0;
#X connect 1 0 12 0;
#X connect 3 0 2 0;
#X connect 4 0 22 0;
#X connect 5 0 4 0;
#X connect 6 0 5 0;
#X connect 7 0 5 1;
#X connect 8 0 4 1;
#X connect 9 0 8 1;
#X connect 10 0 6 1;
#X connect 11 0 23 1;
#X connect 11 1 10 0;
#X connect 11 2 18 0;
#X connect 11 3 14 0;
#X connect 12 0 23 0;
#X connect 12 1 17 0;
#X connect 12 2 24 0;
#X connect 12 3 24 1;
#X connect 12 4 20 0;
#X connect 12 5 21 0;
#X connect 13 0 8 0;
#X connect 14 0 13 1;
#X connect 15 0 1 0;
#X connect 15 1 11 0;
#X connect 16 0 6 0;
#X connect 17 0 7 0;
#X connect 18 0 7 1;
#X connect 19 0 13 0;
#X connect 20 0 9 0;
#X connect 21 0 9 1;
#X connect 22 0 3 0;
#X connect 23 0 16 0;
#X connect 24 0 19 0;
#X restore 202 306 pd linearRegression;
#X connect 0 0 2 0;
#X connect 1 0 15 0;
#X connect 2 0 1 1;
#X connect 2 0 21 1;
#X connect 2 1 3 0;
#X connect 3 0 4 0;
#X connect 3 1 5 0;
#X connect 4 0 1 0;
#X connect 5 0 21 0;
#X connect 6 0 7 0;
#X connect 8 0 10 0;
#X connect 9 0 6 9;
#X connect 10 0 17 0;
#X connect 10 1 18 0;
#X connect 10 2 20 0;
#X connect 10 3 9 0;
#X connect 11 0 6 5;
#X connect 11 1 8 0;
#X connect 12 0 14 0;
#X connect 13 0 6 4;
#X connect 14 0 16 0;
#X connect 14 1 22 0;
#X connect 14 2 19 0;
#X connect 14 3 13 0;
#X connect 15 0 6 0;
#X connect 15 1 12 0;
#X connect 16 0 6 1;
#X connect 17 0 6 6;
#X connect 18 0 6 7;
#X connect 19 0 6 3;
#X connect 20 0 6 8;
#X connect 21 0 11 0;
#X connect 22 0 6 2;
