#N canvas 832 767 620 595 12;
#X obj 46 219 readsf~;
#X msg 63 190 0;
#X obj 78 265 dac~;
#X msg 46 151 open media/Constanzo-PreparedSnare-M.wav \, 1;
#X text 26 22 [sp.controllers];
#X text 29 47 Extract meta-parameters from descriptors, f 70;
#X text 29 75 sp.controllers works in conjuntion with sp.descriptorframe to create several meta-parameters based on loudness and centroid (brightness).;
#X floatatom 46 442 5 0 0 0 - - - 0;
#X floatatom 90 443 5 0 0 0 - - - 0;
#X floatatom 135 443 5 0 0 0 - - - 0;
#X floatatom 180 443 5 0 0 0 - - - 0;
#X floatatom 225 443 5 0 0 0 - - - 0;
#X floatatom 269 443 5 0 0 0 - - - 0;
#X floatatom 314 443 5 0 0 0 - - - 0;
#X floatatom 359 442 5 0 0 0 - - - 0;
#X obj 46 407 unpack f f f f f f f f f f, f 58;
#X floatatom 404 442 5 0 0 0 - - - 0;
#X floatatom 449 442 5 0 0 0 - - - 0;
#X text 48 463 norm;
#X text 91 463 mean;
#X text 133 463 slope;
#X text 182 463 vari;
#X text 223 464 direc;
#X text 269 464 norm;
#X text 312 464 mean;
#X text 354 464 slope;
#X text 403 464 vari;
#X text 444 465 direc;
#X text 122 485 loudness;
#X text 344 487 centroid;
#X obj 46 372 sp.controllers;
#X obj 46 297 sp.onsetframe~;
#X floatatom 141 231 5 0 100 0 - - - 0;
#X msg 141 265 sensitivity \$1;
#X listbox 153 298 18 0 0 0 - - - 0;
#X obj 46 331 sp.descriptorframe;
#X connect 0 0 2 0;
#X connect 0 0 2 1;
#X connect 0 0 31 0;
#X connect 1 0 0 0;
#X connect 3 0 0 0;
#X connect 15 0 7 0;
#X connect 15 1 8 0;
#X connect 15 2 9 0;
#X connect 15 3 10 0;
#X connect 15 4 11 0;
#X connect 15 5 12 0;
#X connect 15 6 13 0;
#X connect 15 7 14 0;
#X connect 15 8 16 0;
#X connect 15 9 17 0;
#X connect 30 0 15 0;
#X connect 31 0 34 0;
#X connect 31 0 35 0;
#X connect 32 0 33 0;
#X connect 33 0 31 1;
#X connect 35 0 30 0;
