#N canvas 469 243 620 502 12;
#X obj 37 204 fluid.knnclassifier;
#N canvas 278 327 221 218 counter 0;
#X obj 100 111 + 1;
#X msg 83 78 0;
#X obj 51 112 int 0;
#X obj 51 38 inlet;
#X obj 109 38 inlet;
#X obj 51 154 outlet;
#X connect 0 0 2 1;
#X connect 1 0 2 1;
#X connect 2 0 0 0;
#X connect 2 0 5 0;
#X connect 3 0 2 0;
#X connect 4 0 1 0;
#X restore 156 316 pd counter;
#X floatatom 115 317 5 0 0 0 - - - 0;
#X msg 255 317 clear;
#X obj 223 282 t b b;
#X msg 109 448 print;
#X obj 156 386 list prepend addpoint;
#X obj 156 418 route list;
#X obj 334 417 route list;
#X obj 334 353 list append label;
#X msg 511 449 print;
#X obj 334 386 list prepend addlabel;
#X obj 112 266 bng 19 250 50 0 empty empty empty 0 -10 0 12 #fcfcfc #000000 #000000;
#X obj 37 234 route predictpoint fit;
#X obj 37 265 symbol;
#X obj 37 142 spigot;
#X obj 125 142 spigot;
#X obj 216 141 sel 1;
#X obj 76 106 == 0;
#X obj 156 354 list append buffername;
#X obj 156 283 t b l;
#X msg 37 174 predictpoint \$1;
#X obj 76 37 inlet;
#X obj 37 299 outlet;
#X obj 94 355 outlet;
#X obj 76 72 route train class print clear write;
#X obj 156 449 fluid.dataset \$0-classes;
#X obj 334 449 fluid.labelset \$0-labels;
#X obj 216 202 pack s s, f 19;
#X obj 346 139 loadbang;
#X msg 216 236 fit \$1 \$2;
#X obj 216 170 symbol \$0-classes;
#X obj 346 170 symbol \$0-labels;
#X connect 0 0 13 0;
#X connect 1 0 2 0;
#X connect 1 0 9 0;
#X connect 1 0 19 0;
#X connect 1 0 24 0;
#X connect 3 0 26 0;
#X connect 3 0 27 0;
#X connect 4 0 1 1;
#X connect 4 1 3 0;
#X connect 5 0 26 0;
#X connect 6 0 7 0;
#X connect 7 0 26 0;
#X connect 8 0 27 0;
#X connect 9 0 11 0;
#X connect 10 0 27 0;
#X connect 11 0 8 0;
#X connect 13 0 14 0;
#X connect 13 1 12 0;
#X connect 14 0 23 0;
#X connect 15 0 21 0;
#X connect 16 0 20 0;
#X connect 17 0 31 0;
#X connect 18 0 15 1;
#X connect 18 0 17 0;
#X connect 19 0 6 0;
#X connect 20 0 1 0;
#X connect 20 1 19 1;
#X connect 21 0 0 0;
#X connect 22 0 25 0;
#X connect 25 0 18 0;
#X connect 25 0 16 1;
#X connect 25 1 9 1;
#X connect 25 2 5 0;
#X connect 25 2 10 0;
#X connect 25 3 4 0;
#X connect 25 5 16 0;
#X connect 25 5 15 0;
#X connect 28 0 30 0;
#X connect 29 0 32 0;
#X connect 30 0 0 0;
#X connect 31 0 28 0;
#X connect 32 0 28 1;
