#N canvas 1083 196 503 487 12;
#X obj 191 27 inlet;
#X obj 25 208 outlet;
#X obj 197 406 outlet;
#X text 247 408 buffer outlet;
#X text 75 208 list outlet;
#X obj 25 75 sp.realtimeframe~;
#X obj 25 118 sp.descriptorframe, f 25;
#X obj 25 26 inlet~;
#X obj 25 164 fluid.stats -history 7;
#X msg 197 196 0;
#X obj 197 164 t b s;
#X obj 197 230 array get \$0-descriptors;
#X obj 197 267 fluid.stats -history 7;
#X obj 229 335 array set \$0-descriptors;
#X obj 197 298 t b l;
#X obj 197 374 symbol \$0-descriptors;
#X obj 247 297 array define \$0-descriptors 8;
#X connect 0 0 5 1;
#X connect 0 0 6 0;
#X connect 5 0 6 0;
#X connect 6 0 8 0;
#X connect 6 1 10 0;
#X connect 7 0 5 0;
#X connect 8 0 1 0;
#X connect 9 0 11 0;
#X connect 10 0 9 0;
#X connect 10 1 11 2;
#X connect 11 0 12 0;
#X connect 12 0 14 0;
#X connect 14 0 15 0;
#X connect 14 1 13 0;
#X connect 15 0 2 0;
