#N canvas 700 136 697 528 12;
#X obj 45 243 readsf~;
#X msg 62 204 0;
#X obj 54 281 dac~;
#X floatatom 161 246 5 0 100 0 - - - 0;
#X listbox 83 358 18 0 0 0 - - - 0;
#X msg 45 165 open media/Constanzo-PreparedSnare-M.wav \, 1;
#X obj 254 357 tgl 19 0 empty empty empty 0 -10 0 12 #fcfcfc #000000 #000000 0 1;
#X msg 161 280 sensitivity \$1;
#X text 30 47 Analyzes audio for several audio desriptors based on audio onsets, f 70;
#X text 26 22 [sp.descriptors~];
#X text 29 74 sp.descriptors~ outputs loudness \, centroid \, spectral flatness \, and pitch along with the derivatives for loudness/centroid/flatness and confidence for pitch.;
#X obj 45 312 sp.descriptors~, f 17;
#X obj 45 389 unpack f f f f f f f f, f 45;
#X floatatom 45 424 5 0 0 0 - - - 0;
#X floatatom 89 425 5 0 0 0 - - - 0;
#X floatatom 134 425 5 0 0 0 - - - 0;
#X floatatom 178 425 5 0 0 0 - - - 0;
#X floatatom 223 425 5 0 0 0 - - - 0;
#X floatatom 267 425 5 0 0 0 - - - 0;
#X floatatom 312 425 5 0 0 0 - - - 0;
#X floatatom 357 424 5 0 0 0 - - - 0;
#X text 57 448 loudness;
#X text 145 448 centroid;
#X text 233 447 flatness;
#X text 333 445 pitch;
#X connect 0 0 2 0;
#X connect 0 0 2 1;
#X connect 0 0 11 0;
#X connect 1 0 0 0;
#X connect 3 0 7 0;
#X connect 5 0 0 0;
#X connect 7 0 11 1;
#X connect 11 0 12 0;
#X connect 11 1 4 0;
#X connect 11 3 6 0;
#X connect 12 0 13 0;
#X connect 12 1 14 0;
#X connect 12 2 15 0;
#X connect 12 3 16 0;
#X connect 12 4 17 0;
#X connect 12 5 18 0;
#X connect 12 6 19 0;
#X connect 12 7 20 0;
