#N canvas 832 767 641 502 12;
#X obj 43 233 readsf~;
#X msg 60 194 0;
#X obj 52 271 dac~;
#X obj 43 302 sp.onsetframe~;
#X floatatom 138 236 5 0 100 0 - - - 0;
#X msg 138 270 sensitivity \$1;
#X listbox 150 303 18 0 0 0 - - - 0;
#X obj 43 336 sp.descriptorframe;
#X msg 43 155 open media/Constanzo-PreparedSnare-M.wav \, 1;
#X obj 43 376 unpack f f f f f f f f, f 45;
#X floatatom 43 411 5 0 0 0 - - - 0;
#X floatatom 87 412 5 0 0 0 - - - 0;
#X floatatom 132 412 5 0 0 0 - - - 0;
#X floatatom 176 412 5 0 0 0 - - - 0;
#X floatatom 221 412 5 0 0 0 - - - 0;
#X floatatom 265 412 5 0 0 0 - - - 0;
#X floatatom 310 412 5 0 0 0 - - - 0;
#X floatatom 355 411 5 0 0 0 - - - 0;
#X text 55 435 loudness;
#X text 143 435 centroid;
#X text 231 434 flatness;
#X text 331 432 pitch;
#X text 29 47 Analyzes audio for several audio desriptors based on frame input, f 70;
#X text 30 75 sp.descriptorframe outputs loudness \, centroid \, spectral flatness \, and pitch along with the derivatives for loudness/centroid/flatness and confidence for pitch.;
#X text 26 22 [sp.descriptorframe~];
#X connect 0 0 2 0;
#X connect 0 0 2 1;
#X connect 0 0 3 0;
#X connect 1 0 0 0;
#X connect 3 0 6 0;
#X connect 3 0 7 0;
#X connect 4 0 5 0;
#X connect 5 0 3 1;
#X connect 7 0 9 0;
#X connect 8 0 0 0;
#X connect 9 0 10 0;
#X connect 9 1 11 0;
#X connect 9 2 12 0;
#X connect 9 3 13 0;
#X connect 9 4 14 0;
#X connect 9 5 15 0;
#X connect 9 6 16 0;
#X connect 9 7 17 0;
