#N canvas 1083 196 681 260 12;
#X obj 191 27 inlet;
#X obj 25 156 outlet;
#X obj 197 156 outlet;
#X text 247 158 buffer outlet;
#X text 75 156 list outlet;
#X obj 25 26 inlet~;
#X obj 25 75 sp.onsetframe~;
#X obj 542 159 outlet;
#X text 593 160 gate;
#X text 441 159 trigger;
#X obj 387 158 outlet~;
#X obj 25 118 sp.descriptorframe, f 25;
#X connect 0 0 6 1;
#X connect 0 0 11 0;
#X connect 5 0 6 0;
#X connect 6 0 11 0;
#X connect 6 1 10 0;
#X connect 6 2 7 0;
#X connect 11 0 1 0;
#X connect 11 1 2 0;
