#N canvas 700 136 697 487 12;
#X obj 45 243 readsf~;
#X msg 62 204 0;
#X obj 54 281 dac~;
#X floatatom 161 246 5 0 100 0 - - - 0;
#X listbox 413 350 18 0 0 0 - - - 0;
#X msg 45 165 open media/Constanzo-PreparedSnare-M.wav \, 1;
#X obj 45 350 unpack f f f f f f f f, f 45;
#X floatatom 45 385 5 0 0 0 - - - 0;
#X floatatom 89 386 5 0 0 0 - - - 0;
#X floatatom 134 386 5 0 0 0 - - - 0;
#X floatatom 178 386 5 0 0 0 - - - 0;
#X floatatom 223 386 5 0 0 0 - - - 0;
#X floatatom 267 386 5 0 0 0 - - - 0;
#X floatatom 312 386 5 0 0 0 - - - 0;
#X floatatom 357 385 5 0 0 0 - - - 0;
#X text 57 409 loudness;
#X text 145 409 centroid;
#X text 233 408 flatness;
#X text 333 406 pitch;
#X msg 161 280 rate \$1;
#X obj 45 312 sp.descriptorsrt~;
#X text 26 22 [sp.descriptorrt~];
#X text 29 47 Analyzes audio for several audio desriptors based on audio input, f 70;
#X text 29 75 sp.descriptorsrt~ outputs loudness \, centroid \, spectral flatness \, and pitch along with the derivatives for loudness/centroid/flatness and confidence for pitch.;
#X connect 0 0 2 0;
#X connect 0 0 2 1;
#X connect 0 0 20 0;
#X connect 1 0 0 0;
#X connect 3 0 19 0;
#X connect 5 0 0 0;
#X connect 6 0 7 0;
#X connect 6 1 8 0;
#X connect 6 2 9 0;
#X connect 6 3 10 0;
#X connect 6 4 11 0;
#X connect 6 5 12 0;
#X connect 6 6 13 0;
#X connect 6 7 14 0;
#X connect 19 0 20 1;
#X connect 20 0 6 0;
#X connect 20 1 4 0;
