#N canvas 745 192 595 611 12;
#X text 29 47 Analyzes audio for MFCCs based on frame input, f 70;
#X text 30 75 sp.mfccframe outputs buffer with 104 dimensions of MFCC coefficients and statistics (skipping the 0th coefficient) which can be used for classification and clustering.;
#X obj 41 245 readsf~;
#X msg 58 206 0;
#X obj 50 283 dac~;
#X obj 41 314 sp.onsetframe~;
#X floatatom 136 248 5 0 100 0 - - - 0;
#X msg 136 282 sensitivity \$1;
#X listbox 148 315 18 0 0 0 - - - 0;
#X obj 41 375 sp.mfccframe;
#X obj 122 492 sel dot dual sys plast cympath cyrinx larynx bacid;
#X obj 122 522 bng 19 250 50 0 empty empty empty 0 -10 0 12 #fcfcfc #000000 #000000;
#X obj 165 522 bng 19 250 50 0 empty empty empty 0 -10 0 12 #fcfcfc #000000 #000000;
#X obj 208 522 bng 19 250 50 0 empty empty empty 0 -10 0 12 #fcfcfc #000000 #000000;
#X obj 252 521 bng 19 250 50 0 empty empty empty 0 -10 0 12 #fcfcfc #000000 #000000;
#X obj 295 522 bng 19 250 50 0 empty empty empty 0 -10 0 12 #fcfcfc #000000 #000000;
#X obj 338 522 bng 19 250 50 0 empty empty empty 0 -10 0 12 #fcfcfc #000000 #000000;
#X obj 382 521 bng 19 250 50 0 empty empty empty 0 -10 0 12 #fcfcfc #000000 #000000;
#X obj 425 522 bng 19 250 50 0 empty empty empty 0 -10 0 12 #fcfcfc #000000 #000000;
#X obj 122 439 sp.classtrain;
#X msg 145 408 train \$1;
#X obj 145 375 tgl 19 0 empty empty empty 0 -10 0 12 #fcfcfc #000000 #000000 0 1;
#X msg 214 381 print;
#X msg 351 337 dot;
#X msg 350 366 dual;
#X msg 350 393 sys;
#X msg 350 420 plast;
#X msg 397 338 cympath;
#X msg 397 365 cyrinx;
#X msg 397 392 larynx;
#X msg 397 419 bacid;
#X floatatom 210 466 5 0 0 0 - - - 0;
#X msg 267 407 class \$1;
#X obj 267 378 symbol;
#X msg 215 408 clear;
#X msg 41 164 open media/Constanzo-PreparedSnare-M.wav \, 1;
#X text 26 22 [sp.mfccframe];
#X listbox 41 409 8 0 0 0 - - - 0;
#X connect 2 0 4 0;
#X connect 2 0 4 1;
#X connect 2 0 5 0;
#X connect 3 0 2 0;
#X connect 5 0 8 0;
#X connect 5 0 9 0;
#X connect 6 0 7 0;
#X connect 7 0 5 1;
#X connect 9 0 37 0;
#X connect 9 1 19 0;
#X connect 10 0 11 0;
#X connect 10 1 12 0;
#X connect 10 2 13 0;
#X connect 10 3 14 0;
#X connect 10 4 15 0;
#X connect 10 5 16 0;
#X connect 10 6 17 0;
#X connect 10 7 18 0;
#X connect 19 0 10 0;
#X connect 19 1 31 0;
#X connect 20 0 19 0;
#X connect 21 0 20 0;
#X connect 22 0 19 0;
#X connect 23 0 33 0;
#X connect 24 0 33 0;
#X connect 25 0 33 0;
#X connect 26 0 33 0;
#X connect 27 0 33 0;
#X connect 28 0 33 0;
#X connect 29 0 33 0;
#X connect 30 0 33 0;
#X connect 32 0 19 0;
#X connect 33 0 32 0;
#X connect 34 0 19 0;
#X connect 35 0 2 0;
