#N canvas 700 136 697 487 12;
#X obj 45 243 readsf~;
#X msg 62 204 0;
#X obj 54 281 dac~;
#X floatatom 161 246 5 0 100 0 - - - 0;
#X listbox 192 355 18 0 0 0 - - - 0;
#X msg 45 165 open media/Constanzo-PreparedSnare-M.wav \, 1;
#X listbox 45 355 18 0 0 0 - - - 0;
#X obj 363 352 tgl 19 0 empty empty empty 0 -10 0 12 #fcfcfc #000000 #000000 0 1;
#X msg 161 280 sensitivity \$1;
#X text 30 47 Analyzes audio for MFCCs based on audio onsets, f 70;
#X text 26 22 [sp.mfcc~];
#X text 29 74 sp.mfcc~ outputs 13 MFCC coefficients (skipping the 0th coefficient) which can be used for classification and clustering. Although abstract they can also be used to control parameters.;
#X obj 45 312 sp.mfcc~, f 17;
#X connect 0 0 2 0;
#X connect 0 0 2 1;
#X connect 0 0 12 0;
#X connect 1 0 0 0;
#X connect 3 0 8 0;
#X connect 5 0 0 0;
#X connect 8 0 12 1;
#X connect 12 0 6 0;
#X connect 12 1 4 0;
#X connect 12 3 7 0;
