#N canvas 700 136 697 487 12;
#X obj 45 243 readsf~;
#X msg 62 204 0;
#X obj 54 281 dac~;
#X floatatom 161 246 5 0 100 0 - - - 0;
#X listbox 192 355 18 0 0 0 - - - 0;
#X msg 45 165 open media/Constanzo-PreparedSnare-M.wav \, 1;
#X msg 161 280 rate \$1;
#X text 26 22 [sp.melbandsrt~];
#X text 30 47 Analyzes audio for melbands based on audio input, f 70;
#X text 29 75 sp.melbandsrt~ outputs 40 melbands which can be used for spectral compensation in corpused-based sample playback.;
#X listbox 45 355 18 0 0 0 - - - 0;
#X obj 45 312 sp.melbandsrt~, f 17;
#X connect 0 0 2 0;
#X connect 0 0 2 1;
#X connect 0 0 11 0;
#X connect 1 0 0 0;
#X connect 3 0 6 0;
#X connect 5 0 0 0;
#X connect 6 0 11 1;
#X connect 11 0 10 0;
#X connect 11 1 4 0;
