#N canvas 685 158 1164 514 12;
#X obj 23 27 inlet;
#X msg 207 171 startframe \$1;
#X msg 23 103 startframe \$1 \, bang;
#X obj 23 172 t b b;
#X obj 23 466 outlet;
#X obj 23 64 unpack f s;
#X obj 23 137 route bang startframe, f 53;
#X obj 829 215 array define \$0-loudness 7;
#X obj 828 242 array define \$0-loudness_scaled 7;
#X obj 23 360 fluid.bufflatten -source \$0-statistics -destination \$0-flattened -blocking 2, f 77;
#X obj 418 213 fluid.bufloudness -features \$0-loudness -numchans 1 -windowsize 256 -hopsize 64 -truepeak 0 -numframes 256 -select loudness -padding 2 -blocking 2, f 50;
#X obj 418 293 fluid.bufscale -source \$0-loudness -destination \$0-loudness_scaled -inputlow -100 -inputhigh 0 -clipping 3 -blocking 2, f 48;
#X obj 418 137 list prepend source;
#X obj 418 176 route list;
#X obj 23 215 fluid.bufmelbands 40 -features \$0-melbands -fftsettings 256 64 512 -minfreq 200 -maxfreq 10000 -numbands 40 -numframes 256 -numchans 1 -padding 2 -blocking 2, f 51;
#X obj 23 293 fluid.bufstats -source \$0-melbands -weights \$0-loudness_scaled -stats \$0-statistics -select mean -blocking 2;
#X obj 828 268 array define \$0-flattened 40;
#X obj 830 332 clone fluid.multiarray 40 \$0-melbands 7;
#X msg 23 396 0;
#X obj 23 430 array get \$0-flattened;
#X obj 192 463 outlet;
#X obj 192 395 route buffer;
#X obj 192 429 list;
#X text 243 465 buffer outlet;
#X text 73 466 list outlet;
#X obj 829 301 clone fluid.multiarray 40 \$0-statistics 1;
#X connect 0 0 5 0;
#X connect 1 0 10 0;
#X connect 1 0 14 0;
#X connect 2 0 6 0;
#X connect 3 0 14 0;
#X connect 3 1 10 0;
#X connect 5 0 2 0;
#X connect 5 1 12 0;
#X connect 6 0 3 0;
#X connect 6 1 1 0;
#X connect 9 0 18 0;
#X connect 9 0 21 0;
#X connect 10 0 11 0;
#X connect 12 0 13 0;
#X connect 13 0 10 0;
#X connect 13 0 14 0;
#X connect 14 0 15 0;
#X connect 15 0 9 0;
#X connect 18 0 19 0;
#X connect 19 0 4 0;
#X connect 21 0 22 0;
#X connect 22 0 20 0;
