#N canvas 700 136 697 487 12;
#X obj 45 243 readsf~;
#X msg 62 204 0;
#X obj 54 281 dac~;
#X floatatom 161 246 5 0 100 0 - - - 0;
#X listbox 192 355 18 0 0 0 - - - 0;
#X msg 45 165 open media/Constanzo-PreparedSnare-M.wav \, 1;
#X msg 161 280 rate \$1;
#X listbox 45 355 18 0 0 0 - - - 0;
#X text 26 22 [sp.mfccrt~];
#X text 30 48 Analyzes audio for MFCCs based on audio input, f 70;
#X text 29 75 sp.mfccrt~ outputs 13 MFCC coefficients (skipping the 0th coefficient) which can be used for classification and clustering. Although abstract they can also be used to control parameters.;
#X obj 45 312 sp.mfccrt~, f 17;
#X connect 0 0 2 0;
#X connect 0 0 2 1;
#X connect 0 0 11 0;
#X connect 1 0 0 0;
#X connect 3 0 6 0;
#X connect 5 0 0 0;
#X connect 6 0 11 1;
#X connect 11 0 7 0;
#X connect 11 1 4 0;
