#N canvas 603 134 1164 514 12;
#X obj 23 27 inlet;
#X msg 207 171 startframe \$1;
#X msg 23 103 startframe \$1 \, bang;
#X obj 23 172 t b b;
#X obj 23 466 outlet;
#X obj 23 64 unpack f s;
#X obj 23 137 route bang startframe, f 53;
#X obj 829 215 array define \$0-loudness 7;
#X obj 828 242 array define \$0-loudness_scaled 7;
#X obj 828 268 array define \$0-flattened 104;
#X obj 828 298 clone fluid.multiarray 13 \$0-mfcc 7;
#X obj 828 324 clone fluid.multiarray 13 \$0-statistics 8;
#X obj 23 363 fluid.bufflatten -source \$0-statistics -destination \$0-flattened -blocking 2, f 77;
#X obj 23 213 fluid.bufmfcc 13 -features \$0-mfcc -numcoeffs 13 -numframes 256 -numchans 1 -minfreq 200 -maxfreq 12000 -fftsettings 256 64 512 -maxfftsize 4096 -startcoeff 1 -padding 2 -blocking 2, f 53;
#X obj 418 213 fluid.bufloudness -features \$0-loudness -numchans 1 -windowsize 256 -hopsize 64 -truepeak 0 -numframes 256 -select loudness -padding 2 -blocking 2, f 50;
#X obj 23 293 fluid.bufstats -source \$0-mfcc -weights \$0-loudness_scaled -stats \$0-statistics -select mean std low high -numderivs 1 -blocking 2, f 52;
#X obj 418 293 fluid.bufscale -source \$0-loudness -destination \$0-loudness_scaled -inputlow -100 -inputhigh 0 -clipping 3 -blocking 2, f 48;
#X obj 23 398 route buffer;
#X obj 23 432 list;
#X obj 418 137 list prepend source;
#X obj 418 176 route list;
#X connect 0 0 5 0;
#X connect 1 0 13 0;
#X connect 1 0 14 0;
#X connect 2 0 6 0;
#X connect 3 0 13 0;
#X connect 3 1 14 0;
#X connect 5 0 2 0;
#X connect 5 1 19 0;
#X connect 6 0 3 0;
#X connect 6 1 1 0;
#X connect 12 0 17 0;
#X connect 13 0 15 0;
#X connect 14 0 16 0;
#X connect 15 0 12 0;
#X connect 17 0 18 0;
#X connect 18 0 4 0;
#X connect 19 0 20 0;
#X connect 20 0 14 0;
#X connect 20 0 13 0;
