#N canvas 578 93 528 498 12;
#X obj 41 245 readsf~;
#X msg 58 206 0;
#X obj 50 283 dac~;
#X obj 41 314 sp.onsetframe~;
#X floatatom 136 248 5 0 100 0 - - - 0;
#X msg 136 282 sensitivity \$1;
#X listbox 148 315 18 0 0 0 - - - 0;
#X msg 41 164 open media/Constanzo-PreparedSnare-M.wav \, 1;
#X text 26 22 [sp.melbandframe];
#X text 29 47 Analyzes audio for melbands based on frame input, f 70;
#X text 30 75 sp.melbandframe outputs 40 melbands which can be used for spectral compensation in corpused-based sample playback.;
#X obj 41 351 sp.melbandframe, f 22;
#X listbox 41 389 18 0 0 0 - - - 0;
#X listbox 192 389 18 0 0 0 - - - 0;
#X text 59 414 list outlet;
#X text 215 415 list outlet;
#X connect 0 0 2 0;
#X connect 0 0 2 1;
#X connect 0 0 3 0;
#X connect 1 0 0 0;
#X connect 3 0 6 0;
#X connect 3 0 11 0;
#X connect 4 0 5 0;
#X connect 5 0 3 1;
#X connect 7 0 0 0;
#X connect 11 0 12 0;
#X connect 11 1 13 0;
