#N canvas 764 533 1238 606 12;
#X floatatom 84 473 5 0 0 0 - - - 0;
#X obj 34 398 samphold~;
#X obj 34 438 snapshot~;
#X obj 304 318 *~ -1;
#X obj 304 358 +~ 1;
#X obj 34 248 fexpr~ 1 + ($y1[-1] % 22050);
#N canvas 352 175 330 235 delay-writer 0;
#X obj 96 85 inlet~;
#X obj 96 158 outlet~;
#X obj 117 122 delwrite~ \$0-wait 5.80499;
#X connect 0 0 1 0;
#X connect 0 0 2 0;
#X restore 354 318 pd delay-writer;
#N canvas 177 231 316 232 delay-reader 0;
#X obj 97 77 inlet~;
#X obj 97 152 outlet~;
#X obj 97 114 delread~ \$0-wait 5.80499;
#X connect 2 0 1 0;
#X restore 354 358 pd delay-reader;
#X obj 34 545 outlet;
#X obj 275 171 inlet~;
#X obj 275 205 biquad~ 1.43693 -0.89867 1.25333 -1.43693 0.645343;
#X obj 354 13 inlet;
#X obj 354 49 route threshold sensitivity lockout, f 56;
#X msg 354 115 floor \$1;
#X obj 354 82 clip -120 0;
#X text 634 205 **;
#X text 352 472 **coefficient order is diff from Max see this thread: https://cycling74.com/forums/converting-pure-data-biquad-coefficients, f 35;
#X obj 483 83 clip 0 100;
#X msg 483 151 offthreshold \$1;
#X msg 649 150 onthreshold \$1;
#X obj 821 81 clip 0 1000;
#X obj 518 392 outlet~;
#X obj 129 473 symbol \$0-audioin;
#X obj 353 445 array define \$0-audioin 44100;
#X obj 54 317 fexpr~ $s3[$x1[0]] = $x2[0] \; $s3[$x1[0]+22050] = $x2[0];
#X obj 129 438 loadbang;
#X obj 34 508 pack f s, f 14;
#X msg 779 456 1;
#X msg 958 455 0;
#X obj 34 473 - 16;
#X obj 354 392 threshold~ 0.1 0 0.1 0;
#X obj 824 328 pack f 0 f f;
#X obj 824 361 list prepend set;
#X obj 824 391 route list;
#X obj 779 489 outlet;
#X obj 846 294 t b f;
#X obj 895 295 t b f;
#X msg 821 150 minslicelength \$1;
#X obj 821 112 * 44.1;
#X obj 779 425 threshold~ 16 0 4.66665 30;
#X obj 354 248 fluid.ampslice~ -highpassfreq 600 -floor -55 -fastrampup 3 -fastrampdown 383 -slowrampup 2205 -slowrampdown 2205 -minslicelength 1323 -onthreshold 16 -offthreshold 4.66665;
#X obj 779 247 fluid.ampfeature~ -highpassfreq 600 -floor -55 -fastrampup 3 -fastrampdown 383 -slowrampup 2205 -slowrampdown 2205;
#X text 682 198 this EQ is useful for Sensory Percussion pickups \, can remove biquad if not required, f 42;
#N canvas 882 424 1166 713 m_scale 0;
#X obj 111 54 inlet;
#X obj 111 558 outlet;
#X text 609 49 ARGS;
#X text 619 95 2: input_high_border;
#X text 619 121 3: output_low_border;
#X text 619 143 4: output_high_border;
#X text 174 54 scale [from_low \, from_hi] to [to_low \, to_hi];
#X obj 201 130 t b b b b;
#X obj 201 88 loadbang;
#X obj 111 525 +;
#X text 229 297 inh-inl;
#X text 354 286 outh-outl;
#X obj 111 488 *;
#X text 143 338 - inl;
#X text 143 526 + outl;
#X obj 247 237 t b a;
#X obj 367 225 t b a;
#X msg 210 109 bang;
#X obj 111 364 / 1;
#X obj 111 340 -;
#X obj 317 287 -;
#X obj 317 266 swap;
#X obj 197 271 swap;
#X obj 197 296 -;
#X text 620 170 5: mapping: float is a pow-exponent \, "dB" can be used to use a dB scaling (optional \, default is linear);
#X text 619 73 1: input_low_border or list of four values;
#N canvas 172 83 586 377 LICENSE-GPL 0;
#X text 57 88 This program is free software: you can redistribute it and/or modify it under the terms of the GNU General Public License as published by the Free Software Foundation \, either version 3 of the License \, or (at your option) any later version.;
#X text 58 168 This program is distributed in the hope that it will be useful \, but WITHOUT ANY WARRANTY \; without even the implied warranty of MERCHANTABILITY or FITNESS FOR A PARTICULAR PURPOSE. See the GNU General Public License for more details.;
#X text 57 261 You should have received a copy of the GNU General Public License along with this program. If not \, see <http://www.gnu.org/licenses/>.;
#X text 61 54 Copyright (C) 2009 \, Reality Jockey Ltd.;
#X text 60 325 See the file LICENSE.txt for the full license text.;
#X restore 732 29 pd LICENSE-GPL;
#X obj 197 174 f 0;
#X obj 247 172 f 100;
#X obj 317 172 f 4;
#X obj 367 171 f 5.3333;
#X connect 0 0 19 0;
#X connect 7 0 27 0;
#X connect 7 1 28 0;
#X connect 7 2 29 0;
#X connect 7 3 30 0;
#X connect 8 0 7 0;
#X connect 9 0 1 0;
#X connect 12 0 9 0;
#X connect 15 0 22 0;
#X connect 15 1 22 1;
#X connect 16 0 21 0;
#X connect 16 1 21 1;
#X connect 17 0 7 0;
#X connect 18 0 12 0;
#X connect 19 0 18 0;
#X connect 20 0 12 1;
#X connect 21 0 20 0;
#X connect 21 1 20 1;
#X connect 22 0 23 0;
#X connect 22 1 23 1;
#X connect 23 0 18 1;
#X connect 27 0 19 1;
#X connect 27 0 22 0;
#X connect 28 0 15 0;
#X connect 29 0 9 1;
#X connect 29 0 21 0;
#X connect 30 0 16 0;
#X restore 483 114 pd m_scale;
#N canvas 882 424 1166 713 m_scale 0;
#X obj 111 54 inlet;
#X obj 111 558 outlet;
#X text 609 49 ARGS;
#X text 619 95 2: input_high_border;
#X text 619 121 3: output_low_border;
#X text 619 143 4: output_high_border;
#X text 174 54 scale [from_low \, from_hi] to [to_low \, to_hi];
#X obj 201 130 t b b b b;
#X obj 201 88 loadbang;
#X obj 111 525 +;
#X text 229 297 inh-inl;
#X text 354 286 outh-outl;
#X obj 111 488 *;
#X text 143 338 - inl;
#X text 143 526 + outl;
#X obj 247 237 t b a;
#X obj 367 225 t b a;
#X msg 210 109 bang;
#X obj 111 364 / 1;
#X obj 111 340 -;
#X obj 317 287 -;
#X obj 317 266 swap;
#X obj 197 271 swap;
#X obj 197 296 -;
#X text 620 170 5: mapping: float is a pow-exponent \, "dB" can be used to use a dB scaling (optional \, default is linear);
#X text 619 73 1: input_low_border or list of four values;
#N canvas 172 83 586 377 LICENSE-GPL 0;
#X text 57 88 This program is free software: you can redistribute it and/or modify it under the terms of the GNU General Public License as published by the Free Software Foundation \, either version 3 of the License \, or (at your option) any later version.;
#X text 58 168 This program is distributed in the hope that it will be useful \, but WITHOUT ANY WARRANTY \; without even the implied warranty of MERCHANTABILITY or FITNESS FOR A PARTICULAR PURPOSE. See the GNU General Public License for more details.;
#X text 57 261 You should have received a copy of the GNU General Public License along with this program. If not \, see <http://www.gnu.org/licenses/>.;
#X text 61 54 Copyright (C) 2009 \, Reality Jockey Ltd.;
#X text 60 325 See the file LICENSE.txt for the full license text.;
#X restore 732 29 pd LICENSE-GPL;
#X obj 197 174 f 0;
#X obj 247 172 f 100;
#X obj 317 172 f 26;
#X obj 367 171 f 6;
#X connect 0 0 19 0;
#X connect 7 0 27 0;
#X connect 7 1 28 0;
#X connect 7 2 29 0;
#X connect 7 3 30 0;
#X connect 8 0 7 0;
#X connect 9 0 1 0;
#X connect 12 0 9 0;
#X connect 15 0 22 0;
#X connect 15 1 22 1;
#X connect 16 0 21 0;
#X connect 16 1 21 1;
#X connect 17 0 7 0;
#X connect 18 0 12 0;
#X connect 19 0 18 0;
#X connect 20 0 12 1;
#X connect 21 0 20 0;
#X connect 21 1 20 1;
#X connect 22 0 23 0;
#X connect 22 1 23 1;
#X connect 23 0 18 1;
#X connect 27 0 19 1;
#X connect 27 0 22 0;
#X connect 28 0 15 0;
#X connect 29 0 9 1;
#X connect 29 0 21 0;
#X connect 30 0 16 0;
#X restore 648 115 pd m_scale;
#X connect 1 0 2 0;
#X connect 2 0 29 0;
#X connect 3 0 4 0;
#X connect 4 0 1 1;
#X connect 5 0 1 0;
#X connect 5 0 24 0;
#X connect 6 0 7 0;
#X connect 7 0 21 0;
#X connect 7 0 30 0;
#X connect 9 0 10 0;
#X connect 10 0 24 1;
#X connect 10 0 40 0;
#X connect 10 0 41 0;
#X connect 11 0 12 0;
#X connect 12 0 14 0;
#X connect 12 1 17 0;
#X connect 12 2 20 0;
#X connect 13 0 40 0;
#X connect 13 0 41 0;
#X connect 14 0 13 0;
#X connect 17 0 43 0;
#X connect 17 0 44 0;
#X connect 18 0 40 0;
#X connect 19 0 40 0;
#X connect 20 0 36 0;
#X connect 20 0 38 0;
#X connect 22 0 24 2;
#X connect 22 0 26 1;
#X connect 25 0 22 0;
#X connect 26 0 8 0;
#X connect 27 0 34 0;
#X connect 28 0 34 0;
#X connect 29 0 0 0;
#X connect 29 0 26 0;
#X connect 30 0 2 0;
#X connect 31 0 32 0;
#X connect 32 0 33 0;
#X connect 33 0 39 0;
#X connect 35 0 31 0;
#X connect 35 1 31 2;
#X connect 36 0 31 0;
#X connect 36 1 31 3;
#X connect 37 0 40 0;
#X connect 38 0 37 0;
#X connect 39 0 27 0;
#X connect 39 1 28 0;
#X connect 40 0 3 0;
#X connect 40 0 6 0;
#X connect 41 0 39 0;
#X connect 43 0 35 0;
#X connect 43 0 18 0;
#X connect 44 0 31 0;
#X connect 44 0 19 0;
