#N canvas 311 50 1029 576 12;
#X obj 47 182 inlet~;
#X obj 126 24 inlet;
#X obj 126 60 route threshold sensitivity lockout, f 56;
#X msg 126 126 floor \$1;
#X obj 126 93 clip -120 0;
#X msg 254 166 offthreshold \$1;
#X msg 468 164 onthreshold \$1;
#X obj 593 92 clip 0 1000;
#X msg 551 476 1;
#X msg 730 475 0;
#X obj 596 348 pack f 0 f f;
#X obj 596 381 list prepend set;
#X obj 596 411 route list;
#X obj 551 509 outlet;
#X obj 618 314 t b f;
#X obj 667 315 t b f;
#X msg 593 161 minslicelength \$1;
#X obj 593 123 * 44.1;
#X obj 126 334 threshold~ 0.1 0 0.1 0;
#X obj 126 374 outlet;
#X obj 255 92 moses 50 100;
#N canvas 340 115 1114 575 m_scale 0;
#X obj 197 85 inlet;
#X obj 247 85 inlet;
#X obj 317 85 inlet;
#X obj 367 85 inlet;
#X obj 111 54 inlet;
#X obj 111 466 outlet;
#X text 174 54 scale [from_low \, from_hi] to [to_low \, to_hi];
#X obj 416 126 t b b b b;
#X obj 416 84 loadbang;
#X obj 111 433 +;
#X text 229 297 inh-inl;
#X text 354 286 outh-outl;
#X obj 111 396 *;
#X text 143 338 - inl;
#X text 143 434 + outl;
#X obj 247 237 t b a;
#X obj 367 225 t b a;
#X msg 425 105 bang;
#X obj 111 364 / 1;
#X obj 111 340 -;
#X obj 317 287 -;
#X obj 317 266 swap;
#X obj 197 271 swap;
#X obj 197 296 -;
#X obj 197 135 unpack 0 0 0 0;
#X obj 197 115 route list;
#X obj 197 174 f 0;
#X obj 317 172 f 4;
#X text 542 108 ARGS;
#X text 552 154 2: input_high_border;
#X text 552 180 3: output_low_border;
#X text 552 202 4: output_high_border;
#X text 553 229 5: mapping: float is a pow-exponent \, "dB" can be used to use a dB scaling (optional \, default is linear);
#X text 552 132 1: input_low_border or list of four values;
#N canvas 172 83 586 377 LICENSE-GPL 0;
#X text 57 88 This program is free software: you can redistribute it and/or modify it under the terms of the GNU General Public License as published by the Free Software Foundation \, either version 3 of the License \, or (at your option) any later version.;
#X text 58 168 This program is distributed in the hope that it will be useful \, but WITHOUT ANY WARRANTY \; without even the implied warranty of MERCHANTABILITY or FITNESS FOR A PARTICULAR PURPOSE. See the GNU General Public License for more details.;
#X text 57 261 You should have received a copy of the GNU General Public License along with this program. If not \, see <http://www.gnu.org/licenses/>.;
#X text 61 54 Copyright (C) 2009 \, Reality Jockey Ltd.;
#X text 60 325 See the file LICENSE.txt for the full license text.;
#X restore 665 88 pd LICENSE-GPL;
#X obj 247 172 f 50;
#X obj 369 171 f 8;
#X connect 0 0 25 0;
#X connect 1 0 35 0;
#X connect 2 0 27 0;
#X connect 3 0 36 0;
#X connect 4 0 19 0;
#X connect 7 0 26 0;
#X connect 7 1 35 0;
#X connect 7 2 27 0;
#X connect 7 3 36 0;
#X connect 8 0 7 0;
#X connect 9 0 5 0;
#X connect 12 0 9 0;
#X connect 15 0 22 0;
#X connect 15 1 22 1;
#X connect 16 0 21 0;
#X connect 16 1 21 1;
#X connect 17 0 7 0;
#X connect 18 0 12 0;
#X connect 19 0 18 0;
#X connect 20 0 12 1;
#X connect 21 0 20 0;
#X connect 21 1 20 1;
#X connect 22 0 23 0;
#X connect 22 1 23 1;
#X connect 23 0 18 1;
#X connect 24 0 26 0;
#X connect 24 1 35 0;
#X connect 24 2 27 0;
#X connect 24 3 36 0;
#X connect 25 0 24 0;
#X connect 25 1 26 0;
#X connect 26 0 19 1;
#X connect 26 0 22 0;
#X connect 27 0 9 1;
#X connect 27 0 21 0;
#X connect 35 0 15 0;
#X connect 36 0 16 0;
#X restore 254 131 pd m_scale;
#N canvas 309 82 1080 602 m_scale 0;
#X obj 197 85 inlet;
#X obj 247 85 inlet;
#X obj 317 85 inlet;
#X obj 367 85 inlet;
#X obj 111 54 inlet;
#X obj 111 466 outlet;
#X text 174 54 scale [from_low \, from_hi] to [to_low \, to_hi];
#X obj 416 126 t b b b b;
#X obj 416 84 loadbang;
#X obj 111 433 +;
#X text 229 297 inh-inl;
#X text 354 286 outh-outl;
#X obj 111 396 *;
#X text 143 338 - inl;
#X text 143 434 + outl;
#X obj 247 237 t b a;
#X obj 367 225 t b a;
#X msg 425 105 bang;
#X obj 111 364 / 1;
#X obj 111 340 -;
#X obj 317 287 -;
#X obj 317 266 swap;
#X obj 197 271 swap;
#X obj 197 296 -;
#X obj 197 135 unpack 0 0 0 0;
#X obj 197 115 route list;
#X obj 197 174 f 0;
#X text 552 57 ARGS;
#X text 562 103 2: input_high_border;
#X text 562 129 3: output_low_border;
#X text 562 151 4: output_high_border;
#X text 563 178 5: mapping: float is a pow-exponent \, "dB" can be used to use a dB scaling (optional \, default is linear);
#X text 562 81 1: input_low_border or list of four values;
#N canvas 172 83 586 377 LICENSE-GPL 0;
#X text 57 88 This program is free software: you can redistribute it and/or modify it under the terms of the GNU General Public License as published by the Free Software Foundation \, either version 3 of the License \, or (at your option) any later version.;
#X text 58 168 This program is distributed in the hope that it will be useful \, but WITHOUT ANY WARRANTY \; without even the implied warranty of MERCHANTABILITY or FITNESS FOR A PARTICULAR PURPOSE. See the GNU General Public License for more details.;
#X text 57 261 You should have received a copy of the GNU General Public License along with this program. If not \, see <http://www.gnu.org/licenses/>.;
#X text 61 54 Copyright (C) 2009 \, Reality Jockey Ltd.;
#X text 60 325 See the file LICENSE.txt for the full license text.;
#X restore 675 37 pd LICENSE-GPL;
#X obj 247 172 f 50;
#X obj 317 172 f 34;
#X obj 369 171 f 19;
#X connect 0 0 25 0;
#X connect 1 0 34 0;
#X connect 2 0 35 0;
#X connect 3 0 36 0;
#X connect 4 0 19 0;
#X connect 7 0 26 0;
#X connect 7 1 34 0;
#X connect 7 2 35 0;
#X connect 7 3 36 0;
#X connect 8 0 7 0;
#X connect 9 0 5 0;
#X connect 12 0 9 0;
#X connect 15 0 22 0;
#X connect 15 1 22 1;
#X connect 16 0 21 0;
#X connect 16 1 21 1;
#X connect 17 0 7 0;
#X connect 18 0 12 0;
#X connect 19 0 18 0;
#X connect 20 0 12 1;
#X connect 21 0 20 0;
#X connect 21 1 20 1;
#X connect 22 0 23 0;
#X connect 22 1 23 1;
#X connect 23 0 18 1;
#X connect 24 0 26 0;
#X connect 24 1 34 0;
#X connect 24 2 35 0;
#X connect 24 3 36 0;
#X connect 25 0 24 0;
#X connect 25 1 26 0;
#X connect 26 0 19 1;
#X connect 26 0 22 0;
#X connect 34 0 15 0;
#X connect 35 0 9 1;
#X connect 35 0 21 0;
#X connect 36 0 16 0;
#X restore 333 131 pd m_scale;
#N canvas 347 84 1114 575 m_scale 0;
#X obj 197 85 inlet;
#X obj 247 85 inlet;
#X obj 317 85 inlet;
#X obj 367 85 inlet;
#X obj 111 54 inlet;
#X obj 111 466 outlet;
#X text 174 54 scale [from_low \, from_hi] to [to_low \, to_hi];
#X obj 416 126 t b b b b;
#X obj 416 84 loadbang;
#X obj 111 433 +;
#X text 229 297 inh-inl;
#X text 354 286 outh-outl;
#X obj 111 396 *;
#X text 143 338 - inl;
#X text 143 434 + outl;
#X obj 247 237 t b a;
#X obj 367 225 t b a;
#X msg 425 105 bang;
#X obj 111 364 / 1;
#X obj 111 340 -;
#X obj 317 287 -;
#X obj 317 266 swap;
#X obj 197 271 swap;
#X obj 197 296 -;
#X obj 197 135 unpack 0 0 0 0;
#X obj 197 115 route list;
#X obj 247 172 f 100;
#X text 542 108 ARGS;
#X text 552 154 2: input_high_border;
#X text 552 180 3: output_low_border;
#X text 552 202 4: output_high_border;
#X text 553 229 5: mapping: float is a pow-exponent \, "dB" can be used to use a dB scaling (optional \, default is linear);
#X text 552 132 1: input_low_border or list of four values;
#N canvas 172 83 586 377 LICENSE-GPL 0;
#X text 57 88 This program is free software: you can redistribute it and/or modify it under the terms of the GNU General Public License as published by the Free Software Foundation \, either version 3 of the License \, or (at your option) any later version.;
#X text 58 168 This program is distributed in the hope that it will be useful \, but WITHOUT ANY WARRANTY \; without even the implied warranty of MERCHANTABILITY or FITNESS FOR A PARTICULAR PURPOSE. See the GNU General Public License for more details.;
#X text 57 261 You should have received a copy of the GNU General Public License along with this program. If not \, see <http://www.gnu.org/licenses/>.;
#X text 61 54 Copyright (C) 2009 \, Reality Jockey Ltd.;
#X text 60 325 See the file LICENSE.txt for the full license text.;
#X restore 665 88 pd LICENSE-GPL;
#X obj 197 174 f 50;
#X obj 317 172 f 8;
#X obj 369 171 f 10;
#X connect 0 0 25 0;
#X connect 1 0 26 0;
#X connect 2 0 35 0;
#X connect 3 0 36 0;
#X connect 4 0 19 0;
#X connect 7 0 34 0;
#X connect 7 1 26 0;
#X connect 7 2 35 0;
#X connect 7 3 36 0;
#X connect 8 0 7 0;
#X connect 9 0 5 0;
#X connect 12 0 9 0;
#X connect 15 0 22 0;
#X connect 15 1 22 1;
#X connect 16 0 21 0;
#X connect 16 1 21 1;
#X connect 17 0 7 0;
#X connect 18 0 12 0;
#X connect 19 0 18 0;
#X connect 20 0 12 1;
#X connect 21 0 20 0;
#X connect 21 1 20 1;
#X connect 22 0 23 0;
#X connect 22 1 23 1;
#X connect 23 0 18 1;
#X connect 24 0 34 0;
#X connect 24 1 26 0;
#X connect 24 2 35 0;
#X connect 24 3 36 0;
#X connect 25 0 24 0;
#X connect 25 1 34 0;
#X connect 26 0 15 0;
#X connect 34 0 19 1;
#X connect 34 0 22 0;
#X connect 35 0 9 1;
#X connect 35 0 21 0;
#X connect 36 0 16 0;
#X restore 413 130 pd m_scale;
#N canvas 389 51 1080 602 m_scale 0;
#X obj 197 85 inlet;
#X obj 247 85 inlet;
#X obj 317 85 inlet;
#X obj 367 85 inlet;
#X obj 111 54 inlet;
#X obj 111 466 outlet;
#X text 174 54 scale [from_low \, from_hi] to [to_low \, to_hi];
#X obj 416 126 t b b b b;
#X obj 416 84 loadbang;
#X obj 111 433 +;
#X text 229 297 inh-inl;
#X text 354 286 outh-outl;
#X obj 111 396 *;
#X text 143 338 - inl;
#X text 143 434 + outl;
#X obj 247 237 t b a;
#X obj 367 225 t b a;
#X msg 425 105 bang;
#X obj 111 364 / 1;
#X obj 111 340 -;
#X obj 317 287 -;
#X obj 317 266 swap;
#X obj 197 271 swap;
#X obj 197 296 -;
#X obj 197 135 unpack 0 0 0 0;
#X obj 197 115 route list;
#X obj 247 172 f 100;
#X text 552 57 ARGS;
#X text 562 103 2: input_high_border;
#X text 562 129 3: output_low_border;
#X text 562 151 4: output_high_border;
#X text 563 178 5: mapping: float is a pow-exponent \, "dB" can be used to use a dB scaling (optional \, default is linear);
#X text 562 81 1: input_low_border or list of four values;
#N canvas 172 83 586 377 LICENSE-GPL 0;
#X text 57 88 This program is free software: you can redistribute it and/or modify it under the terms of the GNU General Public License as published by the Free Software Foundation \, either version 3 of the License \, or (at your option) any later version.;
#X text 58 168 This program is distributed in the hope that it will be useful \, but WITHOUT ANY WARRANTY \; without even the implied warranty of MERCHANTABILITY or FITNESS FOR A PARTICULAR PURPOSE. See the GNU General Public License for more details.;
#X text 57 261 You should have received a copy of the GNU General Public License along with this program. If not \, see <http://www.gnu.org/licenses/>.;
#X text 61 54 Copyright (C) 2009 \, Reality Jockey Ltd.;
#X text 60 325 See the file LICENSE.txt for the full license text.;
#X restore 675 37 pd LICENSE-GPL;
#X obj 197 174 f 50;
#X obj 317 172 f 19;
#X obj 369 171 f 15;
#X connect 0 0 25 0;
#X connect 1 0 26 0;
#X connect 2 0 35 0;
#X connect 3 0 36 0;
#X connect 4 0 19 0;
#X connect 7 0 34 0;
#X connect 7 1 26 0;
#X connect 7 2 35 0;
#X connect 7 3 36 0;
#X connect 8 0 7 0;
#X connect 9 0 5 0;
#X connect 12 0 9 0;
#X connect 15 0 22 0;
#X connect 15 1 22 1;
#X connect 16 0 21 0;
#X connect 16 1 21 1;
#X connect 17 0 7 0;
#X connect 18 0 12 0;
#X connect 19 0 18 0;
#X connect 20 0 12 1;
#X connect 21 0 20 0;
#X connect 21 1 20 1;
#X connect 22 0 23 0;
#X connect 22 1 23 1;
#X connect 23 0 18 1;
#X connect 24 0 34 0;
#X connect 24 1 26 0;
#X connect 24 2 35 0;
#X connect 24 3 36 0;
#X connect 25 0 24 0;
#X connect 25 1 34 0;
#X connect 26 0 15 0;
#X connect 34 0 19 1;
#X connect 34 0 22 0;
#X connect 35 0 9 1;
#X connect 35 0 21 0;
#X connect 36 0 16 0;
#X restore 494 130 pd m_scale;
#X obj 551 267 fluid.ampfeature~ -highpassfreq 2000 -floor -55 -fastrampup 3 -fastrampdown 383 -slowrampup 2205 -slowrampdown 2205;
#X obj 126 268 fluid.ampslice~ -highpassfreq 2000 -floor -55 -fastrampup 3 -fastrampdown 383 -slowrampup 2205 -slowrampdown 2205 -minslicelength 1323 -onthreshold 19 -offthreshold 8;
#X obj 551 445 threshold~ 19 0 8 30, f 26;
#X connect 0 0 25 0;
#X connect 0 0 26 0;
#X connect 1 0 2 0;
#X connect 2 0 4 0;
#X connect 2 1 20 0;
#X connect 2 2 7 0;
#X connect 3 0 25 0;
#X connect 3 0 26 0;
#X connect 4 0 3 0;
#X connect 5 0 26 0;
#X connect 6 0 26 0;
#X connect 7 0 15 0;
#X connect 7 0 17 0;
#X connect 8 0 13 0;
#X connect 9 0 13 0;
#X connect 10 0 11 0;
#X connect 11 0 12 0;
#X connect 12 0 27 0;
#X connect 14 0 10 0;
#X connect 14 1 10 2;
#X connect 15 0 10 0;
#X connect 15 1 10 3;
#X connect 16 0 26 0;
#X connect 17 0 16 0;
#X connect 18 0 19 0;
#X connect 20 0 21 0;
#X connect 20 0 22 0;
#X connect 20 1 23 0;
#X connect 20 1 24 0;
#X connect 21 0 5 0;
#X connect 21 0 14 0;
#X connect 22 0 6 0;
#X connect 22 0 10 0;
#X connect 23 0 5 0;
#X connect 23 0 14 0;
#X connect 24 0 6 0;
#X connect 24 0 10 0;
#X connect 25 0 27 0;
#X connect 26 0 18 0;
#X connect 27 0 8 0;
#X connect 27 1 9 0;
