#N canvas 575 102 1048 573 12;
#X text 26 22 [sp.onsetframe~];
#X text 29 47 Amplitude-based onset detection and buffer recording onset detection, f 70;
#X text 29 75 sp.onsetframe~ takes audio input \, just like sp.onset~ but instead of outputting just a bang/gate \, it outputs the frame to start descriptor analysis. sp.onsetframe~ is useful when you want to analyze multiple descriptors and want them to all refer to the same exact analysis frame.;
#X obj 43 255 readsf~;
#X msg 60 216 0;
#X obj 52 293 dac~;
#X obj 43 324 sp.onsetframe~;
#X floatatom 138 258 5 0 100 0 - - - 0;
#X msg 138 292 sensitivity \$1;
#X listbox 150 325 18 0 0 0 - - - 0;
#X obj 43 358 sp.descriptorframe;
#X msg 43 177 open media/Constanzo-PreparedSnare-M.wav \, 1;
#X obj 43 398 unpack f f f f f f f f, f 45;
#X floatatom 43 433 5 0 0 0 - - - 0;
#X floatatom 87 434 5 0 0 0 - - - 0;
#X floatatom 132 434 5 0 0 0 - - - 0;
#X floatatom 176 434 5 0 0 0 - - - 0;
#X floatatom 221 434 5 0 0 0 - - - 0;
#X floatatom 265 434 5 0 0 0 - - - 0;
#X floatatom 310 434 5 0 0 0 - - - 0;
#X floatatom 355 433 5 0 0 0 - - - 0;
#X text 55 457 loudness;
#X text 143 457 centroid;
#X text 231 456 flatness;
#X text 331 454 pitch;
#X obj 414 358 sp.mfccframe, f 20;
#X listbox 414 398 18 0 0 0 - - - 0;
#X listbox 551 398 18 0 0 0 - - - 0;
#X listbox 688 397 18 0 0 0 - - - 0;
#X listbox 825 397 18 0 0 0 - - - 0;
#X obj 688 357 sp.melbandframe, f 20;
#X connect 3 0 5 0;
#X connect 3 0 5 1;
#X connect 3 0 6 0;
#X connect 4 0 3 0;
#X connect 6 0 9 0;
#X connect 6 0 10 0;
#X connect 6 0 25 0;
#X connect 6 0 30 0;
#X connect 7 0 8 0;
#X connect 8 0 6 1;
#X connect 10 0 12 0;
#X connect 11 0 3 0;
#X connect 12 0 13 0;
#X connect 12 1 14 0;
#X connect 12 2 15 0;
#X connect 12 3 16 0;
#X connect 12 4 17 0;
#X connect 12 5 18 0;
#X connect 12 6 19 0;
#X connect 12 7 20 0;
#X connect 25 0 26 0;
#X connect 25 1 27 0;
#X connect 30 0 28 0;
#X connect 30 1 29 0;
