#N canvas 832 767 550 503 12;
#X obj 36 274 readsf~;
#X msg 53 235 0;
#X obj 73 315 dac~;
#X msg 36 194 open media/Constanzo-PreparedSnare-M.wav \, 1;
#X obj 36 349 sp.onset~;
#X obj 96 382 tgl 19 0 empty empty empty 0 -10 0 12 #fcfcfc #000000 #000000 0 1;
#X obj 36 382 bng 19 250 50 0 empty empty empty 0 -10 0 12 #fcfcfc #000000 #000000;
#X text 28 46 Amplitude-based onset detection;
#X text 26 22 [sp.onset~];
#X text 28 72 sp.onset~ takes audio input and outputs a bang \, trigger \, and a gate when an onset is detected. The sensitivity is adjustable (0-100%) and a threshold can be set as an absolute noise floor (in dB).;
#X floatatom 131 283 5 0 100 0 - - - 0;
#X msg 131 317 sensitivity \$1;
#X connect 0 0 2 0;
#X connect 0 0 2 1;
#X connect 0 0 4 0;
#X connect 1 0 0 0;
#X connect 3 0 0 0;
#X connect 4 0 6 0;
#X connect 4 1 5 0;
#X connect 10 0 11 0;
#X connect 11 0 4 1;
