#N canvas 700 136 1021 573 12;
#X obj 43 255 readsf~;
#X msg 60 216 0;
#X obj 52 293 dac~;
#X floatatom 159 258 5 0 100 0 - - - 0;
#X listbox 171 324 18 0 0 0 - - - 0;
#X obj 43 358 sp.descriptorframe;
#X msg 43 177 open media/Constanzo-PreparedSnare-M.wav \, 1;
#X obj 43 398 unpack f f f f f f f f, f 45;
#X floatatom 43 433 5 0 0 0 - - - 0;
#X floatatom 87 434 5 0 0 0 - - - 0;
#X floatatom 132 434 5 0 0 0 - - - 0;
#X floatatom 176 434 5 0 0 0 - - - 0;
#X floatatom 221 434 5 0 0 0 - - - 0;
#X floatatom 265 434 5 0 0 0 - - - 0;
#X floatatom 310 434 5 0 0 0 - - - 0;
#X floatatom 355 433 5 0 0 0 - - - 0;
#X text 55 457 loudness;
#X text 143 457 centroid;
#X text 231 456 flatness;
#X text 331 454 pitch;
#X text 29 75 sp.realtimeframe~ is the counterpart to sp.onsetframe~ where instead of outputting the frame to analyzed based on onset detection \, sp.realtimeframe~ spits out a constant stream of frame values to analyze enabling realtime analysis of multiple descriptor types that remain in sync.;
#X text 26 22 [sp.realtimeframe~];
#X text 29 47 Buffer recording and clock output, f 70;
#X obj 43 324 sp.realtimeframe~;
#X obj 410 359 sp.mfccframe, f 20;
#X listbox 410 397 18 0 0 0 - - - 0;
#X msg 159 292 rate \$1;
#X listbox 547 397 18 0 0 0 - - - 0;
#X listbox 684 396 18 0 0 0 - - - 0;
#X listbox 821 396 18 0 0 0 - - - 0;
#X obj 684 358 sp.melbandframe, f 20;
#X connect 0 0 2 0;
#X connect 0 0 2 1;
#X connect 0 0 23 0;
#X connect 1 0 0 0;
#X connect 3 0 26 0;
#X connect 5 0 7 0;
#X connect 6 0 0 0;
#X connect 7 0 8 0;
#X connect 7 1 9 0;
#X connect 7 2 10 0;
#X connect 7 3 11 0;
#X connect 7 4 12 0;
#X connect 7 5 13 0;
#X connect 7 6 14 0;
#X connect 7 7 15 0;
#X connect 23 0 4 0;
#X connect 23 0 5 0;
#X connect 23 0 24 0;
#X connect 23 0 30 0;
#X connect 24 0 25 0;
#X connect 24 1 27 0;
#X connect 26 0 23 1;
#X connect 30 0 28 0;
#X connect 30 1 29 0;
