#N canvas 457 187 841 371 12;
#X floatatom 87 248 5 0 0 0 - - - 0;
#X obj 37 213 snapshot~;
#X obj 37 64 fexpr~ 1 + ($y1[-1] % 22050);
#X obj 37 320 outlet;
#X obj 244 30 inlet~;
#X obj 244 64 biquad~ 1.43693 -0.89867 1.25333 -1.43693 0.645343;
#X obj 706 33 inlet;
#X text 251 100 **;
#X text 355 247 **coefficient order is diff from Max see this thread: https://cycling74.com/forums/converting-pure-data-biquad-coefficients, f 35;
#X obj 132 248 symbol \$0-audioin;
#X obj 356 220 array define \$0-audioin 44100;
#X obj 57 133 fexpr~ $s3[$x1[0]] = $x2[0] \; $s3[$x1[0]+22050] = $x2[0];
#X obj 132 213 loadbang;
#X obj 37 283 pack f s, f 14;
#X text 299 93 this EQ is useful for Sensory Percussion pickups \, can remove biquad if not required, f 42;
#X obj 618 105 metro 5.80499;
#X obj 618 34 loadbang;
#X msg 618 70 1;
#X obj 706 69 route rate, f 11;
#X obj 37 249 - 256;
#X connect 1 0 19 0;
#X connect 2 0 11 0;
#X connect 2 0 1 0;
#X connect 4 0 5 0;
#X connect 5 0 11 1;
#X connect 6 0 18 0;
#X connect 9 0 11 2;
#X connect 9 0 13 1;
#X connect 12 0 9 0;
#X connect 13 0 3 0;
#X connect 15 0 1 0;
#X connect 16 0 17 0;
#X connect 17 0 15 0;
#X connect 18 0 15 1;
#X connect 18 0 19 1;
#X connect 19 0 0 0;
#X connect 19 0 13 0;
