#N canvas 832 767 538 552 12;
#X obj 46 219 readsf~;
#X msg 63 190 0;
#X obj 78 265 dac~;
#X floatatom 141 232 5 0 100 0 - - - 0;
#X msg 141 266 sensitivity \$1;
#X msg 46 151 open media/Constanzo-PreparedSnare-M.wav \, 1;
#X text 26 22 [sp.speed];
#X text 29 47 Extract timing and speed parameters from onsets, f 70;
#X text 29 75 sp.speed works in conjunction with sp.onset~ to create several parameters based on the time between attacks.;
#X obj 46 363 sp.speed;
#X floatatom 46 431 5 0 0 0 - - - 0;
#X floatatom 90 431 5 0 0 0 - - - 0;
#X floatatom 135 431 5 0 0 0 - - - 0;
#X floatatom 180 431 5 0 0 0 - - - 0;
#X floatatom 225 431 5 0 0 0 - - - 0;
#X obj 46 396 unpack f f f f f, f 26;
#X text 46 452 speed;
#X text 88 452 tempo;
#X text 134 452 slope;
#X text 181 452 vari;
#X text 221 452 direct;
#X obj 46 294 sp.onset~;
#X obj 106 327 tgl 19 0 empty empty empty 0 -10 0 12 #fcfcfc #000000 #000000 0 1;
#X obj 46 327 bng 19 250 50 0 empty empty empty 0 -10 0 12 #fcfcfc #000000 #000000;
#X connect 0 0 21 0;
#X connect 0 0 2 0;
#X connect 0 0 2 1;
#X connect 1 0 0 0;
#X connect 3 0 4 0;
#X connect 4 0 21 1;
#X connect 5 0 0 0;
#X connect 9 0 15 0;
#X connect 15 0 10 0;
#X connect 15 1 11 0;
#X connect 15 2 12 0;
#X connect 15 3 13 0;
#X connect 15 4 14 0;
#X connect 21 0 23 0;
#X connect 21 1 22 0;
#X connect 23 0 9 0;
