{
	"patcher" : 	{
		"fileversion" : 1,
		"appversion" : 		{
			"major" : 8,
			"minor" : 6,
			"revision" : 0,
			"architecture" : "x64",
			"modernui" : 1
		}
,
		"classnamespace" : "box",
		"rect" : [ 59.0, 106.0, 1343.0, 643.0 ],
		"bglocked" : 0,
		"openinpresentation" : 0,
		"default_fontsize" : 12.0,
		"default_fontface" : 0,
		"default_fontname" : "Arial",
		"gridonopen" : 1,
		"gridsize" : [ 15.0, 15.0 ],
		"gridsnaponopen" : 1,
		"objectsnaponopen" : 1,
		"statusbarvisible" : 2,
		"toolbarvisible" : 1,
		"lefttoolbarpinned" : 0,
		"toptoolbarpinned" : 0,
		"righttoolbarpinned" : 0,
		"bottomtoolbarpinned" : 0,
		"toolbars_unpinned_last_save" : 0,
		"tallnewobj" : 0,
		"boxanimatetime" : 200,
		"enablehscroll" : 1,
		"enablevscroll" : 1,
		"devicewidth" : 0.0,
		"description" : "",
		"digest" : "",
		"tags" : "",
		"style" : "",
		"subpatcher_template" : "",
		"assistshowspatchername" : 0,
		"boxes" : [ 			{
				"box" : 				{
					"bubble" : 1,
					"bubbleside" : 3,
					"fontname" : "Arial",
					"fontsize" : 13.0,
					"id" : "obj-3",
					"linecount" : 2,
					"maxclass" : "comment",
					"numinlets" : 1,
					"numoutlets" : 0,
					"patching_rect" : [ 175.631155714285342, 443.0, 97.368844285714658, 40.0 ],
					"text" : "browse each cluster",
					"textcolor" : [ 0.426676, 0.426663, 0.42667, 1.0 ]
				}

			}
, 			{
				"box" : 				{
					"bubble" : 1,
					"bubblepoint" : 1.0,
					"fontname" : "Arial",
					"fontsize" : 13.0,
					"id" : "obj-151",
					"linecount" : 2,
					"maxclass" : "comment",
					"numinlets" : 1,
					"numoutlets" : 0,
					"patching_rect" : [ 617.5597271428569, 70.162466977060262, 120.0, 40.0 ],
					"text" : "using the typing keyboard"
				}

			}
, 			{
				"box" : 				{
					"bubble" : 1,
					"fontname" : "Arial",
					"fontsize" : 13.0,
					"id" : "obj-149",
					"linecount" : 2,
					"maxclass" : "comment",
					"numinlets" : 1,
					"numoutlets" : 0,
					"patching_rect" : [ 1158.601292142856892, 413.643752762731083, 102.0, 40.0 ],
					"text" : "enable a drum pattern"
				}

			}
, 			{
				"box" : 				{
					"fontname" : "Arial",
					"fontsize" : 13.0,
					"id" : "obj-143",
					"maxclass" : "comment",
					"numinlets" : 1,
					"numoutlets" : 0,
					"patching_rect" : [ 216.0, 156.016393442622984, 41.0, 21.0 ],
					"text" : "hat",
					"textcolor" : [ 0.426676, 0.426663, 0.42667, 1.0 ]
				}

			}
, 			{
				"box" : 				{
					"fontname" : "Arial",
					"fontsize" : 13.0,
					"id" : "obj-142",
					"maxclass" : "comment",
					"numinlets" : 1,
					"numoutlets" : 0,
					"patching_rect" : [ 138.131155714285342, 156.016393442622984, 41.0, 21.0 ],
					"text" : "snare",
					"textcolor" : [ 0.426676, 0.426663, 0.42667, 1.0 ]
				}

			}
, 			{
				"box" : 				{
					"fontname" : "Arial",
					"fontsize" : 13.0,
					"id" : "obj-141",
					"maxclass" : "comment",
					"numinlets" : 1,
					"numoutlets" : 0,
					"patching_rect" : [ 58.631155714285342, 156.016393442622984, 31.0, 21.0 ],
					"text" : "kick",
					"textcolor" : [ 0.426676, 0.426663, 0.42667, 1.0 ]
				}

			}
, 			{
				"box" : 				{
					"activebgcolor" : [ 0.647058823529412, 0.647058823529412, 0.647058823529412, 0.5 ],
					"activebgoncolor" : [ 0.647058823529412, 0.647058823529412, 0.647058823529412, 0.5 ],
					"bgcolor" : [ 0.647058823529412, 0.647058823529412, 0.647058823529412, 0.5 ],
					"bgoncolor" : [ 0.647058823529412, 0.647058823529412, 0.647058823529412, 0.5 ],
					"bordercolor" : [ 0.647058823529412, 0.647058823529412, 0.647058823529412, 0.6 ],
					"focusbordercolor" : [ 0.647058823529412, 0.647058823529412, 0.647058823529412, 0.6 ],
					"fontsize" : 15.0,
					"id" : "obj-136",
					"ignoreclick" : 1,
					"inactivetextoffcolor" : [ 0.0, 0.0, 0.0, 0.5 ],
					"inactivetextoncolor" : [ 0.0, 0.0, 0.0, 0.5 ],
					"maxclass" : "live.tab",
					"multiline" : 0,
					"num_lines_patching" : 1,
					"num_lines_presentation" : 0,
					"numinlets" : 1,
					"numoutlets" : 3,
					"outlettype" : [ "", "", "float" ],
					"parameter_enable" : 1,
					"patching_rect" : [ 95.5597271428569, 178.720822325686697, 623.0, 47.0 ],
					"rounded" : 10.0,
					"saved_attribute_attributes" : 					{
						"activebgcolor" : 						{
							"expression" : ""
						}
,
						"activebgoncolor" : 						{
							"expression" : ""
						}
,
						"bgcolor" : 						{
							"expression" : ""
						}
,
						"bgoncolor" : 						{
							"expression" : ""
						}
,
						"bordercolor" : 						{
							"expression" : ""
						}
,
						"focusbordercolor" : 						{
							"expression" : ""
						}
,
						"inactivetextoffcolor" : 						{
							"expression" : ""
						}
,
						"inactivetextoncolor" : 						{
							"expression" : ""
						}
,
						"textcolor" : 						{
							"expression" : ""
						}
,
						"textoncolor" : 						{
							"expression" : ""
						}
,
						"valueof" : 						{
							"parameter_enum" : [ "Q", "W", "E", "R", "T", "Y", "U", "I" ],
							"parameter_longname" : "live.tab[25]",
							"parameter_mmax" : 7,
							"parameter_shortname" : "live.tab",
							"parameter_type" : 2,
							"parameter_unitstyle" : 9
						}

					}
,
					"textcolor" : [ 0.0, 0.0, 0.0, 0.5 ],
					"textoncolor" : [ 0.0, 0.0, 0.0, 0.5 ],
					"varname" : "live.tab[3]"
				}

			}
, 			{
				"box" : 				{
					"activebgcolor" : [ 0.647059, 0.647059, 0.647059, 1.0 ],
					"activebgoncolor" : [ 0.647059, 0.647059, 0.647059, 1.0 ],
					"bgcolor" : [ 0.647058823529412, 0.647058823529412, 0.647058823529412, 0.0 ],
					"bgoncolor" : [ 0.647058823529412, 0.647058823529412, 0.647058823529412, 0.0 ],
					"focusbordercolor" : [ 0.313725490196078, 0.313725490196078, 0.313725490196078, 0.0 ],
					"fontsize" : 15.0,
					"id" : "obj-10",
					"inactivetextoffcolor" : [ 0.0, 0.0, 0.0, 1.0 ],
					"inactivetextoncolor" : [ 0.0, 0.0, 0.0, 1.0 ],
					"maxclass" : "live.tab",
					"multiline" : 0,
					"num_lines_patching" : 1,
					"num_lines_presentation" : 0,
					"numinlets" : 1,
					"numoutlets" : 3,
					"outlettype" : [ "", "", "float" ],
					"parameter_enable" : 1,
					"patching_rect" : [ 56.631155714285342, 130.610411162843377, 623.0, 47.0 ],
					"rounded" : 10.0,
					"saved_attribute_attributes" : 					{
						"activebgcolor" : 						{
							"expression" : ""
						}
,
						"activebgoncolor" : 						{
							"expression" : ""
						}
,
						"bgcolor" : 						{
							"expression" : ""
						}
,
						"bgoncolor" : 						{
							"expression" : ""
						}
,
						"bordercolor" : 						{
							"expression" : ""
						}
,
						"focusbordercolor" : 						{
							"expression" : ""
						}
,
						"inactivetextoffcolor" : 						{
							"expression" : ""
						}
,
						"inactivetextoncolor" : 						{
							"expression" : ""
						}
,
						"textcolor" : 						{
							"expression" : ""
						}
,
						"textoncolor" : 						{
							"expression" : ""
						}
,
						"valueof" : 						{
							"parameter_enum" : [ "1", "2", "3", "4", "5", "6", "7", "8" ],
							"parameter_longname" : "live.tab[26]",
							"parameter_mmax" : 7,
							"parameter_shortname" : "live.tab",
							"parameter_type" : 2,
							"parameter_unitstyle" : 9
						}

					}
,
					"varname" : "live.tab[4]"
				}

			}
, 			{
				"box" : 				{
					"activebgcolor" : [ 0.647059, 0.647059, 0.647059, 1.0 ],
					"activebgoncolor" : [ 0.647059, 0.647059, 0.647059, 1.0 ],
					"bgcolor" : [ 0.647058823529412, 0.647058823529412, 0.647058823529412, 0.0 ],
					"bgoncolor" : [ 0.647058823529412, 0.647058823529412, 0.647058823529412, 0.0 ],
					"focusbordercolor" : [ 0.313725490196078, 0.313725490196078, 0.313725490196078, 0.0 ],
					"fontsize" : 15.0,
					"id" : "obj-23",
					"inactivetextoffcolor" : [ 0.0, 0.0, 0.0, 1.0 ],
					"inactivetextoncolor" : [ 0.0, 0.0, 0.0, 1.0 ],
					"maxclass" : "live.tab",
					"multiline" : 0,
					"num_lines_patching" : 1,
					"num_lines_presentation" : 0,
					"numinlets" : 1,
					"numoutlets" : 3,
					"outlettype" : [ "", "", "float" ],
					"parameter_enable" : 1,
					"patching_rect" : [ 57.631155714285342, 131.610411162843377, 623.0, 47.0 ],
					"rounded" : 10.0,
					"saved_attribute_attributes" : 					{
						"activebgcolor" : 						{
							"expression" : ""
						}
,
						"activebgoncolor" : 						{
							"expression" : ""
						}
,
						"bgcolor" : 						{
							"expression" : ""
						}
,
						"bgoncolor" : 						{
							"expression" : ""
						}
,
						"bordercolor" : 						{
							"expression" : ""
						}
,
						"focusbordercolor" : 						{
							"expression" : ""
						}
,
						"inactivetextoffcolor" : 						{
							"expression" : ""
						}
,
						"inactivetextoncolor" : 						{
							"expression" : ""
						}
,
						"textcolor" : 						{
							"expression" : ""
						}
,
						"textoncolor" : 						{
							"expression" : ""
						}
,
						"valueof" : 						{
							"parameter_enum" : [ "1", "2", "3", "4", "5", "6", "7", "8" ],
							"parameter_longname" : "live.tab[27]",
							"parameter_mmax" : 7,
							"parameter_shortname" : "live.tab",
							"parameter_type" : 2,
							"parameter_unitstyle" : 9
						}

					}
,
					"varname" : "live.tab[6]"
				}

			}
, 			{
				"box" : 				{
					"angle" : 272.105514188856034,
					"bordercolor" : [ 0.270588235294118, 0.270588235294118, 0.270588235294118, 1.0 ],
					"grad1" : [ 0.380392156862745, 0.380392156862745, 0.380392156862745, 1.0 ],
					"grad2" : [ 0.872530043125153, 0.872530043125153, 0.872530162334442, 1.0 ],
					"id" : "obj-138",
					"maxclass" : "panel",
					"mode" : 1,
					"numinlets" : 1,
					"numoutlets" : 0,
					"patching_rect" : [ 45.5597271428569, 119.941644651373508, 692.0, 123.0 ],
					"proportion" : 0.448300283286119,
					"pt1" : [ 0.025252525252525, 0.035353535353535 ],
					"pt2" : [ 0.050505050505051, 0.722222222222222 ],
					"rounded" : 34
				}

			}
, 			{
				"box" : 				{
					"angle" : 272.105514188856034,
					"bordercolor" : [ 0.270588235294118, 0.270588235294118, 0.270588235294118, 1.0 ],
					"grad1" : [ 0.149019607843137, 0.149019607843137, 0.149019607843137, 1.0 ],
					"grad2" : [ 0.872530043125153, 0.872530043125153, 0.872530162334442, 1.0 ],
					"id" : "obj-139",
					"maxclass" : "panel",
					"mode" : 1,
					"numinlets" : 1,
					"numoutlets" : 0,
					"patching_rect" : [ 38.131155714285342, 112.162466977060262, 692.0, 123.0 ],
					"proportion" : 0.766103342152152,
					"pt1" : [ 0.025252525252525, 0.035353535353535 ],
					"pt2" : [ 0.050505050505051, 0.722222222222222 ],
					"rounded" : 45
				}

			}
, 			{
				"box" : 				{
					"hidden" : 1,
					"id" : "obj-4",
					"maxclass" : "newobj",
					"numinlets" : 1,
					"numoutlets" : 2,
					"outlettype" : [ "", "int" ],
					"patcher" : 					{
						"fileversion" : 1,
						"appversion" : 						{
							"major" : 8,
							"minor" : 6,
							"revision" : 0,
							"architecture" : "x64",
							"modernui" : 1
						}
,
						"classnamespace" : "box",
						"rect" : [ 59.0, 106.0, 680.0, 561.0 ],
						"bglocked" : 0,
						"openinpresentation" : 0,
						"default_fontsize" : 12.0,
						"default_fontface" : 0,
						"default_fontname" : "Arial",
						"gridonopen" : 1,
						"gridsize" : [ 15.0, 15.0 ],
						"gridsnaponopen" : 1,
						"objectsnaponopen" : 1,
						"statusbarvisible" : 2,
						"toolbarvisible" : 1,
						"lefttoolbarpinned" : 0,
						"toptoolbarpinned" : 0,
						"righttoolbarpinned" : 0,
						"bottomtoolbarpinned" : 0,
						"toolbars_unpinned_last_save" : 0,
						"tallnewobj" : 0,
						"boxanimatetime" : 200,
						"enablehscroll" : 1,
						"enablevscroll" : 1,
						"devicewidth" : 0.0,
						"description" : "",
						"digest" : "",
						"tags" : "",
						"style" : "",
						"subpatcher_template" : "",
						"assistshowspatchername" : 0,
						"boxes" : [ 							{
								"box" : 								{
									"id" : "obj-2",
									"maxclass" : "newobj",
									"numinlets" : 2,
									"numoutlets" : 1,
									"outlettype" : [ "int" ],
									"patching_rect" : [ 590.5, 447.165558643690474, 29.5, 22.0 ],
									"text" : "+ 1"
								}

							}
, 							{
								"box" : 								{
									"comment" : "",
									"id" : "obj-1",
									"index" : 2,
									"maxclass" : "outlet",
									"numinlets" : 1,
									"numoutlets" : 0,
									"patching_rect" : [ 590.5, 492.165587999999957, 30.0, 30.0 ]
								}

							}
, 							{
								"box" : 								{
									"id" : "obj-41",
									"maxclass" : "newobj",
									"numinlets" : 1,
									"numoutlets" : 2,
									"outlettype" : [ "bang", "" ],
									"patching_rect" : [ 45.0, 171.834441356308844, 564.5, 22.0 ],
									"text" : "t b l"
								}

							}
, 							{
								"box" : 								{
									"id" : "obj-66",
									"maxclass" : "newobj",
									"numinlets" : 6,
									"numoutlets" : 1,
									"outlettype" : [ "" ],
									"patching_rect" : [ 404.0, 305.668882712617801, 170.0, 22.0 ],
									"text" : "scale 0. 1. 0.196078 0.647059"
								}

							}
, 							{
								"box" : 								{
									"id" : "obj-65",
									"maxclass" : "newobj",
									"numinlets" : 6,
									"numoutlets" : 1,
									"outlettype" : [ "" ],
									"patching_rect" : [ 224.5, 305.668882712617801, 170.0, 22.0 ],
									"text" : "scale 0. 1. 0.709804 0.647059"
								}

							}
, 							{
								"box" : 								{
									"id" : "obj-64",
									"maxclass" : "newobj",
									"numinlets" : 3,
									"numoutlets" : 1,
									"outlettype" : [ "" ],
									"patching_rect" : [ 45.0, 352.834441356308616, 378.0, 22.0 ],
									"text" : "pack f f f"
								}

							}
, 							{
								"box" : 								{
									"id" : "obj-63",
									"maxclass" : "newobj",
									"numinlets" : 6,
									"numoutlets" : 1,
									"outlettype" : [ "" ],
									"patching_rect" : [ 45.0, 305.668882712617801, 130.0, 22.0 ],
									"text" : "scale 0. 1. 1. 0.647059"
								}

							}
, 							{
								"box" : 								{
									"id" : "obj-58",
									"maxclass" : "message",
									"numinlets" : 2,
									"numoutlets" : 1,
									"outlettype" : [ "" ],
									"patching_rect" : [ 45.0, 217.337765425235943, 52.0, 22.0 ],
									"text" : "0, 1 400"
								}

							}
, 							{
								"box" : 								{
									"id" : "obj-56",
									"maxclass" : "newobj",
									"numinlets" : 3,
									"numoutlets" : 2,
									"outlettype" : [ "", "bang" ],
									"patching_rect" : [ 45.0, 260.503324068926872, 41.0, 22.0 ],
									"text" : "line 0."
								}

							}
, 							{
								"box" : 								{
									"id" : "obj-55",
									"maxclass" : "newobj",
									"numinlets" : 1,
									"numoutlets" : 1,
									"outlettype" : [ "" ],
									"patching_rect" : [ 45.0, 399.999999999999545, 62.0, 22.0 ],
									"text" : "append 1."
								}

							}
, 							{
								"box" : 								{
									"id" : "obj-39",
									"maxclass" : "newobj",
									"numinlets" : 1,
									"numoutlets" : 1,
									"outlettype" : [ "" ],
									"patching_rect" : [ 45.0, 447.165558643690474, 140.0, 22.0 ],
									"text" : "prepend activebgoncolor"
								}

							}
, 							{
								"box" : 								{
									"fontname" : "Arial",
									"fontsize" : 12.0,
									"id" : "obj-25",
									"maxclass" : "newobj",
									"numinlets" : 2,
									"numoutlets" : 1,
									"outlettype" : [ "int" ],
									"patching_rect" : [ 105.0, 126.668882712617915, 32.5, 22.0 ],
									"text" : "- 49"
								}

							}
, 							{
								"box" : 								{
									"fontname" : "Arial",
									"fontsize" : 12.0,
									"id" : "obj-27",
									"maxclass" : "newobj",
									"numinlets" : 3,
									"numoutlets" : 2,
									"outlettype" : [ "int", "int" ],
									"patching_rect" : [ 105.0, 83.503324068926986, 65.0, 22.0 ],
									"text" : "split 49 56"
								}

							}
, 							{
								"box" : 								{
									"id" : "obj-23",
									"maxclass" : "newobj",
									"numinlets" : 0,
									"numoutlets" : 4,
									"outlettype" : [ "int", "int", "int", "int" ],
									"patching_rect" : [ 105.0, 38.0, 50.5, 22.0 ],
									"text" : "key"
								}

							}
, 							{
								"box" : 								{
									"comment" : "",
									"id" : "obj-54",
									"index" : 1,
									"maxclass" : "inlet",
									"numinlets" : 0,
									"numoutlets" : 1,
									"outlettype" : [ "" ],
									"patching_rect" : [ 45.0, 38.0, 30.0, 30.0 ]
								}

							}
, 							{
								"box" : 								{
									"comment" : "",
									"id" : "obj-57",
									"index" : 1,
									"maxclass" : "outlet",
									"numinlets" : 1,
									"numoutlets" : 0,
									"patching_rect" : [ 44.999982428571229, 492.165587999999957, 30.0, 30.0 ]
								}

							}
 ],
						"lines" : [ 							{
								"patchline" : 								{
									"destination" : [ "obj-1", 0 ],
									"source" : [ "obj-2", 0 ]
								}

							}
, 							{
								"patchline" : 								{
									"destination" : [ "obj-27", 0 ],
									"source" : [ "obj-23", 0 ]
								}

							}
, 							{
								"patchline" : 								{
									"destination" : [ "obj-41", 0 ],
									"midpoints" : [ 114.5, 159.751662034463379, 54.5, 159.751662034463379 ],
									"source" : [ "obj-25", 0 ]
								}

							}
, 							{
								"patchline" : 								{
									"destination" : [ "obj-25", 0 ],
									"source" : [ "obj-27", 0 ]
								}

							}
, 							{
								"patchline" : 								{
									"destination" : [ "obj-57", 0 ],
									"source" : [ "obj-39", 0 ]
								}

							}
, 							{
								"patchline" : 								{
									"destination" : [ "obj-2", 0 ],
									"order" : 0,
									"source" : [ "obj-41", 1 ]
								}

							}
, 							{
								"patchline" : 								{
									"destination" : [ "obj-57", 0 ],
									"midpoints" : [ 600.0, 478.500014678154457, 54.499982428571229, 478.500014678154457 ],
									"order" : 1,
									"source" : [ "obj-41", 1 ]
								}

							}
, 							{
								"patchline" : 								{
									"destination" : [ "obj-58", 0 ],
									"source" : [ "obj-41", 0 ]
								}

							}
, 							{
								"patchline" : 								{
									"destination" : [ "obj-41", 0 ],
									"source" : [ "obj-54", 0 ]
								}

							}
, 							{
								"patchline" : 								{
									"destination" : [ "obj-39", 0 ],
									"source" : [ "obj-55", 0 ]
								}

							}
, 							{
								"patchline" : 								{
									"destination" : [ "obj-63", 0 ],
									"order" : 2,
									"source" : [ "obj-56", 0 ]
								}

							}
, 							{
								"patchline" : 								{
									"destination" : [ "obj-65", 0 ],
									"midpoints" : [ 54.5, 294.586103390772223, 234.0, 294.586103390772223 ],
									"order" : 1,
									"source" : [ "obj-56", 0 ]
								}

							}
, 							{
								"patchline" : 								{
									"destination" : [ "obj-66", 0 ],
									"midpoints" : [ 54.5, 294.586103390772223, 413.5, 294.586103390772223 ],
									"order" : 0,
									"source" : [ "obj-56", 0 ]
								}

							}
, 							{
								"patchline" : 								{
									"destination" : [ "obj-56", 0 ],
									"source" : [ "obj-58", 0 ]
								}

							}
, 							{
								"patchline" : 								{
									"destination" : [ "obj-64", 0 ],
									"source" : [ "obj-63", 0 ]
								}

							}
, 							{
								"patchline" : 								{
									"destination" : [ "obj-55", 0 ],
									"source" : [ "obj-64", 0 ]
								}

							}
, 							{
								"patchline" : 								{
									"destination" : [ "obj-64", 1 ],
									"source" : [ "obj-65", 0 ]
								}

							}
, 							{
								"patchline" : 								{
									"destination" : [ "obj-64", 2 ],
									"source" : [ "obj-66", 0 ]
								}

							}
 ]
					}
,
					"patching_rect" : [ 57.631155714285342, 178.720822325686697, 95.0, 22.0 ],
					"saved_object_attributes" : 					{
						"description" : "",
						"digest" : "",
						"globalpatchername" : "",
						"tags" : ""
					}
,
					"text" : "p keyboardInput"
				}

			}
, 			{
				"box" : 				{
					"hidden" : 1,
					"id" : "obj-37",
					"maxclass" : "newobj",
					"numinlets" : 2,
					"numoutlets" : 1,
					"outlettype" : [ "" ],
					"patching_rect" : [ 107.631155714285342, 220.941644651373508, 45.0, 22.0 ],
					"text" : "gate"
				}

			}
, 			{
				"box" : 				{
					"hidden" : 1,
					"id" : "obj-31",
					"maxclass" : "newobj",
					"numinlets" : 1,
					"numoutlets" : 1,
					"outlettype" : [ "int" ],
					"patching_rect" : [ 64.52986357142845, 220.941644651373508, 40.0, 22.0 ],
					"text" : "active"
				}

			}
, 			{
				"box" : 				{
					"basictuning" : 440,
					"clipheight" : 89.0,
					"data" : 					{
						"clips" : [ 							{
								"absolutepath" : "Ferreira-BeatBoxing.wav",
								"filename" : "Ferreira-BeatBoxing.wav",
								"filekind" : "audiofile",
								"id" : "u982050058",
								"loop" : 1,
								"content_state" : 								{
									"loop" : 1
								}

							}
 ]
					}
,
					"followglobaltempo" : 0,
					"formantcorrection" : 0,
					"id" : "obj-131",
					"maxclass" : "playlist~",
					"mode" : "basic",
					"numinlets" : 1,
					"numoutlets" : 5,
					"originallength" : [ 0.0, "ticks" ],
					"originaltempo" : 120.0,
					"outlettype" : [ "signal", "signal", "signal", "", "dictionary" ],
					"parameter_enable" : 0,
					"patching_rect" : [ 775.666666666666629, 101.399999999999977, 511.0, 90.0 ],
					"pitchcorrection" : 0,
					"quality" : "basic",
					"timestretch" : [ 0 ]
				}

			}
, 			{
				"box" : 				{
					"id" : "obj-2",
					"maxclass" : "ezdac~",
					"numinlets" : 2,
					"numoutlets" : 0,
					"patching_rect" : [ 775.666666666666629, 213.399999999999977, 45.0, 45.0 ]
				}

			}
, 			{
				"box" : 				{
					"id" : "obj-12",
					"maxclass" : "newobj",
					"numinlets" : 2,
					"numoutlets" : 4,
					"outlettype" : [ "list", "", "signal", "signal" ],
					"patching_rect" : [ 898.666666666666629, 213.399999999999977, 116.0, 22.0 ],
					"text" : "sp.mfcc~ @floor -55"
				}

			}
, 			{
				"box" : 				{
					"id" : "obj-35",
					"maxclass" : "newobj",
					"numinlets" : 1,
					"numoutlets" : 3,
					"outlettype" : [ "float", "", "" ],
					"patching_rect" : [ 931.0, 257.0, 251.0, 22.0 ],
					"text" : "sp.classmatch beatboxtraining @output index"
				}

			}
, 			{
				"box" : 				{
					"activedialcolor" : [ 0.869617819786072, 0.873409450054169, 0.516549587249756, 1.0 ],
					"activefgdialcolor" : [ 0.324816644191742, 0.306101977825165, 0.25969871878624, 1.0 ],
					"activeneedlecolor" : [ 0.324816644191742, 0.306101977825165, 0.25969871878624, 1.0 ],
					"appearance" : 1,
					"bordercolor" : [ 0.313725490196078, 0.313725490196078, 0.313725490196078, 0.0 ],
					"dialcolor" : [ 0.869617819786072, 0.873409450054169, 0.516549587249756, 1.0 ],
					"fgdialcolor" : [ 0.324816644191742, 0.306101977825165, 0.25969871878624, 1.0 ],
					"focusbordercolor" : [ 0.313725490196078, 0.313725490196078, 0.313725490196078, 0.0 ],
					"id" : "obj-110",
					"maxclass" : "live.dial",
					"needlecolor" : [ 0.324816644191742, 0.306101977825165, 0.25969871878624, 1.0 ],
					"numinlets" : 1,
					"numoutlets" : 2,
					"outlettype" : [ "", "float" ],
					"parameter_enable" : 1,
					"patching_rect" : [ 1108.101292142856892, 365.456272036931978, 37.0, 36.0 ],
					"saved_attribute_attributes" : 					{
						"activedialcolor" : 						{
							"expression" : ""
						}
,
						"activefgdialcolor" : 						{
							"expression" : ""
						}
,
						"activeneedlecolor" : 						{
							"expression" : ""
						}
,
						"bordercolor" : 						{
							"expression" : ""
						}
,
						"dialcolor" : 						{
							"expression" : ""
						}
,
						"fgdialcolor" : 						{
							"expression" : ""
						}
,
						"focusbordercolor" : 						{
							"expression" : ""
						}
,
						"needlecolor" : 						{
							"expression" : ""
						}
,
						"textcolor" : 						{
							"expression" : ""
						}
,
						"tricolor" : 						{
							"expression" : ""
						}
,
						"valueof" : 						{
							"parameter_exponent" : 3.7,
							"parameter_initial" : [ 100 ],
							"parameter_initial_enable" : 1,
							"parameter_longname" : "live.dial",
							"parameter_mmax" : 240.0,
							"parameter_mmin" : 60.0,
							"parameter_shortname" : "BPM",
							"parameter_type" : 0,
							"parameter_unitstyle" : 0
						}

					}
,
					"tricolor" : [ 0.0, 0.0, 0.0, 1.0 ],
					"varname" : "live.dial"
				}

			}
, 			{
				"box" : 				{
					"autosize" : 1,
					"bgcolor" : [ 0.2, 0.2, 0.2, 0.0 ],
					"color" : [ 0.875907301902771, 0.0, 0.108862794935703, 1.0 ],
					"columns" : 16,
					"elementcolor" : [ 0.258823529411765, 0.258823529411765, 0.235294117647059, 1.0 ],
					"id" : "obj-77",
					"ignoreclick" : 1,
					"maxclass" : "matrixctrl",
					"numinlets" : 1,
					"numoutlets" : 2,
					"one/row" : 1,
					"outlettype" : [ "list", "list" ],
					"parameter_enable" : 0,
					"patching_rect" : [ 878.101292142856892, 448.456272036931978, 258.0, 18.0 ],
					"rows" : 1
				}

			}
, 			{
				"box" : 				{
					"angle" : 270.0,
					"bgcolor" : [ 1.0, 1.0, 1.0, 1.0 ],
					"id" : "obj-87",
					"maxclass" : "panel",
					"mode" : 0,
					"numinlets" : 1,
					"numoutlets" : 0,
					"patching_rect" : [ 1120.101292142856892, 468.456272036931978, 13.0, 24.0 ],
					"proportion" : 0.5,
					"rounded" : 4
				}

			}
, 			{
				"box" : 				{
					"angle" : 270.0,
					"bgcolor" : [ 1.0, 1.0, 1.0, 1.0 ],
					"id" : "obj-89",
					"maxclass" : "panel",
					"mode" : 0,
					"numinlets" : 1,
					"numoutlets" : 0,
					"patching_rect" : [ 1104.101292142856892, 468.456272036931978, 13.0, 24.0 ],
					"proportion" : 0.5,
					"rounded" : 4
				}

			}
, 			{
				"box" : 				{
					"angle" : 270.0,
					"bgcolor" : [ 1.0, 1.0, 1.0, 1.0 ],
					"id" : "obj-90",
					"maxclass" : "panel",
					"mode" : 0,
					"numinlets" : 1,
					"numoutlets" : 0,
					"patching_rect" : [ 1088.101292142856892, 468.456272036931978, 13.0, 24.0 ],
					"proportion" : 0.5,
					"rounded" : 4
				}

			}
, 			{
				"box" : 				{
					"angle" : 270.0,
					"bgcolor" : [ 0.995629191398621, 1.0, 0.084727965295315, 1.0 ],
					"id" : "obj-91",
					"maxclass" : "panel",
					"mode" : 0,
					"numinlets" : 1,
					"numoutlets" : 0,
					"patching_rect" : [ 1056.101292142856892, 468.456272036931978, 13.0, 24.0 ],
					"proportion" : 0.5,
					"rounded" : 4
				}

			}
, 			{
				"box" : 				{
					"angle" : 270.0,
					"bgcolor" : [ 0.995629191398621, 1.0, 0.084727965295315, 1.0 ],
					"id" : "obj-92",
					"maxclass" : "panel",
					"mode" : 0,
					"numinlets" : 1,
					"numoutlets" : 0,
					"patching_rect" : [ 1040.101292142856892, 468.456272036931978, 13.0, 24.0 ],
					"proportion" : 0.5,
					"rounded" : 4
				}

			}
, 			{
				"box" : 				{
					"angle" : 270.0,
					"bgcolor" : [ 0.995629191398621, 1.0, 0.084727965295315, 1.0 ],
					"id" : "obj-93",
					"maxclass" : "panel",
					"mode" : 0,
					"numinlets" : 1,
					"numoutlets" : 0,
					"patching_rect" : [ 1024.101292142856892, 468.456272036931978, 13.0, 24.0 ],
					"proportion" : 0.5,
					"rounded" : 4
				}

			}
, 			{
				"box" : 				{
					"angle" : 270.0,
					"bgcolor" : [ 0.965762495994568, 0.57892245054245, 0.218903407454491, 1.0 ],
					"id" : "obj-94",
					"maxclass" : "panel",
					"mode" : 0,
					"numinlets" : 1,
					"numoutlets" : 0,
					"patching_rect" : [ 992.101292142856892, 468.456272036931978, 13.0, 24.0 ],
					"proportion" : 0.5,
					"rounded" : 4
				}

			}
, 			{
				"box" : 				{
					"angle" : 270.0,
					"bgcolor" : [ 0.965762495994568, 0.57892245054245, 0.218903407454491, 1.0 ],
					"id" : "obj-95",
					"maxclass" : "panel",
					"mode" : 0,
					"numinlets" : 1,
					"numoutlets" : 0,
					"patching_rect" : [ 976.101292142856892, 468.456272036931978, 13.0, 24.0 ],
					"proportion" : 0.5,
					"rounded" : 4
				}

			}
, 			{
				"box" : 				{
					"angle" : 270.0,
					"bgcolor" : [ 0.965762495994568, 0.57892245054245, 0.218903407454491, 1.0 ],
					"id" : "obj-96",
					"maxclass" : "panel",
					"mode" : 0,
					"numinlets" : 1,
					"numoutlets" : 0,
					"patching_rect" : [ 960.101292142856892, 468.456272036931978, 13.0, 24.0 ],
					"proportion" : 0.5,
					"rounded" : 4
				}

			}
, 			{
				"box" : 				{
					"angle" : 270.0,
					"bgcolor" : [ 0.939210772514343, 0.186267703771591, 0.181866616010666, 1.0 ],
					"id" : "obj-97",
					"maxclass" : "panel",
					"mode" : 0,
					"numinlets" : 1,
					"numoutlets" : 0,
					"patching_rect" : [ 928.101292142856892, 468.456272036931978, 13.0, 24.0 ],
					"proportion" : 0.5,
					"rounded" : 4
				}

			}
, 			{
				"box" : 				{
					"angle" : 270.0,
					"bgcolor" : [ 0.939210772514343, 0.186267703771591, 0.181866616010666, 1.0 ],
					"id" : "obj-100",
					"maxclass" : "panel",
					"mode" : 0,
					"numinlets" : 1,
					"numoutlets" : 0,
					"patching_rect" : [ 912.101292142856892, 468.456272036931978, 13.0, 24.0 ],
					"proportion" : 0.5,
					"rounded" : 4
				}

			}
, 			{
				"box" : 				{
					"angle" : 270.0,
					"bgcolor" : [ 0.939210772514343, 0.186267703771591, 0.181866616010666, 1.0 ],
					"id" : "obj-101",
					"maxclass" : "panel",
					"mode" : 0,
					"numinlets" : 1,
					"numoutlets" : 0,
					"patching_rect" : [ 896.101292142856892, 468.456272036931978, 13.000000000000114, 24.0 ],
					"proportion" : 0.5,
					"rounded" : 4
				}

			}
, 			{
				"box" : 				{
					"angle" : 270.0,
					"bgcolor" : [ 1.0, 1.0, 1.0, 1.0 ],
					"id" : "obj-103",
					"maxclass" : "panel",
					"mode" : 0,
					"numinlets" : 1,
					"numoutlets" : 0,
					"patching_rect" : [ 1072.101292142856892, 468.456272036931978, 13.0, 24.0 ],
					"proportion" : 0.5,
					"rounded" : 4
				}

			}
, 			{
				"box" : 				{
					"angle" : 270.0,
					"bgcolor" : [ 0.995629191398621, 1.0, 0.084727965295315, 1.0 ],
					"id" : "obj-105",
					"maxclass" : "panel",
					"mode" : 0,
					"numinlets" : 1,
					"numoutlets" : 0,
					"patching_rect" : [ 1008.101292142856892, 468.456272036931978, 13.0, 24.0 ],
					"proportion" : 0.5,
					"rounded" : 4
				}

			}
, 			{
				"box" : 				{
					"angle" : 270.0,
					"bgcolor" : [ 0.965762495994568, 0.57892245054245, 0.218903407454491, 1.0 ],
					"id" : "obj-106",
					"maxclass" : "panel",
					"mode" : 0,
					"numinlets" : 1,
					"numoutlets" : 0,
					"patching_rect" : [ 944.101292142856892, 468.456272036931978, 13.0, 24.0 ],
					"proportion" : 0.5,
					"rounded" : 4
				}

			}
, 			{
				"box" : 				{
					"angle" : 270.0,
					"bgcolor" : [ 0.939210772514343, 0.186267703771591, 0.181866616010666, 1.0 ],
					"id" : "obj-107",
					"maxclass" : "panel",
					"mode" : 0,
					"numinlets" : 1,
					"numoutlets" : 0,
					"patching_rect" : [ 880.101292142856892, 468.456272036931978, 13.0, 24.0 ],
					"proportion" : 0.5,
					"rounded" : 4
				}

			}
, 			{
				"box" : 				{
					"bubble" : 1,
					"bubbleside" : 2,
					"fontname" : "Arial",
					"fontsize" : 13.0,
					"id" : "obj-52",
					"maxclass" : "comment",
					"numinlets" : 1,
					"numoutlets" : 0,
					"patching_rect" : [ 781.601292142856892, 56.5, 158.0, 40.0 ],
					"text" : "play beat boxing example"
				}

			}
, 			{
				"box" : 				{
					"activebgcolor" : [ 0.324816644191742, 0.306101977825165, 0.25969871878624, 1.0 ],
					"activebgoncolor" : [ 0.960863053798676, 0.579444289207458, 0.219074755907059, 1.0 ],
					"activetextcolor" : [ 1.0, 1.0, 1.0, 1.0 ],
					"bgcolor" : [ 0.324816644191742, 0.306101977825165, 0.25969871878624, 1.0 ],
					"bgoncolor" : [ 0.960863053798676, 0.579444289207458, 0.219074755907059, 1.0 ],
					"bordercolor" : [ 0.313725490196078, 0.313725490196078, 0.313725490196078, 0.96 ],
					"focusbordercolor" : [ 0.313725490196078, 0.313725490196078, 0.313725490196078, 0.96 ],
					"fontface" : 1,
					"fontsize" : 10.0,
					"id" : "obj-51",
					"maxclass" : "live.text",
					"numinlets" : 1,
					"numoutlets" : 2,
					"outlettype" : [ "", "" ],
					"parameter_enable" : 1,
					"patching_rect" : [ 872.057149144894993, 369.956272036931978, 58.044142997961899, 27.0 ],
					"saved_attribute_attributes" : 					{
						"activebgcolor" : 						{
							"expression" : ""
						}
,
						"activebgoncolor" : 						{
							"expression" : ""
						}
,
						"activetextcolor" : 						{
							"expression" : ""
						}
,
						"activetextoncolor" : 						{
							"expression" : ""
						}
,
						"bgcolor" : 						{
							"expression" : ""
						}
,
						"bgoncolor" : 						{
							"expression" : ""
						}
,
						"bordercolor" : 						{
							"expression" : ""
						}
,
						"focusbordercolor" : 						{
							"expression" : ""
						}
,
						"textcolor" : 						{
							"expression" : ""
						}
,
						"textoffcolor" : 						{
							"expression" : ""
						}
,
						"valueof" : 						{
							"parameter_enum" : [ "val1", "val2" ],
							"parameter_longname" : "live.text",
							"parameter_mmax" : 1,
							"parameter_shortname" : "live.text",
							"parameter_type" : 2
						}

					}
,
					"text" : "STOP",
					"textcolor" : [ 0.0, 0.0, 0.0, 1.0 ],
					"textoffcolor" : [ 0.0, 0.0, 0.0, 1.0 ],
					"texton" : "START",
					"varname" : "live.text"
				}

			}
, 			{
				"box" : 				{
					"bgstepcolor2" : [ 0.254571110010147, 0.241014674305916, 0.199484646320343, 0.47 ],
					"bordercolor" : [ 0.313725490196078, 0.313725490196078, 0.313725490196078, 0.0 ],
					"bordercolor2" : [ 0.313725490196078, 0.313725490196078, 0.313725490196078, 0.0 ],
					"direction" : 0,
					"direction_height" : 4.0,
					"directioncolor" : [ 0.313725490196078, 0.313725490196078, 0.313725490196078, 0.0 ],
					"hbgcolor" : [ 1.0, 0.301960784313725, 0.301960784313725, 0.0 ],
					"id" : "obj-40",
					"link" : 1,
					"marker_horizontal" : 0,
					"marker_vertical" : 0,
					"matrixmode" : 1,
					"maxclass" : "live.grid",
					"numinlets" : 2,
					"numoutlets" : 6,
					"outlettype" : [ "", "", "", "", "", "" ],
					"parameter_enable" : 1,
					"patching_rect" : [ 878.101292142856892, 407.456272036931978, 258.0, 31.739890590931282 ],
					"rounded" : 0.0,
					"rows" : 3,
					"saved_attribute_attributes" : 					{
						"bgstepcolor" : 						{
							"expression" : ""
						}
,
						"bgstepcolor2" : 						{
							"expression" : ""
						}
,
						"bordercolor" : 						{
							"expression" : ""
						}
,
						"bordercolor2" : 						{
							"expression" : ""
						}
,
						"directioncolor" : 						{
							"expression" : ""
						}
,
						"stepcolor" : 						{
							"expression" : ""
						}
,
						"valueof" : 						{
							"parameter_initial" : [ 3, 16, 3, 0, 16, 0, 1002, 2002, 3002, 4001, 5002, 6002, 7000, 8000, 9002, 10000, 11002, 12001, 13000, 14002, 15002, 2, 2, 2, 2, 2, 2, 2, 2, 2, 2, 2, 2, 2, 2, 2, 2 ],
							"parameter_initial_enable" : 1,
							"parameter_invisible" : 1,
							"parameter_longname" : "live.grid[7]",
							"parameter_shortname" : "live.grid",
							"parameter_type" : 3
						}

					}
,
					"spacing" : 2.0,
					"stepcolor" : [ 0.940689086914062, 0.50758284330368, 0.170662134885788, 1.0 ],
					"varname" : "live.grid[3]"
				}

			}
, 			{
				"box" : 				{
					"bgmode" : 0,
					"border" : 0,
					"clickthrough" : 0,
					"enablehscroll" : 0,
					"enablevscroll" : 0,
					"id" : "obj-1",
					"lockeddragscroll" : 0,
					"lockedsize" : 0,
					"maxclass" : "bpatcher",
					"name" : "sp.corpuslist.maxpat",
					"numinlets" : 1,
					"numoutlets" : 1,
					"offset" : [ 0.0, 0.0 ],
					"outlettype" : [ "" ],
					"patching_rect" : [ 529.631155714285342, 344.831233488530188, 235.0, 235.0 ],
					"viewvisibility" : 1
				}

			}
, 			{
				"box" : 				{
					"id" : "obj-7",
					"maxclass" : "message",
					"numinlets" : 2,
					"numoutlets" : 1,
					"outlettype" : [ "" ],
					"patching_rect" : [ 107.631155714285342, 257.0, 178.0, 22.0 ],
					"text" : "read corpus_randomdrums.json"
				}

			}
, 			{
				"box" : 				{
					"id" : "obj-98",
					"maxclass" : "newobj",
					"numinlets" : 1,
					"numoutlets" : 2,
					"outlettype" : [ "signal", "signal" ],
					"patching_rect" : [ 107.631155714285342, 344.831233488530188, 100.0, 22.0 ],
					"text" : "sp.corpusplayer~"
				}

			}
, 			{
				"box" : 				{
					"id" : "obj-99",
					"maxclass" : "ezdac~",
					"numinlets" : 2,
					"numoutlets" : 0,
					"patching_rect" : [ 107.631155714285342, 389.441644651373508, 45.0, 45.0 ]
				}

			}
, 			{
				"box" : 				{
					"bgmode" : 0,
					"border" : 0,
					"clickthrough" : 0,
					"enablehscroll" : 0,
					"enablevscroll" : 0,
					"id" : "obj-102",
					"lockeddragscroll" : 0,
					"lockedsize" : 0,
					"maxclass" : "bpatcher",
					"name" : "sp.plotter.maxpat",
					"numinlets" : 1,
					"numoutlets" : 2,
					"offset" : [ 0.0, 0.0 ],
					"outlettype" : [ "", "" ],
					"patching_rect" : [ 283.631155714285342, 344.831233488530188, 235.0, 235.0 ],
					"viewvisibility" : 1
				}

			}
, 			{
				"box" : 				{
					"id" : "obj-104",
					"maxclass" : "newobj",
					"numinlets" : 1,
					"numoutlets" : 2,
					"outlettype" : [ "", "" ],
					"patching_rect" : [ 107.631155714285342, 300.220822325686754, 195.0, 22.0 ],
					"text" : "sp.corpusclustermatch @clusters 3"
				}

			}
, 			{
				"box" : 				{
					"bubble" : 1,
					"fontname" : "Arial",
					"fontsize" : 13.0,
					"id" : "obj-9",
					"linecount" : 2,
					"maxclass" : "comment",
					"numinlets" : 1,
					"numoutlets" : 0,
					"patching_rect" : [ 293.161019285713792, 246.0, 109.0, 40.0 ],
					"text" : "load analyzed corpus"
				}

			}
, 			{
				"box" : 				{
					"angle" : 272.105514188856091,
					"bgcolor" : [ 0.121350206434727, 0.126715794205666, 0.102380186319351, 1.0 ],
					"bordercolor" : [ 0.149019607843137, 0.149019607843137, 0.149019607843137, 0.33 ],
					"id" : "obj-108",
					"maxclass" : "panel",
					"mode" : 0,
					"numinlets" : 1,
					"numoutlets" : 0,
					"patching_rect" : [ 872.057149144894993, 444.456272036931978, 270.088285995923343, 54.0 ],
					"proportion" : 0.766103342152152
				}

			}
, 			{
				"box" : 				{
					"angle" : 272.105514188856091,
					"bgcolor" : [ 0.578802645206451, 0.595841467380524, 0.558408379554749, 1.0 ],
					"bordercolor" : [ 0.149019607843137, 0.149019607843137, 0.149019607843137, 0.33 ],
					"id" : "obj-109",
					"maxclass" : "panel",
					"mode" : 0,
					"numinlets" : 1,
					"numoutlets" : 0,
					"patching_rect" : [ 859.601292142856892, 358.456272036931978, 292.0, 150.37496145159821 ],
					"proportion" : 0.766103342152152
				}

			}
, 			{
				"box" : 				{
					"hidden" : 1,
					"id" : "obj-125",
					"maxclass" : "newobj",
					"numinlets" : 1,
					"numoutlets" : 1,
					"outlettype" : [ "" ],
					"patching_rect" : [ 985.101292142856892, 358.456272036931978, 123.0, 22.0 ],
					"text" : "expr (60000 / $i1) / 4."
				}

			}
, 			{
				"box" : 				{
					"hidden" : 1,
					"id" : "obj-86",
					"maxclass" : "newobj",
					"numinlets" : 2,
					"numoutlets" : 1,
					"outlettype" : [ "int" ],
					"patching_rect" : [ 941.101292142856892, 453.472665479554962, 29.5, 22.0 ],
					"text" : "- 1"
				}

			}
, 			{
				"box" : 				{
					"hidden" : 1,
					"id" : "obj-83",
					"maxclass" : "newobj",
					"numinlets" : 3,
					"numoutlets" : 1,
					"outlettype" : [ "" ],
					"patching_rect" : [ 941.101292142856892, 485.144796627095957, 60.0, 22.0 ],
					"text" : "pack i 0 1"
				}

			}
, 			{
				"box" : 				{
					"fontname" : "Arial",
					"fontsize" : 12.0,
					"hidden" : 1,
					"id" : "obj-88",
					"maxclass" : "newobj",
					"numinlets" : 5,
					"numoutlets" : 4,
					"outlettype" : [ "int", "", "", "int" ],
					"patching_rect" : [ 941.101292142856892, 421.800534332013967, 77.0, 22.0 ],
					"text" : "counter 1 16"
				}

			}
, 			{
				"box" : 				{
					"hidden" : 1,
					"id" : "obj-84",
					"maxclass" : "newobj",
					"numinlets" : 2,
					"numoutlets" : 1,
					"outlettype" : [ "bang" ],
					"patching_rect" : [ 941.101292142856892, 390.128403184472972, 63.0, 22.0 ],
					"text" : "metro 150"
				}

			}
, 			{
				"box" : 				{
					"hidden" : 1,
					"id" : "obj-13",
					"maxclass" : "newobj",
					"numinlets" : 2,
					"numoutlets" : 2,
					"outlettype" : [ "", "" ],
					"patching_rect" : [ 874.0, 486.831233488530188, 55.0, 22.0 ],
					"text" : "zl slice 1"
				}

			}
, 			{
				"box" : 				{
					"background" : 1,
					"bgcolor" : [ 1.0, 0.788235, 0.470588, 1.0 ],
					"fontface" : 1,
					"hint" : "",
					"id" : "obj-152",
					"ignoreclick" : 1,
					"legacytextcolor" : 1,
					"maxclass" : "textbutton",
					"numinlets" : 1,
					"numoutlets" : 3,
					"outlettype" : [ "", "", "int" ],
					"parameter_enable" : 0,
					"patching_rect" : [ 676.02986357142845, 45.493700465590223, 20.0, 20.0 ],
					"rounded" : 60.0,
					"text" : "2",
					"textcolor" : [ 0.34902, 0.34902, 0.34902, 1.0 ]
				}

			}
, 			{
				"box" : 				{
					"background" : 1,
					"bgcolor" : [ 1.0, 0.788235, 0.470588, 1.0 ],
					"fontface" : 1,
					"hint" : "",
					"id" : "obj-5",
					"ignoreclick" : 1,
					"legacytextcolor" : 1,
					"maxclass" : "textbutton",
					"numinlets" : 1,
					"numoutlets" : 3,
					"outlettype" : [ "", "", "int" ],
					"parameter_enable" : 0,
					"patching_rect" : [ 406.161019285713792, 256.0, 20.0, 20.0 ],
					"rounded" : 60.0,
					"text" : "1",
					"textcolor" : [ 0.34902, 0.34902, 0.34902, 1.0 ]
				}

			}
, 			{
				"box" : 				{
					"background" : 1,
					"bgcolor" : [ 1.0, 0.788235, 0.470588, 1.0 ],
					"fontface" : 1,
					"hint" : "",
					"id" : "obj-150",
					"ignoreclick" : 1,
					"legacytextcolor" : 1,
					"maxclass" : "textbutton",
					"numinlets" : 1,
					"numoutlets" : 3,
					"outlettype" : [ "", "", "int" ],
					"parameter_enable" : 0,
					"patching_rect" : [ 1203.601292142856892, 390.128403184472972, 20.0, 20.0 ],
					"rounded" : 60.0,
					"text" : "4",
					"textcolor" : [ 0.34902, 0.34902, 0.34902, 1.0 ]
				}

			}
, 			{
				"box" : 				{
					"background" : 1,
					"bgcolor" : [ 1.0, 0.788235, 0.470588, 1.0 ],
					"fontface" : 1,
					"hint" : "",
					"id" : "obj-53",
					"ignoreclick" : 1,
					"legacytextcolor" : 1,
					"maxclass" : "textbutton",
					"numinlets" : 1,
					"numoutlets" : 3,
					"outlettype" : [ "", "", "int" ],
					"parameter_enable" : 0,
					"patching_rect" : [ 850.601292142856892, 31.331233488529961, 20.0, 20.0 ],
					"rounded" : 60.0,
					"text" : "3",
					"textcolor" : [ 0.34902, 0.34902, 0.34902, 1.0 ]
				}

			}
 ],
		"lines" : [ 			{
				"patchline" : 				{
					"destination" : [ "obj-102", 0 ],
					"midpoints" : [ 539.131155714285342, 594.831233488530188, 525.131155714285342, 594.831233488530188, 525.131155714285342, 333.831233488530188, 293.131155714285342, 333.831233488530188 ],
					"order" : 1,
					"source" : [ "obj-1", 0 ]
				}

			}
, 			{
				"patchline" : 				{
					"destination" : [ "obj-98", 0 ],
					"midpoints" : [ 539.131155714285342, 595.076950092162861, 93.631155714285342, 595.076950092162861, 93.631155714285342, 339.831233488530188, 117.131155714285342, 339.831233488530188 ],
					"order" : 0,
					"source" : [ "obj-1", 0 ]
				}

			}
, 			{
				"patchline" : 				{
					"destination" : [ "obj-4", 0 ],
					"hidden" : 1,
					"source" : [ "obj-10", 0 ]
				}

			}
, 			{
				"patchline" : 				{
					"destination" : [ "obj-1", 0 ],
					"midpoints" : [ 293.131155714285342, 595.831233488530188, 525.131155714285342, 595.831233488530188, 525.131155714285342, 333.831233488530188, 539.131155714285342, 333.831233488530188 ],
					"order" : 1,
					"source" : [ "obj-102", 0 ]
				}

			}
, 			{
				"patchline" : 				{
					"destination" : [ "obj-98", 0 ],
					"midpoints" : [ 293.131155714285342, 595.076950092162861, 93.131155714285342, 595.076950092162861, 93.131155714285342, 338.076950092162861, 117.131155714285342, 338.076950092162861 ],
					"order" : 0,
					"source" : [ "obj-102", 0 ]
				}

			}
, 			{
				"patchline" : 				{
					"destination" : [ "obj-1", 0 ],
					"midpoints" : [ 293.131155714285342, 333.026027907108414, 539.131155714285342, 333.026027907108414 ],
					"order" : 1,
					"source" : [ "obj-104", 1 ]
				}

			}
, 			{
				"patchline" : 				{
					"destination" : [ "obj-102", 0 ],
					"order" : 0,
					"source" : [ "obj-104", 1 ]
				}

			}
, 			{
				"patchline" : 				{
					"destination" : [ "obj-98", 0 ],
					"source" : [ "obj-104", 0 ]
				}

			}
, 			{
				"patchline" : 				{
					"destination" : [ "obj-125", 0 ],
					"hidden" : 1,
					"source" : [ "obj-110", 0 ]
				}

			}
, 			{
				"patchline" : 				{
					"destination" : [ "obj-35", 0 ],
					"source" : [ "obj-12", 1 ]
				}

			}
, 			{
				"patchline" : 				{
					"destination" : [ "obj-84", 1 ],
					"hidden" : 1,
					"source" : [ "obj-125", 0 ]
				}

			}
, 			{
				"patchline" : 				{
					"destination" : [ "obj-104", 0 ],
					"midpoints" : [ 883.5, 289.220822325686754, 117.131155714285342, 289.220822325686754 ],
					"source" : [ "obj-13", 0 ]
				}

			}
, 			{
				"patchline" : 				{
					"destination" : [ "obj-12", 0 ],
					"source" : [ "obj-131", 1 ]
				}

			}
, 			{
				"patchline" : 				{
					"destination" : [ "obj-2", 1 ],
					"order" : 0,
					"source" : [ "obj-131", 0 ]
				}

			}
, 			{
				"patchline" : 				{
					"destination" : [ "obj-2", 0 ],
					"order" : 1,
					"source" : [ "obj-131", 0 ]
				}

			}
, 			{
				"patchline" : 				{
					"destination" : [ "obj-37", 0 ],
					"hidden" : 1,
					"midpoints" : [ 74.02986357142845, 252.941644651373508, 55.580509642856896, 252.941644651373508, 55.580509642856896, 209.941644651373508, 117.131155714285342, 209.941644651373508 ],
					"source" : [ "obj-31", 0 ]
				}

			}
, 			{
				"patchline" : 				{
					"destination" : [ "obj-104", 0 ],
					"midpoints" : [ 940.5, 289.110411162843377, 117.131155714285342, 289.110411162843377 ],
					"source" : [ "obj-35", 0 ]
				}

			}
, 			{
				"patchline" : 				{
					"destination" : [ "obj-104", 0 ],
					"hidden" : 1,
					"source" : [ "obj-37", 0 ]
				}

			}
, 			{
				"patchline" : 				{
					"destination" : [ "obj-10", 0 ],
					"hidden" : 1,
					"source" : [ "obj-4", 0 ]
				}

			}
, 			{
				"patchline" : 				{
					"destination" : [ "obj-37", 1 ],
					"hidden" : 1,
					"source" : [ "obj-4", 1 ]
				}

			}
, 			{
				"patchline" : 				{
					"destination" : [ "obj-13", 0 ],
					"midpoints" : [ 887.601292142856892, 443.739890590931282, 883.5, 443.739890590931282 ],
					"source" : [ "obj-40", 0 ]
				}

			}
, 			{
				"patchline" : 				{
					"destination" : [ "obj-84", 0 ],
					"hidden" : 1,
					"source" : [ "obj-51", 0 ]
				}

			}
, 			{
				"patchline" : 				{
					"destination" : [ "obj-104", 0 ],
					"source" : [ "obj-7", 0 ]
				}

			}
, 			{
				"patchline" : 				{
					"destination" : [ "obj-77", 0 ],
					"hidden" : 1,
					"source" : [ "obj-83", 0 ]
				}

			}
, 			{
				"patchline" : 				{
					"destination" : [ "obj-88", 0 ],
					"hidden" : 1,
					"source" : [ "obj-84", 0 ]
				}

			}
, 			{
				"patchline" : 				{
					"destination" : [ "obj-83", 0 ],
					"hidden" : 1,
					"source" : [ "obj-86", 0 ]
				}

			}
, 			{
				"patchline" : 				{
					"destination" : [ "obj-40", 0 ],
					"hidden" : 1,
					"order" : 1,
					"source" : [ "obj-88", 0 ]
				}

			}
, 			{
				"patchline" : 				{
					"destination" : [ "obj-86", 0 ],
					"hidden" : 1,
					"order" : 0,
					"source" : [ "obj-88", 0 ]
				}

			}
, 			{
				"patchline" : 				{
					"destination" : [ "obj-99", 1 ],
					"source" : [ "obj-98", 1 ]
				}

			}
, 			{
				"patchline" : 				{
					"destination" : [ "obj-99", 0 ],
					"source" : [ "obj-98", 0 ]
				}

			}
 ],
		"parameters" : 		{
			"obj-10" : [ "live.tab[26]", "live.tab", 0 ],
			"obj-110" : [ "live.dial", "BPM", 0 ],
			"obj-136" : [ "live.tab[25]", "live.tab", 0 ],
			"obj-23" : [ "live.tab[27]", "live.tab", 0 ],
			"obj-40" : [ "live.grid[7]", "live.grid", 0 ],
			"obj-51" : [ "live.text", "live.text", 0 ],
			"parameterbanks" : 			{
				"0" : 				{
					"index" : 0,
					"name" : "",
					"parameters" : [ "-", "-", "-", "-", "-", "-", "-", "-" ]
				}

			}
,
			"inherited_shortname" : 1
		}
,
		"autosave" : 0,
		"boxgroups" : [ 			{
				"boxes" : [ "obj-136", "obj-138", "obj-139", "obj-10", "obj-23", "obj-4" ]
			}
, 			{
				"boxes" : [ "obj-109", "obj-51", "obj-84", "obj-40", "obj-88", "obj-125", "obj-108", "obj-77", "obj-86", "obj-91", "obj-92", "obj-93", "obj-94", "obj-95", "obj-96", "obj-97", "obj-100", "obj-101", "obj-103", "obj-105", "obj-106", "obj-107", "obj-90", "obj-89", "obj-110", "obj-83", "obj-87" ]
			}
 ]
	}

}
