{
	"patcher" : 	{
		"fileversion" : 1,
		"appversion" : 		{
			"major" : 8,
			"minor" : 6,
			"revision" : 1,
			"architecture" : "x64",
			"modernui" : 1
		}
,
		"classnamespace" : "box",
		"rect" : [ 322.0, 87.0, 839.0, 599.0 ],
		"bglocked" : 0,
		"openinpresentation" : 0,
		"default_fontsize" : 12.0,
		"default_fontface" : 0,
		"default_fontname" : "Arial",
		"gridonopen" : 1,
		"gridsize" : [ 15.0, 15.0 ],
		"gridsnaponopen" : 1,
		"objectsnaponopen" : 1,
		"statusbarvisible" : 2,
		"toolbarvisible" : 1,
		"lefttoolbarpinned" : 0,
		"toptoolbarpinned" : 0,
		"righttoolbarpinned" : 0,
		"bottomtoolbarpinned" : 0,
		"toolbars_unpinned_last_save" : 0,
		"tallnewobj" : 0,
		"boxanimatetime" : 200,
		"enablehscroll" : 1,
		"enablevscroll" : 1,
		"devicewidth" : 0.0,
		"description" : "",
		"digest" : "",
		"tags" : "",
		"style" : "",
		"subpatcher_template" : "",
		"assistshowspatchername" : 0,
		"boxes" : [ 			{
				"box" : 				{
					"id" : "obj-78",
					"maxclass" : "newobj",
					"numinlets" : 1,
					"numoutlets" : 2,
					"outlettype" : [ "", "" ],
					"patcher" : 					{
						"fileversion" : 1,
						"appversion" : 						{
							"major" : 8,
							"minor" : 6,
							"revision" : 1,
							"architecture" : "x64",
							"modernui" : 1
						}
,
						"classnamespace" : "box",
						"rect" : [ 59.0, 106.0, 352.0, 364.0 ],
						"bglocked" : 0,
						"openinpresentation" : 0,
						"default_fontsize" : 12.0,
						"default_fontface" : 0,
						"default_fontname" : "Arial",
						"gridonopen" : 1,
						"gridsize" : [ 15.0, 15.0 ],
						"gridsnaponopen" : 1,
						"objectsnaponopen" : 1,
						"statusbarvisible" : 2,
						"toolbarvisible" : 1,
						"lefttoolbarpinned" : 0,
						"toptoolbarpinned" : 0,
						"righttoolbarpinned" : 0,
						"bottomtoolbarpinned" : 0,
						"toolbars_unpinned_last_save" : 0,
						"tallnewobj" : 0,
						"boxanimatetime" : 200,
						"enablehscroll" : 1,
						"enablevscroll" : 1,
						"devicewidth" : 0.0,
						"description" : "",
						"digest" : "",
						"tags" : "",
						"style" : "",
						"subpatcher_template" : "",
						"assistshowspatchername" : 0,
						"boxes" : [ 							{
								"box" : 								{
									"id" : "obj-11",
									"linecount" : 2,
									"maxclass" : "comment",
									"numinlets" : 1,
									"numoutlets" : 0,
									"patching_rect" : [ 155.0, 251.951000460784599, 100.0, 33.0 ],
									"text" : "split for panning left/right"
								}

							}
, 							{
								"box" : 								{
									"id" : "obj-8",
									"linecount" : 2,
									"maxclass" : "comment",
									"numinlets" : 1,
									"numoutlets" : 0,
									"patching_rect" : [ 102.0, 207.260799627451206, 65.0, 33.0 ],
									"text" : "lace back together"
								}

							}
, 							{
								"box" : 								{
									"id" : "obj-6",
									"linecount" : 2,
									"maxclass" : "comment",
									"numinlets" : 1,
									"numoutlets" : 0,
									"patching_rect" : [ 151.0, 117.880397960784535, 135.0, 33.0 ],
									"text" : "randomlze order to impact stereo \"spread\""
								}

							}
, 							{
								"box" : 								{
									"id" : "obj-4",
									"linecount" : 2,
									"maxclass" : "comment",
									"numinlets" : 1,
									"numoutlets" : 0,
									"patching_rect" : [ 98.0, 73.0, 116.0, 33.0 ],
									"text" : "split into frequency/gain lists"
								}

							}
, 							{
								"box" : 								{
									"id" : "obj-2",
									"linecount" : 2,
									"maxclass" : "comment",
									"numinlets" : 1,
									"numoutlets" : 0,
									"patching_rect" : [ 151.0, 162.570598794117871, 150.0, 33.0 ],
									"text" : "use scrambling to apply same order to other list"
								}

							}
, 							{
								"box" : 								{
									"id" : "obj-54",
									"maxclass" : "newobj",
									"numinlets" : 2,
									"numoutlets" : 2,
									"outlettype" : [ "", "" ],
									"patching_rect" : [ 38.0, 212.760799627451206, 56.0, 22.0 ],
									"text" : "zl lace"
								}

							}
, 							{
								"box" : 								{
									"id" : "obj-49",
									"maxclass" : "newobj",
									"numinlets" : 2,
									"numoutlets" : 2,
									"outlettype" : [ "", "" ],
									"patching_rect" : [ 38.0, 168.070598794117871, 106.0, 22.0 ],
									"text" : "zl indexmap"
								}

							}
, 							{
								"box" : 								{
									"id" : "obj-47",
									"maxclass" : "newobj",
									"numinlets" : 2,
									"numoutlets" : 2,
									"outlettype" : [ "", "" ],
									"patching_rect" : [ 75.0, 123.380397960784535, 69.0, 22.0 ],
									"text" : "zl scramble"
								}

							}
, 							{
								"box" : 								{
									"id" : "obj-44",
									"maxclass" : "newobj",
									"numinlets" : 2,
									"numoutlets" : 2,
									"outlettype" : [ "", "" ],
									"patching_rect" : [ 38.0, 78.690197127451199, 56.0, 22.0 ],
									"text" : "zl delace"
								}

							}
, 							{
								"box" : 								{
									"id" : "obj-9",
									"maxclass" : "newobj",
									"numinlets" : 2,
									"numoutlets" : 2,
									"outlettype" : [ "", "" ],
									"patching_rect" : [ 38.0, 257.451000460784542, 107.0, 22.0 ],
									"text" : "zl slice 32"
								}

							}
, 							{
								"box" : 								{
									"comment" : "",
									"id" : "obj-75",
									"index" : 1,
									"maxclass" : "inlet",
									"numinlets" : 0,
									"numoutlets" : 1,
									"outlettype" : [ "" ],
									"patching_rect" : [ 38.0, 25.999996294117864, 30.0, 30.0 ]
								}

							}
, 							{
								"box" : 								{
									"comment" : "",
									"id" : "obj-76",
									"index" : 1,
									"maxclass" : "outlet",
									"numinlets" : 1,
									"numoutlets" : 0,
									"patching_rect" : [ 38.0, 302.141201294117877, 30.0, 30.0 ]
								}

							}
, 							{
								"box" : 								{
									"comment" : "",
									"id" : "obj-77",
									"index" : 2,
									"maxclass" : "outlet",
									"numinlets" : 1,
									"numoutlets" : 0,
									"patching_rect" : [ 126.0, 302.141201294117877, 30.0, 30.0 ]
								}

							}
 ],
						"lines" : [ 							{
								"patchline" : 								{
									"destination" : [ "obj-47", 0 ],
									"source" : [ "obj-44", 1 ]
								}

							}
, 							{
								"patchline" : 								{
									"destination" : [ "obj-49", 0 ],
									"source" : [ "obj-44", 0 ]
								}

							}
, 							{
								"patchline" : 								{
									"destination" : [ "obj-49", 1 ],
									"source" : [ "obj-47", 1 ]
								}

							}
, 							{
								"patchline" : 								{
									"destination" : [ "obj-54", 1 ],
									"source" : [ "obj-47", 0 ]
								}

							}
, 							{
								"patchline" : 								{
									"destination" : [ "obj-54", 0 ],
									"source" : [ "obj-49", 0 ]
								}

							}
, 							{
								"patchline" : 								{
									"destination" : [ "obj-9", 0 ],
									"source" : [ "obj-54", 0 ]
								}

							}
, 							{
								"patchline" : 								{
									"destination" : [ "obj-44", 0 ],
									"source" : [ "obj-75", 0 ]
								}

							}
, 							{
								"patchline" : 								{
									"destination" : [ "obj-76", 0 ],
									"source" : [ "obj-9", 0 ]
								}

							}
, 							{
								"patchline" : 								{
									"destination" : [ "obj-77", 0 ],
									"source" : [ "obj-9", 1 ]
								}

							}
 ]
					}
,
					"patching_rect" : [ 179.999997735023499, 304.582969916511502, 107.0, 22.0 ],
					"saved_object_attributes" : 					{
						"description" : "",
						"digest" : "",
						"globalpatchername" : "",
						"tags" : ""
					}
,
					"text" : "p shuffleSineList"
				}

			}
, 			{
				"box" : 				{
					"id" : "obj-61",
					"maxclass" : "newobj",
					"numinlets" : 2,
					"numoutlets" : 1,
					"outlettype" : [ "signal" ],
					"patching_rect" : [ 179.999997735023499, 468.582969916511502, 47.0, 22.0 ],
					"text" : "*~"
				}

			}
, 			{
				"box" : 				{
					"attack_slope" : 0.590867182972445,
					"attack_time" : 18.2277371863306,
					"decay_slope" : 0.414926535450268,
					"decay_time" : 337.296907790588023,
					"id" : "obj-3",
					"maxclass" : "live.adsrui",
					"numinlets" : 10,
					"numoutlets" : 10,
					"outlettype" : [ "", "", "", "", "", "", "", "", "", "" ],
					"patching_rect" : [ 372.999997735023499, 345.582969916511502, 166.299999999999898, 71.875 ],
					"peak" : 0.998168997058468,
					"release_slope" : 0.382096297067085,
					"release_time" : 2582.78941162596584,
					"sustain" : 0.748247893534922
				}

			}
, 			{
				"box" : 				{
					"fontsize" : 12.0,
					"id" : "obj-4",
					"maxclass" : "newobj",
					"numinlets" : 11,
					"numoutlets" : 3,
					"outlettype" : [ "signal", "signal", "" ],
					"patching_rect" : [ 356.999997735023499, 427.582969916511502, 182.0, 22.0 ],
					"text" : "live.adsr~"
				}

			}
, 			{
				"box" : 				{
					"id" : "obj-60",
					"maxclass" : "newobj",
					"numinlets" : 2,
					"numoutlets" : 1,
					"outlettype" : [ "signal" ],
					"patching_rect" : [ 267.999997735023499, 468.582969916511502, 47.0, 22.0 ],
					"text" : "*~"
				}

			}
, 			{
				"box" : 				{
					"id" : "obj-23",
					"maxclass" : "newobj",
					"numinlets" : 1,
					"numoutlets" : 1,
					"outlettype" : [ "" ],
					"patching_rect" : [ 267.999997735023499, 345.582969916511502, 72.0, 22.0 ],
					"text" : "prepend set"
				}

			}
, 			{
				"box" : 				{
					"id" : "obj-24",
					"maxclass" : "newobj",
					"numinlets" : 1,
					"numoutlets" : 2,
					"outlettype" : [ "", "clear" ],
					"patching_rect" : [ 267.999997735023499, 386.582969916511502, 47.0, 22.0 ],
					"text" : "t l clear"
				}

			}
, 			{
				"box" : 				{
					"id" : "obj-25",
					"maxclass" : "newobj",
					"numinlets" : 4,
					"numoutlets" : 1,
					"outlettype" : [ "signal" ],
					"patching_rect" : [ 267.999997735023499, 427.582969916511502, 80.0, 22.0 ],
					"text" : "ioscbank~ 16"
				}

			}
, 			{
				"box" : 				{
					"id" : "obj-7",
					"maxclass" : "ezdac~",
					"numinlets" : 2,
					"numoutlets" : 0,
					"patching_rect" : [ 179.999997735023499, 509.582969916511502, 45.0, 45.0 ]
				}

			}
, 			{
				"box" : 				{
					"id" : "obj-17",
					"maxclass" : "newobj",
					"numinlets" : 1,
					"numoutlets" : 1,
					"outlettype" : [ "" ],
					"patching_rect" : [ 179.999997735023499, 345.582969916511502, 72.0, 22.0 ],
					"text" : "prepend set"
				}

			}
, 			{
				"box" : 				{
					"id" : "obj-8",
					"maxclass" : "newobj",
					"numinlets" : 1,
					"numoutlets" : 2,
					"outlettype" : [ "", "clear" ],
					"patching_rect" : [ 179.999997735023499, 386.582969916511502, 47.0, 22.0 ],
					"text" : "t l clear"
				}

			}
, 			{
				"box" : 				{
					"id" : "obj-10",
					"maxclass" : "newobj",
					"numinlets" : 4,
					"numoutlets" : 1,
					"outlettype" : [ "signal" ],
					"patching_rect" : [ 179.999997735023499, 427.582969916511502, 80.0, 22.0 ],
					"text" : "ioscbank~ 16"
				}

			}
, 			{
				"box" : 				{
					"id" : "obj-9",
					"maxclass" : "message",
					"numinlets" : 2,
					"numoutlets" : 1,
					"outlettype" : [ "" ],
					"patching_rect" : [ 745.0, 200.0, 49.0, 22.0 ],
					"text" : "floor $1"
				}

			}
, 			{
				"box" : 				{
					"id" : "obj-6",
					"maxclass" : "message",
					"numinlets" : 2,
					"numoutlets" : 1,
					"outlettype" : [ "" ],
					"patching_rect" : [ 690.0, 200.0, 63.0, 22.0 ],
					"text" : "lockout $1"
				}

			}
, 			{
				"box" : 				{
					"id" : "obj-5",
					"maxclass" : "message",
					"numinlets" : 2,
					"numoutlets" : 1,
					"outlettype" : [ "" ],
					"patching_rect" : [ 635.0, 200.0, 77.0, 22.0 ],
					"text" : "sensitivity $1"
				}

			}
, 			{
				"box" : 				{
					"id" : "obj-40",
					"maxclass" : "comment",
					"numinlets" : 1,
					"numoutlets" : 0,
					"patching_rect" : [ 646.0, 98.0, 135.0, 20.0 ],
					"text" : "onset detection settings"
				}

			}
, 			{
				"box" : 				{
					"fontsize" : 10.555534164108179,
					"id" : "obj-2",
					"maxclass" : "live.dial",
					"numinlets" : 1,
					"numoutlets" : 2,
					"outlettype" : [ "", "float" ],
					"parameter_enable" : 1,
					"patching_rect" : [ 745.0, 129.0, 47.0, 51.0 ],
					"saved_attribute_attributes" : 					{
						"valueof" : 						{
							"parameter_initial" : [ -70 ],
							"parameter_initial_enable" : 1,
							"parameter_longname" : "live.dial[3]",
							"parameter_mmax" : 0.0,
							"parameter_mmin" : -99.0,
							"parameter_shortname" : "floor",
							"parameter_type" : 0,
							"parameter_units" : "dB",
							"parameter_unitstyle" : 9
						}

					}
,
					"varname" : "live.dial[2]"
				}

			}
, 			{
				"box" : 				{
					"fontsize" : 10.555534164108179,
					"id" : "obj-59",
					"maxclass" : "live.dial",
					"numinlets" : 1,
					"numoutlets" : 2,
					"outlettype" : [ "", "float" ],
					"parameter_enable" : 1,
					"patching_rect" : [ 690.0, 129.0, 47.0, 51.0 ],
					"saved_attribute_attributes" : 					{
						"valueof" : 						{
							"parameter_exponent" : 3.0,
							"parameter_initial" : [ 30.000000000000011 ],
							"parameter_initial_enable" : 1,
							"parameter_longname" : "live.dial[1]",
							"parameter_mmax" : 1000.0,
							"parameter_shortname" : "lockout",
							"parameter_type" : 0,
							"parameter_unitstyle" : 2
						}

					}
,
					"varname" : "live.dial[1]"
				}

			}
, 			{
				"box" : 				{
					"fontsize" : 10.555534164108179,
					"id" : "obj-58",
					"maxclass" : "live.dial",
					"numinlets" : 1,
					"numoutlets" : 2,
					"outlettype" : [ "", "float" ],
					"parameter_enable" : 1,
					"patching_rect" : [ 635.0, 129.0, 47.0, 51.0 ],
					"saved_attribute_attributes" : 					{
						"valueof" : 						{
							"parameter_initial" : [ 50 ],
							"parameter_initial_enable" : 1,
							"parameter_longname" : "live.dial",
							"parameter_mmax" : 100.0,
							"parameter_shortname" : "sensitivity",
							"parameter_type" : 0,
							"parameter_unitstyle" : 5
						}

					}
,
					"varname" : "live.dial"
				}

			}
, 			{
				"box" : 				{
					"angle" : 270.0,
					"bgcolor" : [ 0.686274509803922, 0.686274509803922, 0.686274509803922, 1.0 ],
					"border" : 2,
					"bordercolor" : [ 0.0, 0.0, 0.0, 1.0 ],
					"id" : "obj-47",
					"maxclass" : "panel",
					"mode" : 0,
					"numinlets" : 1,
					"numoutlets" : 0,
					"patching_rect" : [ 629.0, 120.0, 169.0, 66.0 ],
					"proportion" : 0.5
				}

			}
, 			{
				"box" : 				{
					"channels" : 1,
					"id" : "obj-1",
					"lastchannelcount" : 0,
					"maxclass" : "live.gain~",
					"numinlets" : 1,
					"numoutlets" : 4,
					"outlettype" : [ "signal", "", "float", "list" ],
					"parameter_enable" : 1,
					"patching_rect" : [ 101.499997735023499, 252.291484958255751, 48.0, 136.0 ],
					"saved_attribute_attributes" : 					{
						"valueof" : 						{
							"parameter_longname" : "live.gain~",
							"parameter_mmax" : 6.0,
							"parameter_mmin" : -70.0,
							"parameter_shortname" : "thru",
							"parameter_type" : 0,
							"parameter_unitstyle" : 4
						}

					}
,
					"varname" : "live.gain~"
				}

			}
, 			{
				"box" : 				{
					"id" : "obj-12",
					"maxclass" : "newobj",
					"numinlets" : 1,
					"numoutlets" : 1,
					"outlettype" : [ "signal" ],
					"patching_rect" : [ 40.666666666666686, 200.0, 45.0, 22.0 ],
					"text" : "adc~ 1"
				}

			}
, 			{
				"box" : 				{
					"bubble" : 1,
					"bubbleside" : 3,
					"fontname" : "Arial",
					"fontsize" : 13.0,
					"id" : "obj-15",
					"linecount" : 2,
					"maxclass" : "comment",
					"numinlets" : 1,
					"numoutlets" : 0,
					"patching_rect" : [ 22.166666666666686, 109.5, 57.0, 40.0 ],
					"text" : "play audio"
				}

			}
, 			{
				"box" : 				{
					"id" : "obj-20",
					"linecount" : 2,
					"maxclass" : "newobj",
					"numinlets" : 1,
					"numoutlets" : 1,
					"outlettype" : [ "" ],
					"patching_rect" : [ 319.0, 291.582969916511502, 358.0, 35.0 ],
					"text" : "sp.sinusoidplayer~ @duration 7000 @voices 1 @slope 14 @shape 25 @transpose -24 @brightness 0 @width 0 @gain 150"
				}

			}
, 			{
				"box" : 				{
					"id" : "obj-18",
					"maxclass" : "ezdac~",
					"numinlets" : 2,
					"numoutlets" : 0,
					"patching_rect" : [ 101.499997735023499, 407.874454874767252, 45.0, 45.0 ]
				}

			}
, 			{
				"box" : 				{
					"id" : "obj-11",
					"maxclass" : "newobj",
					"numinlets" : 1,
					"numoutlets" : 4,
					"outlettype" : [ "", "", "", "" ],
					"patching_rect" : [ 179.999997735023499, 252.291484958255751, 110.000002264976501, 22.0 ],
					"text" : "sp.sines~"
				}

			}
, 			{
				"box" : 				{
					"basictuning" : 440,
					"clipheight" : 45.25,
					"data" : 					{
						"clips" : [ 							{
								"absolutepath" : "Brew-AcousticGuitar.wav",
								"filename" : "Brew-AcousticGuitar.wav",
								"filekind" : "audiofile",
								"id" : "u668020764",
								"loop" : 1,
								"content_state" : 								{
									"loop" : 1
								}

							}
, 							{
								"absolutepath" : "Brew-ChordHarmonics.wav",
								"filename" : "Brew-ChordHarmonics.wav",
								"filekind" : "audiofile",
								"id" : "u049020795",
								"loop" : 1,
								"content_state" : 								{
									"loop" : 1
								}

							}
, 							{
								"absolutepath" : "Rivero-MelodicVocals.wav",
								"filename" : "Rivero-MelodicVocals.wav",
								"filekind" : "audiofile",
								"id" : "u742020770",
								"loop" : 1,
								"content_state" : 								{
									"loop" : 1
								}

							}
, 							{
								"absolutepath" : "Tremblay-CEL-GlitchyMusicBoxMelo.wav",
								"filename" : "Tremblay-CEL-GlitchyMusicBoxMelo.wav",
								"filekind" : "audiofile",
								"id" : "u713003782",
								"loop" : 1,
								"content_state" : 								{
									"loop" : 1
								}

							}
 ]
					}
,
					"followglobaltempo" : 0,
					"formantcorrection" : 0,
					"id" : "obj-81",
					"maxclass" : "playlist~",
					"mode" : "basic",
					"numinlets" : 1,
					"numoutlets" : 5,
					"originallength" : [ 0.0, "ticks" ],
					"originaltempo" : 120.0,
					"outlettype" : [ "signal", "signal", "signal", "", "dictionary" ],
					"parameter_enable" : 0,
					"patching_rect" : [ 101.499997735023499, 37.0, 511.0, 185.0 ],
					"pitchcorrection" : 0,
					"quality" : "basic",
					"timestretch" : [ 0 ]
				}

			}
, 			{
				"box" : 				{
					"background" : 1,
					"bgcolor" : [ 1.0, 0.788235, 0.470588, 1.0 ],
					"fontface" : 1,
					"hint" : "",
					"id" : "obj-49",
					"ignoreclick" : 1,
					"legacytextcolor" : 1,
					"maxclass" : "textbutton",
					"numinlets" : 1,
					"numoutlets" : 3,
					"outlettype" : [ "", "", "int" ],
					"parameter_enable" : 0,
					"patching_rect" : [ 40.666666666666686, 84.5, 20.0, 20.0 ],
					"rounded" : 60.0,
					"text" : "1",
					"textcolor" : [ 0.34902, 0.34902, 0.34902, 1.0 ]
				}

			}
 ],
		"lines" : [ 			{
				"patchline" : 				{
					"destination" : [ "obj-18", 1 ],
					"order" : 0,
					"source" : [ "obj-1", 0 ]
				}

			}
, 			{
				"patchline" : 				{
					"destination" : [ "obj-18", 0 ],
					"order" : 1,
					"source" : [ "obj-1", 0 ]
				}

			}
, 			{
				"patchline" : 				{
					"destination" : [ "obj-61", 0 ],
					"source" : [ "obj-10", 0 ]
				}

			}
, 			{
				"patchline" : 				{
					"destination" : [ "obj-20", 0 ],
					"midpoints" : [ 189.499997735023499, 282.437227437383626, 328.5, 282.437227437383626 ],
					"order" : 0,
					"source" : [ "obj-11", 0 ]
				}

			}
, 			{
				"patchline" : 				{
					"destination" : [ "obj-4", 0 ],
					"source" : [ "obj-11", 3 ]
				}

			}
, 			{
				"patchline" : 				{
					"destination" : [ "obj-78", 0 ],
					"order" : 1,
					"source" : [ "obj-11", 0 ]
				}

			}
, 			{
				"patchline" : 				{
					"destination" : [ "obj-1", 0 ],
					"order" : 1,
					"source" : [ "obj-12", 0 ]
				}

			}
, 			{
				"patchline" : 				{
					"destination" : [ "obj-11", 0 ],
					"midpoints" : [ 50.166666666666686, 236.645742479127875, 189.499997735023499, 236.645742479127875 ],
					"order" : 0,
					"source" : [ "obj-12", 0 ]
				}

			}
, 			{
				"patchline" : 				{
					"destination" : [ "obj-8", 0 ],
					"source" : [ "obj-17", 0 ]
				}

			}
, 			{
				"patchline" : 				{
					"destination" : [ "obj-9", 0 ],
					"source" : [ "obj-2", 0 ]
				}

			}
, 			{
				"patchline" : 				{
					"destination" : [ "obj-18", 1 ],
					"midpoints" : [ 328.5, 336.728712395639377, 136.999997735023499, 336.728712395639377 ],
					"order" : 0,
					"source" : [ "obj-20", 0 ]
				}

			}
, 			{
				"patchline" : 				{
					"destination" : [ "obj-18", 0 ],
					"midpoints" : [ 328.5, 336.728712395639377, 110.999997735023499, 336.728712395639377 ],
					"order" : 1,
					"source" : [ "obj-20", 0 ]
				}

			}
, 			{
				"patchline" : 				{
					"destination" : [ "obj-24", 0 ],
					"source" : [ "obj-23", 0 ]
				}

			}
, 			{
				"patchline" : 				{
					"destination" : [ "obj-25", 0 ],
					"midpoints" : [ 305.499997735023499, 417.565322857687988, 277.499997735023499, 417.565322857687988 ],
					"source" : [ "obj-24", 1 ]
				}

			}
, 			{
				"patchline" : 				{
					"destination" : [ "obj-25", 0 ],
					"source" : [ "obj-24", 0 ]
				}

			}
, 			{
				"patchline" : 				{
					"destination" : [ "obj-60", 0 ],
					"source" : [ "obj-25", 0 ]
				}

			}
, 			{
				"patchline" : 				{
					"destination" : [ "obj-4", 10 ],
					"source" : [ "obj-3", 9 ]
				}

			}
, 			{
				"patchline" : 				{
					"destination" : [ "obj-4", 9 ],
					"source" : [ "obj-3", 8 ]
				}

			}
, 			{
				"patchline" : 				{
					"destination" : [ "obj-4", 8 ],
					"source" : [ "obj-3", 7 ]
				}

			}
, 			{
				"patchline" : 				{
					"destination" : [ "obj-4", 7 ],
					"source" : [ "obj-3", 6 ]
				}

			}
, 			{
				"patchline" : 				{
					"destination" : [ "obj-4", 6 ],
					"source" : [ "obj-3", 5 ]
				}

			}
, 			{
				"patchline" : 				{
					"destination" : [ "obj-4", 5 ],
					"source" : [ "obj-3", 4 ]
				}

			}
, 			{
				"patchline" : 				{
					"destination" : [ "obj-4", 4 ],
					"source" : [ "obj-3", 3 ]
				}

			}
, 			{
				"patchline" : 				{
					"destination" : [ "obj-4", 3 ],
					"source" : [ "obj-3", 2 ]
				}

			}
, 			{
				"patchline" : 				{
					"destination" : [ "obj-4", 2 ],
					"source" : [ "obj-3", 1 ]
				}

			}
, 			{
				"patchline" : 				{
					"destination" : [ "obj-4", 1 ],
					"source" : [ "obj-3", 0 ]
				}

			}
, 			{
				"patchline" : 				{
					"destination" : [ "obj-60", 1 ],
					"midpoints" : [ 366.499997735023499, 458.600616975335015, 305.499997735023499, 458.600616975335015 ],
					"order" : 0,
					"source" : [ "obj-4", 0 ]
				}

			}
, 			{
				"patchline" : 				{
					"destination" : [ "obj-61", 1 ],
					"midpoints" : [ 366.499997735023499, 458.600616975335015, 217.499997735023499, 458.600616975335015 ],
					"order" : 1,
					"source" : [ "obj-4", 0 ]
				}

			}
, 			{
				"patchline" : 				{
					"destination" : [ "obj-11", 0 ],
					"midpoints" : [ 644.5, 237.645742479127875, 189.499997735023499, 237.645742479127875 ],
					"source" : [ "obj-5", 0 ]
				}

			}
, 			{
				"patchline" : 				{
					"destination" : [ "obj-5", 0 ],
					"source" : [ "obj-58", 0 ]
				}

			}
, 			{
				"patchline" : 				{
					"destination" : [ "obj-6", 0 ],
					"source" : [ "obj-59", 0 ]
				}

			}
, 			{
				"patchline" : 				{
					"destination" : [ "obj-11", 0 ],
					"midpoints" : [ 699.5, 237.645742479127875, 189.499997735023499, 237.645742479127875 ],
					"source" : [ "obj-6", 0 ]
				}

			}
, 			{
				"patchline" : 				{
					"destination" : [ "obj-7", 1 ],
					"midpoints" : [ 277.499997735023499, 499.635911092982042, 215.499997735023499, 499.635911092982042 ],
					"source" : [ "obj-60", 0 ]
				}

			}
, 			{
				"patchline" : 				{
					"destination" : [ "obj-7", 0 ],
					"source" : [ "obj-61", 0 ]
				}

			}
, 			{
				"patchline" : 				{
					"destination" : [ "obj-17", 0 ],
					"source" : [ "obj-78", 0 ]
				}

			}
, 			{
				"patchline" : 				{
					"destination" : [ "obj-23", 0 ],
					"source" : [ "obj-78", 1 ]
				}

			}
, 			{
				"patchline" : 				{
					"destination" : [ "obj-10", 0 ],
					"midpoints" : [ 217.499997735023499, 417.565322857687988, 189.499997735023499, 417.565322857687988 ],
					"source" : [ "obj-8", 1 ]
				}

			}
, 			{
				"patchline" : 				{
					"destination" : [ "obj-10", 0 ],
					"source" : [ "obj-8", 0 ]
				}

			}
, 			{
				"patchline" : 				{
					"destination" : [ "obj-1", 0 ],
					"order" : 1,
					"source" : [ "obj-81", 0 ]
				}

			}
, 			{
				"patchline" : 				{
					"destination" : [ "obj-11", 0 ],
					"midpoints" : [ 110.999997735023499, 236.645742479127875, 189.499997735023499, 236.645742479127875 ],
					"order" : 0,
					"source" : [ "obj-81", 0 ]
				}

			}
, 			{
				"patchline" : 				{
					"destination" : [ "obj-11", 0 ],
					"midpoints" : [ 754.5, 237.645742479127875, 189.499997735023499, 237.645742479127875 ],
					"source" : [ "obj-9", 0 ]
				}

			}
 ],
		"parameters" : 		{
			"obj-1" : [ "live.gain~", "thru", 0 ],
			"obj-2" : [ "live.dial[3]", "floor", 0 ],
			"obj-58" : [ "live.dial", "sensitivity", 0 ],
			"obj-59" : [ "live.dial[1]", "lockout", 0 ],
			"parameterbanks" : 			{
				"0" : 				{
					"index" : 0,
					"name" : "",
					"parameters" : [ "-", "-", "-", "-", "-", "-", "-", "-" ]
				}

			}
,
			"inherited_shortname" : 1
		}
,
		"autosave" : 0
	}

}
